<svg width="95" height="44" viewBox="0 0 95 44" fill="none" xmlns="http://www.w3.org/2000/svg">
<g clip-path="url(#clip0_4_220)">
<path d="M94.2678 29.4978C94.169 29.4978 89.7061 30.3102 88.4567 30.345C87.6431 30.345 86.6088 30.4147 86.5913 29.8808V29.6603C86.5913 29.4513 86.5913 29.3063 86.0102 29.3179C85.8068 29.3179 85.5918 29.3585 85.3884 29.3643C85.185 29.3701 84.6446 29.3005 84.633 29.0741C84.6299 29.0678 84.6283 29.0609 84.6283 29.0538C84.6283 29.0468 84.6299 29.0398 84.633 29.0335C84.3308 29.0335 84.0519 29.0335 83.7323 29.0741C81.7565 29.1322 84.017 28.6563 80.1701 28.7666C79.6502 28.7816 79.1329 28.8438 78.6243 28.9523C78.2388 28.3489 77.7364 27.8286 77.1466 27.422C76.5568 27.0154 75.8915 26.7306 75.1899 26.5845C75.527 26.2626 75.7477 25.8381 75.8175 25.3775C75.8175 24.9887 75.4631 25.1163 75.4631 24.7623C75.4631 24.2342 77.032 23.6017 77.032 23.0562C77.032 22.708 76.8228 22.3134 76.8228 21.971C76.8991 21.4951 77.1156 21.0526 77.4446 20.7001C79.4669 19.168 80.4548 17.8681 80.3851 17.5838C80.1294 16.4231 84.5168 14.4326 84.3482 13.6782C84.2611 13.301 83.9531 13.4867 83.9066 13.2778C83.8601 13.0688 84.4005 12.9064 84.4877 12.651C84.4877 12.651 84.1913 12.651 84.139 12.4595C84.6737 11.56 85.9347 10.9855 84.6097 11.2989C84.5168 11.2989 80.2921 12.9702 79.0427 13.2546C78.2466 13.4286 77.2412 13.6782 77.125 13.1559C77.125 13.0805 77.125 13.005 77.0785 12.9354C77.0379 12.7381 76.9914 12.593 76.4393 12.7207C76.2359 12.7613 76.0325 12.8367 75.8292 12.8831C75.6258 12.9296 75.0853 12.9644 75.0388 12.7381C75.0388 12.7381 75.0388 12.7381 75.0388 12.6974C74.7425 12.7613 74.4577 12.8425 74.1614 12.9122C72.2379 13.3474 74.3589 12.4479 70.6108 13.2952C70.0933 13.4069 69.5889 13.5722 69.1057 13.7885C70.3725 12.1926 72.9468 9.96413 72.7202 9.45925C72.5575 9.09945 64.1779 14.3223 70.2447 9.00659C70.4364 8.8441 65.7469 11.3743 64.5963 11.56C64.2434 10.9882 63.8262 10.4586 63.3527 9.98154C63.3501 9.96617 63.3501 9.95048 63.3527 9.93511C63.3527 9.61013 64.7125 8.88473 64.7125 7.88657C64.6729 7.54068 64.5889 7.20132 64.4626 6.87681C64.6609 6.75452 64.8248 6.58378 64.9386 6.3807C65.0525 6.17763 65.1127 5.94892 65.1135 5.71617C65.1072 5.46593 65.0324 5.22219 64.8972 5.01142C64.7619 4.80066 64.5714 4.63094 64.3464 4.52071C64.5714 4.41048 64.7619 4.24076 64.8972 4.03C65.0324 3.81923 65.1072 3.57549 65.1135 3.32525C65.0924 2.93468 64.9174 2.56831 64.6267 2.30624C64.3359 2.04417 63.9531 1.9077 63.5619 1.92667C63.2822 1.92114 63.0061 1.99098 62.7627 2.12884C62.5193 2.2667 62.3177 2.46749 62.1789 2.7101C62.0122 2.65393 61.8376 2.62455 61.6617 2.62305C61.5661 2.62381 61.4707 2.63353 61.3769 2.65207C61.0734 2.37668 60.6771 2.22544 60.267 2.22844C59.9098 2.21361 59.559 2.32728 59.2786 2.54878C58.9981 2.77028 58.8065 3.08492 58.7387 3.43551C58.2393 3.5031 57.7754 3.73095 57.4169 4.08474C57.0584 4.43853 56.8248 4.89908 56.7513 5.397C56.4914 5.41926 56.2484 5.53515 56.0677 5.72307C55.887 5.91098 55.7809 6.1581 55.7692 6.41836C55.7697 6.52788 55.7914 6.63627 55.8331 6.73754C55.6623 6.96076 55.5703 7.23422 55.5716 7.51517C55.5684 7.56348 55.5684 7.61194 55.5716 7.66025C55.4876 7.67572 55.4057 7.70105 55.3276 7.73569C55.0772 7.58984 54.7922 7.51369 54.5024 7.51517C54.1904 7.5142 53.8844 7.60065 53.6191 7.76471C53.3294 7.53693 52.9708 7.41416 52.6022 7.41651C52.2367 7.40102 51.8784 7.52108 51.5962 7.75356C51.3141 7.98605 51.128 8.31454 51.0738 8.67581C50.2893 8.60617 49.377 8.56555 48.3077 8.56555C43.5833 8.56555 44.9373 10.6895 43.9843 11.972C43.8442 11.7344 43.6434 11.5382 43.4024 11.4036C43.1614 11.269 42.8889 11.2008 42.6129 11.206C42.3717 11.2064 42.1336 11.2599 41.9155 11.3627C41.7073 11.1606 41.4326 11.041 41.1426 11.0261C40.998 11.0271 40.8545 11.0526 40.7184 11.1016C40.5002 10.9239 40.2271 10.8275 39.9456 10.8288C39.8013 10.8202 39.6567 10.8401 39.5201 10.8874C39.3836 10.9346 39.2577 11.0084 39.1497 11.1043C39.0417 11.2003 38.9538 11.3166 38.8909 11.4466C38.8281 11.5766 38.7915 11.7177 38.7833 11.8618C38.7839 11.9922 38.8109 12.1212 38.8629 12.2409C38.9148 12.3607 38.9906 12.4686 39.0855 12.5582C38.6982 12.5997 38.3387 12.7792 38.073 13.0637C37.8073 13.3483 37.6531 13.7188 37.6385 14.1076C35.9882 11.206 32.0831 9.58692 28.4744 10.7244C27.8066 10.9318 27.1724 11.2348 26.5916 11.6238L26.3011 11.473C26.1325 10.0744 25.412 9.15168 23.9127 9.15168C22.8667 9.15168 22.4715 9.41862 22.2333 9.732C21.5527 9.50113 20.8421 9.37016 20.1239 9.34318C19.1127 9.34318 17.3403 6.4822 14.8358 6.4822C14.2198 6.4822 15.8353 8.22316 15.0566 8.22316C14.8358 8.22316 14.6498 7.95621 14.4232 7.95621H14.3534C14.859 8.88473 15.6319 9.81324 15.6319 10.8578C15.6319 11.3453 15.3936 11.0087 15.3936 11.3975C15.3883 11.4145 15.3883 11.4328 15.3936 11.4498C15.5647 12.3388 15.9189 13.1826 16.4338 13.9277C16.3463 14.1477 16.2991 14.3816 16.2943 14.6183C16.3227 15.1662 16.5546 15.6838 16.9447 16.0701C17.3347 16.4564 17.8549 16.6837 18.4038 16.7075C18.4009 16.7422 18.4009 16.7772 18.4038 16.8119C18.4033 16.9799 18.4495 17.1446 18.5374 17.2878C18.3421 17.3665 18.1759 17.5035 18.0615 17.6801C17.9471 17.8566 17.8901 18.0642 17.8982 18.2743C17.9064 18.4185 17.9429 18.5595 18.0058 18.6895C18.0687 18.8195 18.1566 18.9358 18.2646 19.0318C18.3726 19.1277 18.4984 19.2015 18.635 19.2488C18.7716 19.296 18.9161 19.3159 19.0604 19.3073H19.1244C19.1215 19.3634 19.1215 19.4195 19.1244 19.4756C19.1228 19.6393 19.1612 19.8008 19.2361 19.9464C19.311 20.092 19.4202 20.2172 19.5544 20.3113C19.3817 20.4886 19.2839 20.7255 19.2812 20.9728C19.285 21.1321 19.3265 21.2882 19.4022 21.4284C19.478 21.5686 19.5859 21.6889 19.7171 21.7795C19.2696 22.1393 18.7641 22.4817 18.7641 22.9401C18.7641 23.3986 19.5195 23.7874 19.5195 24.2865C19.5024 24.4619 19.449 24.6319 19.3626 24.7855C18.0958 24.2517 16.335 23.5553 16.2362 23.7352C16.1374 23.9151 17.2183 24.7275 18.2294 25.4761H18.119C17.0465 24.9419 15.8657 24.66 14.6672 24.6521C10.8203 24.6521 13.0924 25.1163 11.1166 25.1163C10.8145 25.1163 10.5355 25.1163 10.2159 25.1163C10.2186 25.1228 10.22 25.1297 10.22 25.1366C10.22 25.1436 10.2186 25.1505 10.2159 25.157C10.2159 25.4181 9.7336 25.5168 9.4721 25.5168C9.2106 25.5168 9.04789 25.4877 8.8445 25.4877C8.26339 25.4877 8.26339 25.656 8.26339 25.8882C8.26339 25.9694 8.26339 26.0565 8.26339 26.1435C8.26339 26.7238 7.22901 26.7238 6.41546 26.7238C5.1312 26.7238 0.650838 25.9462 0.552049 25.9462C-0.80194 25.9462 0.552047 26.2654 1.27262 27.1068C1.27262 27.368 0.970447 27.3854 0.970447 27.4028C1.1041 27.6756 1.66778 27.6407 1.66778 27.9831C1.66778 28.3255 1.32493 28.0992 1.32493 28.5634C1.32493 29.4455 6.04936 30.5888 6.04936 31.9061C6.04537 31.9174 6.04537 31.9297 6.04936 31.9409C6.04936 32.2891 7.43821 33.6064 10.0067 34.8425C9.48953 35.005 8.99559 35.2023 8.99559 35.4228C8.99559 35.6434 9.50116 35.8929 10.0242 36.0844C9.54947 37.2959 9.4012 38.6105 9.59413 39.8971C10.1229 42.3113 15.475 43.9594 15.475 43.9594H86.8935C86.8935 43.9594 93.9889 41.0172 89.7235 38.4637C88.9913 38.0459 86.4286 37.7383 86.4286 37.5236C86.4299 37.3296 86.4182 37.1357 86.3937 36.9433C88.0383 36.0264 88.91 35.2023 88.9041 34.9644C88.8751 33.8038 93.553 32.6431 93.553 31.8945C93.553 31.5057 93.2044 31.6333 93.1986 31.4128C93.1927 31.1923 93.7506 31.1517 93.8785 30.9079C93.8785 30.9079 93.5763 30.9079 93.5705 30.6526C94.2794 29.7763 95.6218 29.4571 94.2678 29.4978Z" fill="#DD5228"/>
<path d="M26.7369 37.1696C26.4638 33.8212 22.3553 31.4244 17.567 31.8133C12.7786 32.2021 9.1118 35.2372 9.38492 38.5856C9.65805 41.9341 13.7665 44.3308 18.5607 43.9362C23.3548 43.5416 27.01 40.5181 26.7369 37.1696Z" fill="#FFD37B"/>
<path d="M12.7844 34.268C12.5717 34.2135 12.3532 34.1842 12.1336 34.181C10.4425 34.181 8.89679 38.2432 8.89679 40.0886C8.89679 42.7813 12.3835 43.5706 13.906 43.5706C15.4285 43.5706 16.8115 42.9902 16.8115 41.4814C16.8115 39.3574 14.2546 40.5065 14.2546 38.5798C14.2546 38.1446 14.7602 38.8584 15.3646 38.8584C15.6202 38.8584 15.7539 38.7191 15.7539 38.6726C15.1021 37.7021 14.7376 36.5677 14.7021 35.3996C14.7021 33.8096 15.8643 32.9217 14.2604 32.9217C13.9235 32.9211 13.594 33.02 13.3132 33.206C12.9355 33.5136 12.9355 33.8908 12.7844 34.268Z" fill="#FFF8DC"/>
<path d="M24.2265 43.9187C24.9296 43.2804 25.5747 42.4563 25.5747 41.5975C25.5747 40.5239 23.6396 41.0578 24.0231 39.5199C23.0817 39.5199 22.2798 39.99 21.4023 40.2569C20.1936 40.5239 18.9849 40.5239 17.7762 40.727C18.1887 40.6051 22.826 39.0498 22.826 37.9763C22.826 37.6106 21.8788 37.0071 21.5359 36.8156C21.5359 36.7634 21.6928 36.5545 21.6928 36.5022C21.6928 36.45 21.6928 36.5022 21.6928 36.5022C20.8909 35.9219 19.8798 36.1018 19.0081 35.9219C19.2754 35.7188 19.6764 35.9219 19.9495 35.5853C19.072 35.2487 18.1364 35.3822 17.259 35.005C18.5357 34.9562 19.7908 34.6606 20.9548 34.1345C20.9548 34.1345 17.6134 32.9739 18.7059 32.9739H18.9558C19.3626 32.9739 19.2812 32.8926 17.3868 32.0512C18.7931 31.7842 20.7456 31.5811 21.4139 30.1071C24.0754 36.4906 25.0633 37.3205 30.2817 41.0404C30.2923 41.0704 30.2923 41.1032 30.2817 41.1332C30.2769 41.2738 30.2211 41.4078 30.1248 41.5104C28.1897 42.3113 26.2371 43.1817 24.2265 43.9187Z" fill="#DD5228"/>
<path d="M58.2796 4.74122C59.7091 4.74122 59.2617 3.6154 60.7668 3.6154C61.1677 3.6154 63.1551 2.26325 63.6723 2.26325C63.5793 2.38512 63.4341 2.536 63.4341 2.66367V2.69849C63.4805 2.83777 63.5561 2.87839 63.6433 2.87839C63.7304 2.87839 64.114 2.68108 64.2244 2.76233C64.5614 2.93642 64.2941 3.81271 64.7067 3.81271H64.759C64.8349 3.77324 64.8997 3.71536 64.9474 3.64439C64.9952 3.57341 65.0243 3.49161 65.0321 3.40649C65.0559 3.44173 65.0773 3.47857 65.096 3.51674C65.805 2.3561 66.1072 1.16644 66.9091 0.0348126C66.9091 0.0348126 66.9091 -0.023215 66.9091 -0.00580537C65.5493 1.445 65.096 1.39277 65.096 0.824051C65.1028 0.8073 65.1028 0.788574 65.096 0.771824H64.9682C64.5749 0.821671 64.1988 0.962779 63.8699 1.18385C63.8743 1.17067 63.8743 1.15641 63.8699 1.14323C63.8699 1.04457 63.8176 1.04458 63.742 1.04458C63.3459 1.0868 62.9634 1.21345 62.6205 1.41598C62.4985 1.41598 62.8006 0.835659 62.8006 0.707988C62.8006 0.707988 62.8006 0.707988 62.7542 0.707988C61.4176 0.707988 60.7784 2.19942 59.035 3.86494C58.7154 4.10868 58.576 4.47427 58.2796 4.74122Z" fill="#DD5228"/>
<path d="M34.6749 41.9109C42.0629 41.9109 48.0521 37.0522 48.0521 31.0588C48.0521 25.0654 42.0629 20.2068 34.6749 20.2068C27.2869 20.2068 21.2977 25.0654 21.2977 31.0588C21.2977 37.0522 27.2869 41.9109 34.6749 41.9109Z" fill="#FFF8DC"/>
<path d="M32.426 29.7299C31.5601 25.6676 28.2769 25.569 25.4062 25.569C22.9946 25.569 23.0004 26.1493 23.0004 26.1493C23.0004 26.1493 22.9423 26.1145 22.9423 26.0738C22.9423 25.8475 23.6686 25.1569 23.6686 24.623C23.6686 24.2226 27.4575 21.2688 28.1432 21.6112C32.0657 23.2245 30.9442 23.3521 32.0192 25.5341C32.2363 25.9656 32.3422 26.4443 32.3272 26.9269C32.3272 27.5479 32.211 28.1804 32.211 28.8072C32.211 28.9232 32.211 29.0393 32.211 29.1554C32.2609 29.3543 32.333 29.547 32.426 29.7299Z" fill="#FFDD71"/>
<path d="M81.4078 33.8676C81.5356 28.5808 73.7488 24.1066 64.0152 23.8802C54.2815 23.6539 46.2855 27.7452 46.1576 33.0261C46.0298 38.307 53.8225 42.7813 63.5561 43.0134C73.2897 43.2456 81.2858 39.1485 81.4078 33.8676Z" fill="#FFF8DC"/>
<path d="M71.5522 40.5065H71.4999C71.3313 40.46 71.4534 39.636 71.279 39.3922C71.2267 39.3922 71.1396 39.5083 71.0466 39.4851C70.9536 39.4619 70.7677 39.3864 70.6689 39.3574C70.6689 39.3574 66.8975 43.4719 63.6142 42.8394C63.7131 42.8745 63.814 42.9035 63.9164 42.9264C66.328 43.5764 67.403 42.1662 68.9488 42.0269C70.0355 41.9282 73.0631 42.6769 74.1149 38.7771C74.1614 38.603 74.202 38.4173 74.2427 38.2374C73.4931 39.2007 72.2495 40.3614 71.5522 40.5065Z" fill="#FFDD71"/>
<path d="M74.789 37.0361H74.725C74.5972 37.1116 74.574 36.9723 74.4113 37.5758C74.3531 37.8022 74.295 38.0343 74.2427 38.2606C74.7425 37.6281 75.033 37.1 74.789 37.0361Z" fill="#FFDD71"/>
<path d="M75.649 18.0538C74.3183 14.4906 67.9842 13.5621 61.499 15.982C55.0138 18.402 50.8414 23.2477 52.1838 26.805C53.5261 30.3624 59.8486 31.2909 66.3338 28.8768C72.819 26.4627 76.9798 21.6112 75.649 18.0538Z" fill="#FFF8DC"/>
<path d="M31.1592 22.1335C34.6991 22.1335 37.5688 19.5379 37.5688 16.3361C37.5688 13.1342 34.6991 10.5386 31.1592 10.5386C27.6192 10.5386 24.7495 13.1342 24.7495 16.3361C24.7495 19.5379 27.6192 22.1335 31.1592 22.1335Z" fill="#FFD37B"/>
<path d="M46.1344 15.2799C46.1344 13.2603 44.3271 11.6238 42.0666 11.6238C39.8061 11.6238 37.9988 13.2603 37.9988 15.2799C37.9988 17.2994 39.8061 18.9417 42.0666 18.9417C44.3271 18.9417 46.1344 17.3052 46.1344 15.2799Z" fill="#FFD37B"/>
<path d="M36.0812 15.4424C36.0812 12.9064 33.809 10.852 31.0139 10.852C28.2188 10.852 25.9408 12.9064 25.9408 15.4424C25.9408 17.9784 28.2129 20.0327 31.0139 20.0327C33.8149 20.0327 36.0812 17.99 36.0812 15.4424Z" fill="#FFF8DC"/>
<path d="M45.3499 13.9277C44.7688 12.1867 42.6594 11.3047 40.6661 11.9836C38.6729 12.6626 37.5398 14.6241 38.1383 16.3709C38.7369 18.1176 40.8289 18.9939 42.7872 18.3207C44.7455 17.6476 45.9426 15.6687 45.3499 13.9277Z" fill="#FFF8DC"/>
<path d="M40.8288 12.6162C40.9864 12.4085 41.0559 12.1472 41.0222 11.8887C40.9885 11.6303 40.8543 11.3955 40.6487 11.235C40.5493 11.1518 40.4345 11.0891 40.3107 11.0505C40.1869 11.0118 40.0567 10.998 39.9276 11.0099C39.7985 11.0218 39.673 11.0591 39.5584 11.1196C39.4438 11.1802 39.3423 11.2628 39.2598 11.3627C39.1803 11.465 39.1219 11.582 39.0879 11.7069C39.0539 11.8319 39.045 11.9624 39.0618 12.0908C39.0785 12.2192 39.1205 12.343 39.1855 12.4551C39.2504 12.5672 39.3369 12.6653 39.44 12.7439C39.5393 12.8271 39.6542 12.8898 39.778 12.9284C39.9017 12.9671 40.0319 12.9809 40.161 12.969C40.2902 12.9571 40.4157 12.9198 40.5303 12.8593C40.6449 12.7987 40.7464 12.7161 40.8288 12.6162Z" fill="#FFF8DC"/>
<path d="M39.8526 14.5893C40.0117 14.3821 40.082 14.1204 40.0483 13.8616C40.0145 13.6027 39.8793 13.3677 39.6724 13.2081C39.4704 13.0422 39.2107 12.9631 38.9504 12.9882C38.69 13.0132 38.4502 13.1403 38.2836 13.3416C38.126 13.5493 38.0565 13.8106 38.0902 14.0691C38.1239 14.3275 38.2581 14.5623 38.4637 14.7228C38.5631 14.8064 38.6782 14.8694 38.8023 14.908C38.9263 14.9466 39.0569 14.9601 39.1862 14.9476C39.3156 14.9352 39.4412 14.8971 39.5556 14.8356C39.67 14.774 39.771 14.6903 39.8526 14.5893Z" fill="#FFF8DC"/>
<path d="M41.9388 12.8483C42.0972 12.6405 42.1666 12.3783 42.1317 12.1194C42.0969 11.8604 41.9606 11.6259 41.7528 11.4672C41.6532 11.3852 41.5385 11.3236 41.4151 11.286C41.2917 11.2483 41.162 11.2353 41.0336 11.2477C40.9051 11.2601 40.7804 11.2976 40.6665 11.3582C40.5526 11.4188 40.4518 11.5011 40.3698 11.6006C40.2902 11.7029 40.2318 11.8199 40.1978 11.9449C40.1638 12.0699 40.1549 12.2003 40.1717 12.3287C40.1884 12.4571 40.2305 12.5809 40.2954 12.693C40.3603 12.8051 40.4468 12.9033 40.5499 12.9818C40.7519 13.1477 41.0116 13.2268 41.272 13.2018C41.5323 13.1768 41.7721 13.0497 41.9388 12.8483Z" fill="#FFF8DC"/>
<path d="M62.8936 27.9773C62.8936 21.9826 56.9082 17.1253 49.5281 17.1253C42.148 17.1253 36.1625 21.9826 36.1625 27.9773C36.1625 33.972 42.148 38.8235 49.5281 38.8235C56.9082 38.8235 62.8936 33.9662 62.8936 27.9773Z" fill="#FFF8DC"/>
<path d="M43.9378 39.4967C46.4559 40.3567 49.0755 40.8854 51.7305 41.0694C50.0511 40.1931 41.1136 36.2701 42.4327 36.2701C46.8085 36.2701 36.3485 37.6803 36.3485 24.0834C36.3485 21.4603 36.0231 22.1509 38.7194 18.106C38.1383 18.6864 33.5533 22.5165 33.5533 26.3408L33.1756 27.3854C33.1059 30.7745 33.8439 30.0549 33.8439 33.4323C33.8439 36.0496 34.0938 38.3709 36.6216 39.0615C39.3528 39.7404 44.0191 42.0559 44.0191 40.5761C44.0191 40.3266 43.8797 40.0596 43.8797 39.8101C43.8666 39.7021 43.8869 39.5928 43.9378 39.4967Z" fill="#DD5228"/>
<path d="M43.223 40.3962C45.8025 41.056 48.4577 41.3741 51.1203 41.3421C49.377 40.5993 40.1548 37.4017 41.4332 37.2799C45.7973 36.9317 35.4884 39.1659 34.4018 25.6038C34.1926 22.9865 33.9252 23.7061 36.2904 19.4582C35.7093 20.0791 31.4846 24.2633 31.7926 28.076L31.502 29.1496C31.7054 32.5328 32.3795 31.7552 32.6642 35.1269C32.8734 37.7325 33.3093 40.0306 35.8836 40.5123C38.6613 40.9765 43.4961 42.9148 43.3799 41.435C43.3799 41.1854 43.1998 40.9359 43.1765 40.6806C43.1653 40.5833 43.1814 40.4849 43.223 40.3962Z" fill="#FFD45C"/>
<path d="M39.0507 34.3086C39.944 34.9917 40.9598 35.4979 42.0434 35.8C41.4623 35.1385 38.2313 32.0802 38.7543 32.1672C40.4976 32.4458 36.1509 32.6663 37.5165 24.0427C37.7839 22.383 37.5805 22.8008 39.0797 20.4157C38.7775 20.7407 36.5403 22.8705 36.1742 25.2962L35.9185 25.9346C35.5524 28.0702 35.9185 27.6755 35.5814 29.7995C35.3141 31.4592 35.1863 32.9391 36.1625 33.5368C37.1388 34.1345 38.8531 35.9103 39.0042 34.976C39.0042 34.8135 39.0042 34.6394 39.0042 34.4769C39.0076 34.4182 39.0235 34.3608 39.0507 34.3086Z" fill="#FFED83"/>
<path d="M40.3175 36.1889C41.3413 36.753 42.4796 37.0784 43.6473 37.1406C48.0056 37.3669 47.0061 33.2118 52.8927 30.1767C53.7528 29.7241 53.9969 27.6175 54.8395 26.5439C54.9433 26.4338 55.0737 26.352 55.2181 26.3063C55.3625 26.2606 55.5162 26.2525 55.6646 26.2828C55.8738 26.2828 55.7402 26.8631 55.6298 26.8631C53.6017 26.7586 54.8976 29.1844 53.2647 30.5307C50.8182 32.3297 49.5514 35.5215 49.5223 36.1192C49.4177 38.1213 52.823 38.4405 52.7765 39.3806C52.7765 39.3806 52.7765 39.4155 52.7765 39.4271C52.5976 39.6328 52.3696 39.7901 52.1136 39.8845C51.8577 39.9788 51.582 40.0071 51.3121 39.9668C48.4066 39.8159 41.5959 37.1986 40.9044 36.862C40.5964 36.6531 40.5616 36.421 40.3175 36.1889Z" fill="#DD5228"/>
<path d="M21.35 16.6843C21.1989 16.7191 21.0537 16.7423 20.9026 16.7655C19.3336 16.9976 16.7767 16.3767 16.5617 14.9201C16.5151 14.6196 16.53 14.3129 16.6053 14.0184C16.6807 13.7238 16.815 13.4476 17.0002 13.2062C17.1854 12.9649 17.4175 12.7636 17.6827 12.6143C17.9479 12.465 18.2407 12.3709 18.5433 12.3377C19.3045 12.2216 19.9902 12.0765 20.4144 12.0185C21.8788 11.8038 23.5118 12.0185 23.721 13.4519C23.7907 13.9335 23.721 14.4674 23.7907 14.9723C23.8604 15.4772 24.1917 15.5526 24.1917 15.5526C24.1917 15.5526 24.1917 15.5526 24.1917 15.5875C23.4653 16.3709 22.3321 16.4753 21.35 16.6843Z" fill="#FFD37B"/>
<path d="M22.6168 18.0944C22.6168 17.3922 21.6638 16.8235 20.4841 16.8235C19.3045 16.8235 18.3456 17.4038 18.3456 18.0944C18.3456 18.785 19.3045 19.3711 20.4841 19.3711C21.6638 19.3711 22.6168 18.8024 22.6168 18.0944Z" fill="#FFD37B"/>
<path d="M25.4527 12.9528C25.8789 12.5645 26.1335 12.0233 26.1607 11.4478C26.188 10.8723 25.9856 10.3096 25.5979 9.88288C25.1884 9.475 24.6335 9.24594 24.0551 9.24594C23.4767 9.24594 22.9218 9.475 22.5123 9.88288C22.3009 10.0751 22.1297 10.3071 22.0083 10.5655C21.8869 10.824 21.8177 11.1038 21.8048 11.3889C21.7918 11.6741 21.8353 11.959 21.9328 12.2274C22.0303 12.4957 22.1798 12.7422 22.3728 12.9528C22.5747 13.1553 22.8147 13.3159 23.079 13.4256C23.3432 13.5352 23.6266 13.5916 23.9127 13.5916C24.1989 13.5916 24.4822 13.5352 24.7465 13.4256C25.0108 13.3159 25.2507 13.1553 25.4527 12.9528Z" fill="#FFD37B"/>
<path d="M22.1403 10.0105C20.397 8.76285 13.9118 5.10682 13.6445 5.47823C13.3772 5.84964 14.551 7.14956 16.2711 8.37984C17.9912 9.61012 19.6009 10.3355 19.8682 9.96412C20.1355 9.59271 23.8604 11.2524 22.1403 10.0105Z" fill="#FFEEA6"/>
<path d="M19.1534 10.4458C18.2178 10.1788 17.3752 9.57531 17.2997 9.83065C17.2241 10.086 17.9447 11.119 18.8803 11.3859C19.8159 11.6529 20.6236 11.6587 20.705 11.3859C20.7864 11.1132 20.0832 10.7069 19.1534 10.4458Z" fill="#FFEEA6"/>
<path d="M42.4967 26.5613C42.4967 18.9533 47.378 19.2783 49.3363 17.6244C50.1034 17.0789 49.6676 15.6687 55.0719 15.6687C56.7804 15.6687 58.9246 16.6204 60.5518 17.8275C58.884 16.4579 56.484 15.3205 54.6186 15.3205C49.2085 15.3205 49.6501 16.7249 48.8831 17.2762C46.9247 18.9301 42.0434 18.5993 42.0434 26.2073C42.0135 26.5287 42.0771 26.8519 42.2266 27.138C42.376 27.4242 42.605 27.6612 42.886 27.8206C42.6184 27.4564 42.4813 27.0128 42.4967 26.5613Z" fill="#FFED83"/>
<path d="M39.0158 19.7716C36.5286 21.7563 36.395 21.9594 35.3199 24.1066C35.2124 23.9218 35.1581 23.7109 35.163 23.4972C35.163 23.0794 35.3199 22.6442 35.3199 22.2147C35.3199 21.588 36.1277 19.8934 36.1277 19.6787C36.1277 19.464 36.0579 19.3654 36.0579 19.2435C36.0547 19.2184 36.0547 19.1931 36.0579 19.168C36.1862 18.8033 36.4207 18.4852 36.7313 18.2546C37.042 18.024 37.4146 17.8914 37.8013 17.8739C39.4923 17.8739 42.4502 17.1543 42.8337 17.1543C44.4608 17.1543 44.1121 16.9744 45.4429 16.9744C43.316 17.99 40.4279 19.1506 40.4279 19.731C39.8468 19.9109 38.7717 19.789 38.6264 20.0791C38.7659 20.0211 38.8647 19.8702 39.0158 19.7716Z" fill="#FFF8DC"/>
<path d="M51.4748 13.2139C50.423 13.2139 48.4182 14.1947 48.3077 14.1947H47.9998C46.8227 14.4252 45.6828 14.8157 44.6119 15.3553C47.1165 15.7731 47.1397 16.0691 48.3717 16.0691C49.0922 16.0691 49.8244 15.953 50.5566 15.953L50.3358 15.808C51.1138 15.965 51.9079 16.0274 52.7009 15.9937H53.2356C60.3716 15.9937 62.0161 18.5819 63.3469 19.3479C61.6791 14.5603 52.0733 13.2139 51.4748 13.2139Z" fill="#FFF8DC"/>
<path d="M43.6646 15.924C47.0699 14.8156 50.4462 15.924 53.253 14.7286C53.391 14.6539 53.5437 14.6103 53.7004 14.6009C54.0549 14.6009 54.3687 15.1812 54.5547 15.1812L53.2065 14.8156C52.6027 14.7198 51.993 14.6655 51.3818 14.6531C50.1498 14.6531 47.314 15.3669 44.3155 15.3669C44.1042 15.3602 43.8977 15.4303 43.7344 15.5642C43.6867 15.6781 43.6629 15.8006 43.6646 15.924Z" fill="#DD5228"/>
<path d="M38.1616 17.6882C38.1616 17.6186 38.1616 17.5489 38.1616 17.4793C38.1616 15.4656 43.1359 10.5502 39.5446 14.1366V13.8349C39.1599 14.0295 38.8526 14.3486 38.6729 14.7402C38.5044 14.5371 38.4347 14.2701 38.2022 14.1018C38.1832 14.0969 38.1632 14.0969 38.1441 14.1018C37.8478 14.1018 37.6909 15.2218 37.6909 15.5294C37.7273 16.27 37.8864 16.9995 38.1616 17.6882Z" fill="#DD5228"/>
<path d="M38.8182 15.3785C38.8182 15.2218 38.8182 15.0652 38.8182 14.9085C38.8296 14.8296 38.8296 14.7494 38.8182 14.6705V15.3785Z" fill="#DD5228"/>
<path d="M41.9562 11.6064C41.6705 11.4211 41.338 11.3205 40.9974 11.3163C40.0327 11.3163 41.9039 11.5426 42.4966 12.918C42.6104 13.4362 42.688 13.9617 42.7291 14.4906C43.0836 14.3165 42.7291 14.1889 43.1998 14.1889C43.3451 14.2643 43.4787 14.5081 43.6182 14.5081C43.7576 14.5081 43.746 14.5081 43.746 14.6415C43.746 15.8022 42.5838 15.3669 44.7107 14.5255C44.8155 14.4545 44.9344 14.4069 45.0593 14.3862H45.1116C45.2279 14.4732 45.2976 14.6357 45.4196 14.6357C45.5417 14.6357 45.6521 14.2759 45.7508 14.2759C45.8496 14.2759 46.0123 14.5371 46.0123 14.1308C46.0123 13.4635 44.699 11.6877 42.3514 11.6877C42.243 11.6819 42.1343 11.6819 42.0259 11.6877C42.0259 11.6877 41.9562 11.6529 41.9562 11.6064Z" fill="#FFED83"/>
<path d="M43.1301 14.1018C41.102 14.4906 41.1659 15.4075 43.1301 14.1018V14.1018Z" fill="#DD5228"/>
<path d="M46.1227 13.0282C45.8612 12.4479 44.8211 11.8676 44.8211 12.5523C44.8211 12.6278 44.8211 12.7032 44.8211 12.7787C44.8211 13.5331 44.147 13.4518 43.6995 13.6956C43.4903 13.8523 43.2986 13.9857 43.1184 14.1018C43.6937 13.9988 44.2774 13.9503 44.8617 13.9567C45.9833 13.9567 46.3203 14.1366 46.4772 14.6705C46.4068 14.1139 46.2882 13.5644 46.1227 13.0282Z" fill="#DD5228"/>
<path d="M29.8517 10.6663H29.8981C29.3751 11.0145 28.6953 11.3627 28.6953 12.0127C28.6953 12.9064 29.2764 12.5234 29.7006 12.8251C30.5897 13.1211 28.8115 13.1617 27.8352 13.5795C20.6411 16.7017 26.673 13.8523 27.4807 12.9992C27.7829 12.6974 27.6318 12.2448 27.7306 11.8908C27.8174 11.5634 28.0048 11.2714 28.2664 11.0559C28.5281 10.8404 28.8508 10.7123 29.1892 10.6895H29.3345C29.5071 10.705 29.6811 10.6972 29.8517 10.6663Z" fill="#DD5228"/>
<path d="M28.4221 11.3163C28.2246 11.0958 27.626 11.3163 27.0914 11.7979C26.5568 12.2796 26.2837 12.8541 26.5103 13.0805C26.7369 13.3068 27.3122 13.0805 27.8468 12.5988C28.3815 12.1171 28.6255 11.5368 28.4221 11.3163Z" fill="#FFF8DC"/>
<path d="M35.1921 13.684C35.1921 14.1076 33.9485 15.4249 33.9485 16.0807C33.9485 16.2722 32.4725 17.8217 31.8333 17.8217C31.502 17.8217 27.7655 17.0615 27.7306 17.0324C28.7359 18.0364 28.2536 17.2297 27.0275 17.2297C27.5059 18.1225 28.2219 18.8659 29.0966 19.3779C29.9713 19.8899 30.9706 20.1507 31.9843 20.1314C35.6918 20.1314 36.3369 17.961 36.3369 14.5893C36.3369 14.1424 36.2787 12.7497 35.808 12.7497C35.6976 12.7497 35.6744 12.7903 35.6744 12.8715C35.6744 12.9528 35.7848 13.1559 35.7848 13.2545C35.7856 13.2704 35.7822 13.2862 35.7751 13.3005C35.768 13.3147 35.7573 13.3269 35.7441 13.3358C35.6453 13.4809 35.3896 13.5331 35.1921 13.684Z" fill="#FFED83"/>
<path d="M31.4614 21.1295C31.3974 21.1295 27.5621 19.876 27.5621 19.8122C27.5594 19.8058 27.558 19.7989 27.558 19.7919C27.558 19.7849 27.5594 19.778 27.5621 19.7716C27.6783 19.5453 28.2013 19.7716 28.2013 19.4176C28.2013 19.2145 27.5505 18.9997 28.8405 18.9997C33.2686 18.9997 33.2047 18.0886 33.8613 17.7579C33.9814 17.7105 34.1101 17.6887 34.2391 17.694H34.5645C35.8894 17.694 36.0115 14.5429 36.0115 17.2124C36.0115 19.2725 35.3374 21.3849 32.3679 21.3849C32.0503 21.3691 31.7404 21.2818 31.4614 21.1295Z" fill="#FFF8DC"/>
<path d="M37.1853 17.1949C37.0226 17.1949 36.8947 17.1427 36.8947 16.9802C36.8947 16.8177 37.0749 16.4347 37.0749 16.1504C37.0833 16.0985 37.0833 16.0456 37.0749 15.9937C37.0749 15.9937 36.8947 16.0633 36.8482 16.0633C36.7994 15.9436 36.7757 15.8153 36.7785 15.6861C36.7785 14.3281 37.1504 15.9298 34.2797 17.6244C31.8972 19.0694 30.2119 18.2047 31.0023 19.0346C30.6013 19.0346 29.7471 19.3305 30.9267 19.3305C32.7165 19.3305 36.3369 18.2453 36.9586 18.0538L36.8599 18.1757C36.4589 18.4949 36.424 18.6167 36.5519 18.5471L35.7383 19.5336C36.4589 18.5703 38.4405 17.1949 37.1853 17.1949Z" fill="#DD5228"/>
<path d="M37.8129 36.5196C38.5102 37.1406 39.3063 37.8718 40.3233 38.0343C40.9044 38.307 41.0264 38.957 40.8463 39.1021C40.8329 39.1053 40.819 39.1053 40.8056 39.1021C39.6841 39.3168 37.9 40.6573 37.2783 39.9319C37.0574 39.6534 36.8599 39.1601 36.732 39.0034C36.517 38.7423 36.2032 38.5914 35.9882 38.3302C35.7732 38.0691 32.8211 31.6972 34.3088 33.531C34.4831 33.7457 34.6458 33.972 34.8202 34.1868C35.4826 35.005 35.3664 34.0243 35.8952 34.68C36.0579 34.8773 36.1567 35.1327 36.3136 35.3242C36.6565 35.7478 36.9819 35.4054 37.3422 35.8523C37.47 36.0148 37.563 36.2179 37.6967 36.3862L37.8129 36.5196Z" fill="#FFF8DC"/>
<path d="M59.3198 24.5998C59.3895 25.4993 59.5057 26.4046 59.5057 27.3041C59.5076 27.7118 59.4804 28.119 59.4244 28.5228C59.8137 28.3893 60.3658 27.6523 60.3658 30.0084C60.3658 31.9119 59.314 33.7573 58.3145 35.3648C58.9769 35.2313 61.0108 33.4788 58.512 35.9451C62.1498 35.0746 63.3236 32.2078 63.3236 28.5402C63.3236 21.5764 60.1566 20.5666 59.1164 20.0501C59.2035 20.8277 59.8835 21.4545 59.8835 22.2553C59.8833 22.3928 59.8637 22.5295 59.8253 22.6616C59.5475 23.2742 59.3765 23.9297 59.3198 24.5998Z" fill="#FFDD71"/>
<path d="M35.7557 28.4358C35.7557 28.2907 35.7092 28.2211 35.6802 28.5925C35.7039 28.5738 35.7231 28.55 35.7362 28.5229C35.7493 28.4957 35.756 28.4659 35.7557 28.4358Z" fill="#C12A1A"/>
<path d="M35.657 29.4687C35.7209 28.9639 35.818 28.4637 35.9475 27.9715C35.7441 27.7162 35.3664 28.2733 35.6337 28.5983C35.6337 28.5983 35.3548 28.0992 35.3432 28.0702C34.9511 27.1741 34.6305 26.2485 34.3843 25.302C34.4327 25.8034 34.4521 26.3072 34.4424 26.8109C34.4424 27.1068 34.396 27.3912 34.396 27.693C34.396 33.1422 36.2206 34.0127 37.3015 34.7961C36.1542 33.263 35.5731 31.3808 35.657 29.4687Z" fill="#C12A1A"/>
<path d="M27.8352 21.733C28.2246 21.7145 28.6108 21.8114 28.9451 22.0116C28.7681 21.8547 28.5508 21.7502 28.3175 21.7098C28.1548 21.7098 27.9921 21.733 27.8352 21.733Z" fill="#C12A1A"/>
<path d="M30.4328 22.325C29.9151 22.3673 29.3962 22.2585 28.9393 22.0116C30.1427 22.9734 30.9327 24.3581 31.1476 25.8824V25.5051C31.2405 25.9172 31.6705 29.0625 31.6705 29.1031C31.6705 29.5326 31.4846 29.9272 31.4846 30.3624C31.4846 30.7977 31.7112 31.5521 31.7112 30.1767C31.7112 28.9465 32.7863 24.0021 33.2628 23.2129C33.5127 22.9111 33.8439 22.708 34.0705 22.4062C34.4715 21.9536 34.4715 21.2978 34.8783 20.7987C33.6079 21.7875 32.0434 22.3246 30.4328 22.325Z" fill="#C12A1A"/>
<path d="M54.7871 17.6882C59.1571 18.9301 59.1571 25.1512 59.1571 21.3384C59.1571 20.6247 59.4825 20.2823 59.7033 20.2823C59.9242 20.2823 63.4457 24.1704 64.7997 25.4645C62.4752 18.5819 63.5212 20.938 63.928 21.0367C62.5508 17.8333 60.9934 17.3516 65.9445 20.8394C64.4336 19.5104 62.2254 18.077 62.2254 15.9589C62.2254 14.7518 62.4869 15.4308 62.9227 15.0013C62.6384 14.8326 62.3119 14.748 61.9813 14.7576L50.8298 16.0053C52.9495 16.4222 54.9622 17.2653 56.7455 18.4833L54.7871 17.6882Z" fill="#DD5228"/>
<path d="M76.3987 15.4946C75.9363 15.6322 75.5294 15.9126 75.2365 16.2954C75.7478 17.4097 76.2999 18.4833 76.2999 19.7077C76.2999 20.2416 76.0907 20.6885 76.6369 20.6885H76.695C77.6539 20.1082 77.9561 19.0288 78.6592 18.2685C79.7691 17.1079 82.6689 15.1116 82.6689 14.1599C82.6747 12.622 77.7875 14.8446 76.3987 15.4946Z" fill="#FFF8DC"/>
<path d="M80.0015 14.125C79.9027 13.742 78.6069 13.7362 77.096 14.125C75.5851 14.5139 74.4519 15.1232 74.5449 15.5062C74.6379 15.8892 75.9396 15.8892 77.4504 15.5062C78.9613 15.1232 80.0771 14.5081 80.0015 14.125Z" fill="#FFDD71"/>
<path d="M64.1082 22.3366C65.6016 23.0156 67.0951 23.7758 68.7571 23.7758C70.9711 23.7758 72.7551 22.3076 73.8999 20.4215C73.8999 21.1295 74.481 19.76 74.481 20.5492C74.481 20.7929 74.359 21.0367 74.4287 21.2804C74.6437 21.2804 75.6258 19.8238 75.6258 17.9842C75.6258 17.6592 75.6258 16.7133 75.312 16.5914C75.6839 17.7114 76.1255 17.9842 76.1255 19.8702C76.1255 22.1915 73.8011 26.7064 70.1924 26.7064C66.8045 26.7064 64.0675 24.0021 64.0675 22.5223C64.0966 22.4643 64.1024 22.4004 64.1082 22.3366Z" fill="#FFDD71"/>
<path d="M60.0287 14.3339C59.8021 14.3339 59.5755 14.3339 59.3547 14.3339C57.0302 14.3339 51.0854 12.3783 51.0854 10.9101C51.0854 10.1324 51.806 9.82485 52.5847 9.82485C53.4506 9.82485 54.328 10.2195 55.1881 10.3297C55.3392 10.3297 55.3392 9.87708 55.4438 9.67977C55.5484 9.48246 55.7576 9.48826 55.9435 9.48826C56.1295 9.48826 56.269 9.43023 56.269 9.22131C56.269 9.11105 56.0772 8.98919 56.0772 8.74545C56.0772 8.22896 56.7048 8.63519 56.8501 8.26959C56.8501 8.26959 56.5711 8.22316 56.5711 7.52678C56.5711 6.36613 57.6229 4.75284 59.0757 4.75284C60.0462 4.75284 60.4646 5.28093 60.4646 6.21525C60.4646 7.14957 60.1682 7.7473 60.1682 8.31601C60.1682 8.88473 60.7086 10.1034 61.4408 10.1034C61.5745 10.1034 61.7198 10.1034 61.8592 10.1034C62.481 10.1034 62.5798 10.7476 62.9866 10.9217C64.2127 11.4323 64.4278 11.9836 64.4278 12.535C64.4278 13.9451 62.5973 14.8969 61.0631 14.8969C60.8538 14.9193 60.6427 14.8774 60.4579 14.7768C60.273 14.6762 60.1233 14.5217 60.0287 14.3339Z" fill="#FFDD71"/>
<path d="M47.7324 13.1269C47.5103 13.2206 47.2702 13.2642 47.0293 13.2546C46.791 13.2546 46.547 13.2546 46.3261 13.2546C45.9542 13.2546 45.2569 12.5698 45.2569 11.2118C45.2569 9.62754 47.8022 8.82089 48.6273 8.82089C48.8955 8.82986 49.1592 8.89172 49.4033 9.00292C49.6475 9.11412 49.8671 9.27245 50.0497 9.4688C50.2323 9.66515 50.3741 9.89563 50.4671 10.147C50.5601 10.3983 50.6024 10.6655 50.5915 10.9333C50.5888 11.1297 50.5595 11.325 50.5043 11.5136C50.1498 12.6742 48.79 12.9296 47.7324 13.1269Z" fill="#FFD45C"/>
<path d="M64.7299 7.39911C64.7299 6.13981 63.8815 5.11264 62.8413 5.11264C61.8011 5.11264 60.9469 6.13981 60.9469 7.39911C60.9469 8.65841 61.7953 9.7204 62.8413 9.7204C63.8873 9.7204 64.7299 8.66421 64.7299 7.39911Z" fill="#FFED83"/>
<path d="M61.9697 3.77209C60.4123 3.19177 58.3029 5.01978 57.2569 7.83434C56.2109 10.6489 56.6293 13.4054 58.1866 13.9857C59.744 14.5661 61.8535 12.7381 62.8995 9.9235C63.9455 7.10894 63.527 4.35241 61.9697 3.77209Z" fill="#FFF8DC"/>
<path d="M83.5638 38.0865C79.8679 38.3419 76.9623 39.8275 77.0669 41.3711C77.1715 42.9148 80.263 43.9768 83.9589 43.7214C87.6548 43.4661 90.5603 41.9805 90.4499 40.431C90.3395 38.8816 87.2596 37.8254 83.5638 38.0865Z" fill="#FFF8DC"/>
<path d="M82.355 30.9892C80.3676 32.3878 79.618 34.7323 80.6756 36.2121C81.7332 37.6919 84.1971 37.7964 86.1845 36.3978C88.1719 34.9992 88.9274 32.6547 87.8698 31.1749C86.8121 29.6951 84.3424 29.5964 82.355 30.9892Z" fill="#FFF8DC"/>
<path d="M64.852 4.25375C65.2661 3.65066 65.5256 2.95515 65.6074 2.22843C65.6365 1.48561 65.1832 1.06778 64.3406 1.77578C63.0389 2.84357 62.3241 4.96174 63.0505 5.44341C63.5038 5.73937 64.3115 5.07201 64.852 4.25375Z" fill="#FFF8DC"/>
<path d="M64.8578 43.3326C68.1236 42.7117 71.4708 42.9728 74.7657 43.0947C76.2824 43.0947 77.0495 42.7407 79.002 42.8509C81.1289 42.9728 79.1822 43.1527 79.2054 42.7523C79.2287 42.3519 80.5187 41.6961 80.542 41.3653C80.5652 41.0345 79.8679 40.9649 79.5308 40.9475C79.7458 40.5123 80.3734 40.402 80.4025 39.8681C80.4025 39.5257 80.141 39.6766 80.1584 39.369C80.1584 39.1833 80.1875 38.9976 80.1991 38.7887C80.2384 37.2397 80.1899 35.6897 80.0538 34.1461C79.0834 37.8486 78.7696 36.5777 73.8301 40.5297C72.5575 41.5975 70.9943 41.9108 69.373 42.0211C67.8738 42.1604 66.2002 43.4139 65.3459 43.3674C65.1832 43.379 65.0379 43.3442 64.8578 43.3326Z" fill="#FFDD71"/>
<path d="M58.2622 14.6241C58.219 14.5721 58.168 14.5271 58.1111 14.4906C58.0995 14.6183 58.1634 14.6531 58.2622 14.6241Z" fill="#DD5228"/>
<path d="M62.9866 13.8523C61.8767 14.0496 61.5106 12.9876 61.4118 11.9256C60.9062 13.7246 61.6907 13.4925 60.5227 13.0863V13.1501C60.2786 13.1907 60.3542 12.5292 60.2205 12.3028C60.0288 12.3377 59.9184 12.3028 59.8661 12.1578C59.7498 12.4305 59.622 12.7381 59.4593 13.1095C59.248 13.7276 58.8398 14.2596 58.2971 14.6241C58.5876 14.9433 58.6457 15.5178 58.977 15.7499C59.6284 16.0288 60.3452 16.1193 61.0457 16.0111C61.5947 15.8689 62.1074 15.6124 62.55 15.2583C62.9927 14.9043 63.3554 14.4607 63.6142 13.9568C63.9396 13.1269 63.3643 13.7827 62.9866 13.8523Z" fill="#DD5228"/>
<path d="M59.8196 12.1868C61.098 9.06464 59.5232 11.5194 59.8196 12.1868V12.1868Z" fill="#DD5228"/>
<path d="M56.42 5.04301C56.4956 4.18413 56.9024 3.7721 55.6762 4.79347C55.1358 5.32156 55.0486 6.27329 54.514 6.22687C54.4268 6.33132 54.4268 6.62729 54.2351 6.60988C54.1421 6.53443 54.1188 6.40096 53.9852 6.38936C53.8762 6.46965 53.7479 6.51971 53.6133 6.53444C53.6133 6.53444 53.5784 6.53444 53.5668 6.53444C53.4936 6.45888 53.4408 6.366 53.4133 6.2645C53.3859 6.16299 53.3847 6.0562 53.4099 5.95411C53.4099 5.88448 53.4099 5.80903 53.4099 5.73939C53.4971 4.79347 52.5382 7.35269 52.4394 8.49592C52.4308 8.64281 52.4308 8.79008 52.4394 8.93697C52.8741 9.18567 53.3581 9.33622 53.8573 9.37801C56.1179 9.58113 56.821 5.61172 56.8559 5.2055C56.8849 4.52652 56.2515 6.74335 56.42 5.04301Z" fill="#DD5228"/>
<path d="M59.1571 41.5684C59.1571 40.6922 61.8302 40.0248 60.7726 40.0248C63.4515 38.69 66.1304 38.0749 64.666 38.0749C64.0849 38.0749 63.5038 38.4173 62.9227 38.4173C63.0098 38.0691 63.6142 37.8718 63.1726 37.8718C62.7309 37.8718 62.173 38.0981 61.6675 38.0981C60.6041 38.0981 61.6675 37.9472 61.6675 37.6803C61.67 37.6688 61.67 37.6569 61.6675 37.6455C61.6675 37.4598 61.3014 37.5178 61.3014 37.2683C61.3014 37.0187 63.4282 35.1791 64.0094 34.3666C64.4256 33.6137 64.7737 32.8252 65.0495 32.0105C64.3638 32.7766 63.3062 33.1712 62.3939 33.6587C62.5774 33.2514 62.6515 32.8033 62.6089 32.3587C62.6089 30.2464 62.4578 33.0029 61.7895 33.8328C58.3784 37.7209 53.5435 39.9261 52.0094 39.9261C51.8235 39.9261 51.6317 39.9261 51.4283 39.9261C51.2511 39.9468 51.0816 40.0105 50.9347 40.1116C50.7878 40.2128 50.668 40.3484 50.5857 40.5064C52.5789 41.9805 56.5363 43.0076 59.0002 43.0076C59.7498 43.0076 60.4994 42.967 61.2549 42.967C62.9459 42.967 62.9227 43.1469 63.8234 43.1469C63.9745 43.1469 64.2476 43.1469 64.573 43.1469C62.5333 42.9032 59.1571 42.4099 59.1571 41.5684Z" fill="#DD5228"/>
<path d="M65.0321 32.0338C65.2095 31.8361 65.3564 31.6131 65.4679 31.3722C65.4679 30.8731 65.2994 31.3374 65.0321 32.0338Z" fill="#DD5228"/>
<path d="M68.6931 42.7117H66.3687C65.8157 42.9457 65.2254 43.0793 64.6254 43.1063C65.3576 43.1759 65.9271 43.2107 66.1246 43.2107C67.0082 43.2483 67.8882 43.0773 68.6931 42.7117Z" fill="#DD5228"/>
<path d="M57.96 39.8449C56.1527 40.2453 57.3324 40.0306 56.2167 40.5993H55.961C54.5357 40.9231 53.1386 41.3597 51.7828 41.905C52.0501 41.9805 56.1644 42.5492 56.3038 42.5492C58.5179 42.5492 57.6869 41.4408 59.7905 38.986C59.7847 38.5392 58.361 39.752 57.96 39.8449Z" fill="#FFD45C"/>
<path d="M59.221 38.4347C58.7561 38.7539 54.8278 40.5413 57.5358 40.5413C58.5702 40.5413 59.2501 39.5489 59.4244 38.5334C59.4244 38.487 59.3198 38.4347 59.221 38.4347Z" fill="#FFF8DC"/>
<path d="M73.9289 39.4909C71.0234 42.4215 63.9803 42.8219 67.4495 42.8219C70.3551 42.8219 72.2379 40.5703 76.7473 40.5703C77.5376 40.5703 79.1938 40.9591 79.3972 40.9591C80.1119 40.9591 79.124 40.6051 78.7231 40.3788C79.6703 40.0828 84.5342 37.7557 87.4397 37.7557C88.1421 37.7349 88.8375 37.899 89.4562 38.2316C87.2596 38.0343 86.7308 36.9375 83.7497 37.3611C82.9419 37.3611 82.1981 37.2741 81.4253 37.2741C80.6524 37.2741 74.6727 39.1079 74.266 39.2239C74.192 39.2371 74.1225 39.2683 74.0637 39.3149C74.0049 39.3615 73.9586 39.422 73.9289 39.4909Z" fill="#C12A1A"/>
<path d="M92.7395 39.9261C92.2339 39.723 91.5773 39.8913 91.1589 39.5605C90.7405 39.2297 91.1182 38.8816 90.1536 38.5508C83.5057 36.479 88.0441 38.4231 88.0441 39.3748C88.0443 39.4483 88.0305 39.5212 88.0035 39.5895C88.0011 39.603 88.0011 39.6167 88.0035 39.6302C88.0035 39.7056 89.34 40.5355 89.34 41.0055C89.34 42.2474 85.342 41.6265 84.7492 43.2456C83.9131 43.7091 82.9683 43.9415 82.0122 43.9187C82.5933 43.9768 83.2035 44 83.8078 44C85.1153 44 90.5371 44 90.5371 42.8393C90.5371 41.9921 89.3226 43.0483 91.1996 41.6787C91.6854 41.4699 92.1918 41.3124 92.7105 41.2086C96.0867 39.6824 94.4189 40.6747 92.7395 39.9261Z" fill="#C12A1A"/>
<path d="M80.8151 43.9826C81.2044 43.9826 81.6054 43.942 81.9773 43.9188C81.3719 43.8644 80.7715 43.7635 80.1816 43.617C80.4431 43.7157 80.5826 43.9826 80.8151 43.9826Z" fill="#C12A1A"/>
<path d="M90.1477 39.1253C89.5629 38.7794 88.8981 38.5914 88.2185 38.5798C88.0557 38.5798 87.7129 38.6262 87.7129 38.7887C87.7129 39.0731 89.1308 40.5297 90.0373 40.5297C92.1003 40.5181 91.217 39.224 90.1477 39.1253Z" fill="#FFF8DC"/>
<path d="M61.8651 18.2801C61.8651 17.4155 60.2263 15.9589 58.4191 15.9589C58.1624 15.9579 57.9067 15.9891 57.6578 16.0517C58.0808 16.2438 58.4726 16.4981 58.8201 16.8061C59.5348 17.5954 61.8012 19.3363 62.6438 21.2862C63.1441 22.4434 63.7388 23.5575 64.422 24.6173C63.8699 23.149 61.7721 18.3904 61.7721 18.3904C61.7721 18.3904 61.8651 18.344 61.8651 18.2801Z" fill="#C12A1A"/>
<path d="M64.5266 24.8088C64.5266 24.8088 64.5266 24.7565 64.5266 24.7333L64.4336 24.6115L64.5207 24.8494C64.5244 24.8434 64.5268 24.8366 64.5278 24.8297C64.5288 24.8227 64.5284 24.8156 64.5266 24.8088Z" fill="#C12A1A"/>
<path d="M55.0545 6.52282C53.84 7.63124 53.3111 10.7127 54.5954 10.0048C57.5009 8.39146 57.6578 4.43947 56.8036 5.19969C56.7339 5.26352 56.5421 3.45872 56.4608 3.52836C56.2516 3.56318 55.3334 6.26748 55.0545 6.52282Z" fill="#FFF8DC"/>
<path d="M62.3125 3.19756C62.3125 2.3561 62.7019 1.79318 62.4055 1.79318C61.7547 1.79318 61.313 2.71009 60.7087 2.71009C60.5046 2.67831 60.2968 2.67831 60.0927 2.71009C59.6162 2.81455 59.3779 3.51094 59.3373 4.14929C58.8724 4.14929 59.8835 4.49749 60.1334 4.72961C60.563 5.19588 60.8634 5.76593 61.005 6.38353C61.2863 5.70248 61.7714 5.12484 62.3939 4.72961C62.491 4.628 62.5451 4.49288 62.545 4.3524C62.4117 3.98078 62.3334 3.59175 62.3125 3.19756Z" fill="#FFF8DC"/>
<path d="M64.5614 12.5234C64.7606 12.168 64.8703 11.7697 64.8811 11.3627C64.8811 10.8578 64.6777 10.5503 64.6777 9.9177C64.7107 9.51698 64.8109 9.12465 64.974 8.75706C64.974 8.17674 65.2007 7.9214 65.2007 7.43973C65.2007 6.05856 65.3808 4.6774 65.3808 4.45688C65.3808 3.44712 64.9101 7.81694 63.8932 7.81694H63.8525C63.3643 7.57321 63.7827 7.66025 63.2191 8.08969H63.161C63.0912 8.08969 63.0389 7.98523 62.9808 7.90399C62.9754 7.90657 62.9694 7.90791 62.9634 7.90791C62.9573 7.90791 62.9514 7.90657 62.9459 7.90399C62.7019 7.90399 62.6844 8.48431 62.6844 8.71644C62.6844 10.7708 63.806 10.4574 64.4278 12.1984C64.4494 12.254 64.4612 12.3129 64.4627 12.3725C64.4627 12.6104 64.2767 12.8309 64.2244 13.0747C64.3146 13.0099 64.3909 12.9278 64.4488 12.8331C64.5067 12.7384 64.545 12.6331 64.5614 12.5234Z" fill="#FFDD71"/>
<path d="M73.2258 13.2778H72.4704C71.6277 13.2778 69.6868 13.5563 69.6868 14.1483C69.6868 14.3804 70.5062 14.4268 70.7445 14.4268H71.4476C72.3716 14.4268 73.2955 15.0536 73.4757 15.0536C74.3415 15.0536 75.1144 14.4268 75.8466 13.9451C76.1324 13.9538 76.4183 13.9363 76.7009 13.8929C77.5783 13.4461 74.266 13.2778 73.2258 13.2778Z" fill="#FFF8DC"/>
<path d="M54.299 13.4635C54.0607 13.4635 56.0423 9.08205 56.0946 9.94092C56.0946 10.2137 56.0133 10.9913 56.0249 11.1016C56.0244 11.1205 56.0284 11.1393 56.0365 11.1564C56.0445 11.1735 56.0565 11.1885 56.0714 11.2002H56.1179C56.2167 11.2408 56.3096 11.2002 56.3736 11.2002C56.3831 11.1982 56.393 11.1982 56.4026 11.2002C56.4612 11.3033 56.495 11.4185 56.5014 11.5368C56.5014 11.6297 56.5014 11.7283 56.5014 11.827C56.5421 12.4073 56.6467 11.827 57.0825 12.9122C57.1051 12.9451 57.1326 12.9744 57.1639 12.9992C57.4428 12.9992 57.4021 12.6046 57.5009 12.4189C57.5474 12.6278 57.6229 12.9586 57.8147 12.9992C58.0065 13.0398 58.0995 12.6162 58.1343 12.8948C58.1343 13.034 58.1866 13.1791 58.2041 13.3184C58.214 13.3604 58.2387 13.3975 58.2738 13.4229C58.361 13.4229 58.4191 13.3242 58.4946 13.3416C58.576 13.3764 58.5643 13.5505 58.6399 13.6492C58.7154 13.7478 58.8375 13.7827 58.8607 13.9626C58.9886 14.8446 58.7794 14.9317 58.1808 14.7402C57.2394 14.5661 56.0481 14.1076 54.299 13.4635Z" fill="#DD5228"/>
<path d="M51.9339 12.8251H51.9687C51.9978 12.8251 52.0036 12.8251 52.0036 12.7787V12.7265L51.7537 12.651C51.7653 12.7671 51.8641 12.7671 51.9339 12.8251Z" fill="#DD5228"/>
<path d="M55.6704 11.6529C55.6097 11.7397 55.5373 11.8178 55.4554 11.885C55.4422 11.8894 55.4279 11.8894 55.4147 11.885C55.2171 11.885 55.1648 11.3859 55.1648 11.1886C55.1841 10.8324 55.2366 10.4788 55.3217 10.1324C54.3164 12.6974 54.5082 12.3841 53.7644 12.3841C53.4622 12.3841 53.6946 12.3841 53.5087 12.5466H53.4506C53.2646 12.5466 53.1426 12.297 52.9857 12.297H52.9334C52.8462 12.3551 52.9334 12.5175 52.9334 12.6684C52.9334 13.005 52.0268 11.589 51.5096 11.589H51.4515C51.6035 11.9807 51.7984 12.3544 52.0327 12.7032C52.8643 13.0562 53.7435 13.2849 54.6418 13.3822C55.6762 13.3822 55.6704 13.1095 55.6704 12.5466V12.3841C55.6181 12.0997 55.6239 11.8502 55.6704 11.6529Z" fill="#DD5228"/>
<path d="M55.6704 11.6529C56.0597 11.0726 55.7634 10.3994 55.6704 11.6529V11.6529Z" fill="#DD5228"/>
<path d="M15.3297 8.2754C15.1844 8.18255 14.7486 7.90399 14.7486 8.07809C14.7486 8.25219 14.7486 8.22317 14.6382 8.22317C14.5659 8.21342 14.4941 8.19986 14.4232 8.18255C14.4203 8.21731 14.4203 8.25225 14.4232 8.28701C14.4232 9.50568 15.8876 10.2775 16.1665 10.9391C16.1665 11.0435 15.6319 10.7766 15.504 10.7766C15.3762 10.7766 15.1496 10.8694 15.2426 11.0609C16.4455 13.4577 16.0735 14.334 18.7292 14.334C19.649 14.3863 20.5556 14.0969 21.2745 13.5215C21.345 13.2261 21.5005 12.9578 21.7219 12.7497C21.3849 11.4382 18.6711 11.0261 15.3297 8.2754Z" fill="#FFF8DC"/>
<path d="M31.6298 23.2767C32.0394 23.1838 32.41 22.9665 32.6909 22.6548C32.9719 22.3431 33.1493 21.9522 33.1989 21.5357C32.9944 21.8632 32.672 22.0999 32.2981 22.1973C30.9035 22.5803 28.8463 21.3442 27.7015 19.4408C26.5568 17.5373 26.7543 15.6861 28.149 15.3031C28.6709 15.186 29.2162 15.2306 29.7122 15.4308C29.1197 15.1215 28.443 15.0116 27.7829 15.1174C26.1384 15.4656 25.6618 17.5721 26.7253 19.818C27.7887 22.0638 29.9853 23.6249 31.6298 23.2767Z" fill="#C12A1A"/>
<path d="M26.6614 21.8375C26.7225 21.762 26.7553 21.6676 26.7543 21.5706C26.7543 20.1894 25.9815 20.8219 23.4943 20.8219C22.2972 20.8219 20.3621 20.6827 20.2692 20.6827C17.7878 20.6827 17.2474 23.6249 17.2474 25.8185C17.2474 26.8225 17.2997 28.3023 18.4619 28.3023H18.9268C19.8217 28.3023 19.8101 29.1205 20.211 29.1205C20.8445 29.1205 20.9607 27.7162 21.3384 27.0894C22.3437 25.5458 23.6164 24.5418 24.7611 23.2013L23.6396 24.0659C24.3834 22.9807 25.5863 22.5803 26.6614 21.8375Z" fill="#FFD37B"/>
<path d="M22.1926 13.771C21.7374 13.4076 21.2468 13.0907 20.7282 12.8251C21.0536 12.9992 21.6406 13.4228 22.1926 13.771Z" fill="#C12A1A"/>
<path d="M23.4769 12.3899C22.9655 12.0069 22.7912 12.1403 23.4769 12.3899V12.3899Z" fill="#C12A1A"/>
<path d="M24.1335 18.727H24.2207C23.9592 18.6399 23.7035 18.5587 23.4536 18.4659C23.6432 18.6288 23.8835 18.7211 24.1335 18.727Z" fill="#C12A1A"/>
<path d="M27.3006 11.2466C27.3645 11.1712 27.4226 11.0957 27.4807 11.0145C27.3994 11.0261 27.318 11.1596 27.3006 11.2466Z" fill="#C12A1A"/>
<path d="M26.9171 11.7051C27.1495 11.5368 27.2948 11.3627 27.2948 11.2757C27.2953 11.266 27.2953 11.2563 27.2948 11.2466C27.196 11.3975 27.0507 11.5542 26.9171 11.7051Z" fill="#C12A1A"/>
<path d="M23.6221 11.8676C23.8912 12.0763 24.118 12.3343 24.2904 12.6278C24.008 12.5686 23.7303 12.4891 23.4594 12.3899C23.8455 12.6962 24.1774 13.065 24.4415 13.4809C24.4415 14.0612 23.9243 13.4809 23.9243 13.9161C23.9243 14.1889 23.9243 14.0264 23.6454 14.0264C23.5715 14.0248 23.4987 14.045 23.4362 14.0844C23.4362 14.4964 22.8551 14.1947 22.1752 13.771C23.8662 15.1348 24.6623 16.8757 24.6623 18.077C24.6623 18.4368 24.5287 18.6573 24.2032 18.7212C24.6669 18.8657 25.1178 19.0482 25.5514 19.2667C25.1427 18.1262 24.9076 16.931 24.8541 15.7209C24.8541 13.9799 25.9582 12.8193 26.8996 11.7051C26.4999 11.9923 26.0206 12.1485 25.5282 12.1519C24.8797 12.1958 24.2294 12.0988 23.6221 11.8676Z" fill="#C12A1A"/>
<path d="M71.0001 35.8407C71.0001 35.8407 71.0408 35.8755 71.0931 35.8755C71.5289 35.8755 71.5173 35.6434 71.6103 35.2952C71.6103 35.1733 71.651 35.0631 71.6742 34.947C71.3973 35.2026 71.1706 35.5077 71.0059 35.8465C71.0059 35.8465 71.0001 35.8349 71.0001 35.8407Z" fill="#DD5228"/>
<path d="M66.2757 25.5342C66.4268 25.6328 66.5779 25.5864 66.729 25.685C67.2229 25.7315 67.7168 25.7547 68.1992 25.7547C68.8772 25.7554 69.5546 25.7128 70.2272 25.627C69.5883 25.4711 68.9324 25.395 68.2747 25.4007C67.6065 25.4095 66.9392 25.4541 66.2757 25.5342Z" fill="#DD5228"/>
<path d="M75.219 26.0564C75.219 25.8881 74.266 25.244 72.9294 25.244C72.022 25.3038 71.1194 25.422 70.2272 25.598C72.4878 26.1783 73.5279 27.7916 73.5279 29.9968C73.5279 31.8829 72.1681 32.2195 71.6742 34.9179C72.7493 33.8502 74.4984 32.9216 74.4984 30.403C74.4984 30.2057 74.4984 30.0142 74.4984 29.8227L75.0795 26.5149C75.0795 26.3466 75.219 26.1551 75.219 26.0564Z" fill="#DD5228"/>
<path d="M21.7858 31.9467C22.674 32.775 23.4851 33.6821 24.2091 34.6568C24.0048 34.0674 23.6855 33.5244 23.2695 33.0592C22.8535 32.5939 22.3492 32.2158 21.7858 31.9467Z" fill="#DD5228"/>
<path d="M31.4904 41.6613C31.3465 41.6577 31.2029 41.6461 31.0604 41.6265C31.3053 41.7395 31.5628 41.8232 31.8274 41.876C31.9088 41.876 32.0018 41.876 32.0657 41.876C32.1296 41.876 32.2168 41.7716 32.2168 41.6729L31.4904 41.6613Z" fill="#DD5228"/>
<path d="M27.2309 38.7365C27.0798 38.4927 25.6386 36.4674 24.2091 34.6742C24.266 34.9118 24.2934 35.1554 24.2905 35.3996C24.46 35.7782 24.53 36.1936 24.4938 36.6067C24.5578 37.0129 25.1621 36.9491 25.1621 37.6281C25.1621 38.0169 24.889 38.3593 24.889 38.7481C24.889 40.3904 29.4275 41.4176 31.043 41.6091C29.777 41.1094 28.5753 40.4606 27.4633 39.6766C27.196 39.4619 27.382 39.0382 27.2309 38.7365Z" fill="#DD5228"/>
<path d="M10.2275 36.6473C10.2275 39.6998 10.6982 39.99 11.0585 40.4948C10.9555 40.3196 10.9089 40.1171 10.9249 39.9145C10.9249 38.9976 10.4832 39.2762 10.4832 37.866C10.4832 34.4363 12.7263 34.1229 14.6324 31.7668C14.9796 31.4002 15.2837 30.9952 15.5389 30.5597C15.547 30.5392 15.547 30.5164 15.5389 30.4959C15.5738 30.0316 10.2275 32.1962 10.2275 36.6473Z" fill="#DD5228"/>
<path d="M25.011 42.3113C24.0593 42.9215 22.9572 43.2569 21.8265 43.2804C20.2982 43.2804 19.537 42.6014 18.3108 42.3113C17.3802 42.0801 16.4277 41.9479 15.4692 41.9167C12.0348 41.9167 11.4014 40.2337 15.9457 43.1121C16.5996 43.4667 17.3425 43.6239 18.0842 43.5648C18.8629 43.5648 22.5413 43.0715 22.9481 42.9845C23.7093 42.8626 24.2556 42.3635 25.011 42.3113Z" fill="#DD5228"/>
<path d="M16.6605 27.1707C16.6605 25.6618 17.6832 25.3427 16.6256 25.3427C15.4053 25.3427 11.9767 25.6734 10.2334 26.4627C9.52443 26.8167 9.91378 27.9541 7.27554 27.9541H6.85713C6.27602 27.9541 4.15497 28.0412 4.15497 28.6273C4.16659 29.3933 5.69491 29.7183 6.27602 30.1767C6.27602 30.2754 5.85181 30.4205 5.80532 30.6526C5.80532 31.9583 9.29199 34.2854 10.4542 34.2854C10.5742 34.2911 10.6942 34.2754 10.8087 34.239C11.1527 34.1127 11.4678 33.9187 11.7354 33.6685C12.0029 33.4183 12.2174 33.1169 12.3661 32.7824C12.8716 31.8771 13.9293 31.6217 14.9346 31.4244C24.3195 29.7357 16.6605 31.436 16.6605 27.1707Z" fill="#FFF8DC"/>
<path d="M10.8087 34.1578C10.8087 34.239 10.6285 34.2564 10.6285 34.3144C10.6243 34.3296 10.6243 34.3457 10.6285 34.3609C12.3719 35.5215 7.22904 33.0493 8.34478 33.0435C8.71088 33.0435 9.07116 33.148 9.42564 33.148C11.0237 33.148 9.42564 32.4458 9.06535 32.0454C9.28036 31.8829 9.77431 31.9293 9.77431 31.6334C9.77431 31.3374 9.39658 31.4767 9.39658 31.1343C9.39658 30.7919 9.58835 30.8905 9.9777 30.8905C9.19047 30.8538 8.41914 30.6563 7.71136 30.3102C9.77431 30.3973 11.7791 30.7919 13.8479 30.7919C16.4164 30.7919 16.7534 29.8924 19.3801 29.8924C21.5709 29.8924 13.5283 32.2137 11.3898 34.0359C11.2625 34.1193 11.1118 34.16 10.9598 34.152C10.9097 34.1586 10.8591 34.1605 10.8087 34.1578Z" fill="#FFDD71"/>
<path d="M92.3385 30.3218C90.57 30.5177 88.8207 30.8594 87.1085 31.3432C87.4616 31.8976 87.6768 32.5284 87.7361 33.1828C87.7386 33.4134 87.6951 33.6422 87.6083 33.856C87.6083 33.856 86.3879 35.1501 87.864 34.5582C89.0333 33.6636 90.3005 32.9043 91.6412 32.2949C92.2223 32.1092 92.571 31.9641 92.571 31.5115C92.571 31.2445 92.4431 30.9776 92.4431 30.7222C92.4664 30.3334 92.9429 30.3218 92.3385 30.3218Z" fill="#FFDD71"/>
<path d="M81.2393 32.4458C79.2287 28.5982 78.3338 29.991 79.6994 29.991H79.7807C79.7807 29.991 79.6645 29.8343 79.6645 29.8053C79.6645 29.7763 79.6645 29.8053 79.6645 29.8053C81.1115 30.0258 82.5294 30.4379 83.9705 30.4379C84.1797 30.4379 84.3889 30.4379 84.5981 30.4379C83.3488 30.757 81.9425 31.2909 81.2393 32.4458Z" fill="#FFDD71"/>
<path d="M91.2112 31.7436C92.2543 31.2994 93.3778 31.0742 94.5119 31.082C94.7327 31.082 95 31.0472 95 31.2503C95.0031 31.2567 95.0047 31.2636 95.0047 31.2706C95.0047 31.2777 95.0031 31.2846 95 31.291C93.6983 31.9235 88.538 35.0863 88.5322 35.0863C88.5264 35.0863 88.3347 35.0863 88.3347 34.918C88.6497 34.2733 89.0211 33.6577 89.4446 33.0783C89.8513 32.3994 90.5371 32.144 91.2112 31.7436Z" fill="#FFF8DC"/>
<path d="M85.1676 32.3471C84.1681 29.1089 83.7323 31.2619 82.5933 29.2772C82.5495 29.2124 82.4908 29.1591 82.422 29.1217C82.3532 29.0843 82.2764 29.064 82.1982 29.0625C82.1363 29.061 82.0758 29.0811 82.027 29.1192C81.9783 29.1573 81.9443 29.2111 81.9309 29.2714C81.9286 29.2907 81.9286 29.3102 81.9309 29.3295C81.9773 29.9852 81.8263 31.0414 82.634 31.1923C83.4299 31.3122 84.1588 31.7061 84.6947 32.3059C85.2305 32.9057 85.5397 33.6736 85.5686 34.4769C85.5686 34.8773 84.9236 36.7576 85.8069 34.1055C85.886 33.9092 85.9331 33.7015 85.9463 33.4904C85.958 33.1828 85.371 32.823 85.1676 32.3471Z" fill="#C12A1A"/>
<path d="M24.1045 21.6112C23.9592 21.6112 23.7151 21.7156 23.5234 21.7156C23.3316 21.7156 21.5011 23.3812 20.6992 23.7294C20.3679 23.9267 20.2343 24.4664 20.1181 24.89C20.1239 23.4798 23.1282 21.8839 23.1282 20.8916C22.4854 20.5028 21.7617 20.2665 21.013 20.201C20.5697 20.1918 20.1396 20.3516 19.8101 20.6479C19.7652 20.673 19.7267 20.708 19.6975 20.7502C19.6683 20.7925 19.6492 20.8408 19.6416 20.8916C17.8459 21.6112 17.1021 26.8631 18.7699 26.8631C19.2348 26.8631 19.136 27.4086 19.8449 27.4086C20.5539 27.4086 20.182 26.4046 20.583 25.923C20.9839 25.4413 24.2207 21.704 24.2207 21.704C24.2207 21.704 24.18 21.6112 24.1045 21.6112Z" fill="#FFF8DC"/>
<path d="M36.0753 14.3804C36.4879 16.1214 34.9712 16.5566 34.8027 17.0092C34.8957 17.3981 37.4468 15.3727 37.0749 13.8175C36.8715 12.9528 35.9533 11.7109 34.9247 11.9488C34.733 11.9953 34.5354 12.0649 34.3436 12.1113C33.6056 12.2854 32.8386 12.3318 32.0831 12.5117C31.8865 12.5525 31.6925 12.6048 31.502 12.6684C31.2817 12.7847 31.07 12.9166 30.8686 13.0631C33.9136 12.3609 35.471 11.8038 36.0753 14.3804Z" fill="#DD5228"/>
<path d="M16.7708 15.7615C16.7736 15.804 16.7736 15.8467 16.7708 15.8892C16.736 16.307 17.7587 16.5218 16.7708 15.7615Z" fill="#C12A1A"/>
<path d="M14.9345 7.03931C14.9318 7.0605 14.9318 7.08195 14.9345 7.10314C14.9345 7.35848 15.3123 7.68346 15.8527 8.05487C15.6052 7.66781 15.2949 7.3246 14.9345 7.03931Z" fill="#C12A1A"/>
<path d="M20.6294 12.0126C19.7171 11.7167 18.212 11.3685 18.2352 10.2717C18.2352 9.85385 18.5142 9.77841 19.0604 9.69136C17.9491 9.21751 16.8733 8.6648 15.8411 8.03745C16.2881 8.6525 16.6117 9.34813 16.7941 10.086C16.7941 10.3007 16.7185 10.5328 16.7127 10.7301C16.7127 11.2408 17.875 11.1015 17.875 11.4788C17.875 11.4788 16.3408 12.8309 16.3176 13.9335C16.3292 14.3969 16.4075 14.8562 16.55 15.2973C16.55 15.3669 16.55 15.4366 16.55 15.4888C16.5439 15.4994 16.5407 15.5114 16.5407 15.5236C16.5407 15.5358 16.5439 15.5478 16.55 15.5584C16.6488 15.6281 16.7302 15.6861 16.7999 15.7441C16.8929 12.1867 18.6595 13.2487 20.6294 12.0126Z" fill="#C12A1A"/>
<path d="M43.5019 31.8423C42.7988 30.7339 42.9964 29.4281 42.4966 28.3197C42.1386 27.856 41.8598 27.3364 41.6714 26.7819C41.5559 27.2592 41.4916 27.7475 41.4797 28.2385C41.4797 30.8847 45.4835 33.8212 43.5019 31.8423Z" fill="#DD5228"/>
<path d="M41.9911 23.7932C41.6911 24.4093 41.5399 25.0871 41.5494 25.7721C41.5434 26.1127 41.5844 26.4525 41.6714 26.7818C41.8504 26.1004 41.9575 25.4022 41.9911 24.6985V23.7932Z" fill="#DD5228"/>
</g>
<defs>
<clipPath id="clip0_4_220">
<rect width="95" height="44" fill="white"/>
</clipPath>
</defs>
</svg>
