<svg width="120" height="120" viewBox="0 0 120 120" fill="none" xmlns="http://www.w3.org/2000/svg">
<path d="M13.3333 36.6667V37.1234C13.3333 36.9834 13.37 36.8434 13.3833 36.7034L13.3333 36.6667ZM56.6666 73.79C56.1765 73.5749 55.7152 73.2995 55.2933 72.97L15.2166 40.8167C13.96 39.8 13.3333 38.4634 13.3333 37.1234V77.9167C13.3333 84.7234 16.9766 86.1967 16.9766 86.1967L55.5566 116.527C56.24 117.063 56.8133 117.39 57.3166 117.587C56.9058 116.995 56.6796 116.294 56.6666 115.573V73.79ZM27.4233 75C24.11 75 20.6466 71.6433 19.6933 67.5C18.7366 63.36 20.65 60.0033 23.96 60.0033C27.2733 60.0033 30.7366 63.36 31.69 67.5C32.6466 71.6433 30.7366 75 27.4233 75ZM46.0333 100C42.72 100 39.2566 96.64 38.3033 92.5C37.3466 88.3567 39.26 85 42.5733 85C45.8867 85 49.35 88.3567 50.3033 92.5C51.2566 96.64 49.3466 100 46.0333 100Z" fill="#EFF9FF"/>
<path d="M104.783 40.5367L64.4367 72.97C64.0946 73.2435 63.7248 73.4803 63.3334 73.6767V115.573C63.3334 116.35 63.0567 117.03 62.6667 117.62C63.1834 117.427 63.7834 117.087 64.4934 116.527C70.5634 111.753 103.12 86.1967 103.12 86.1967C103.12 86.1967 106.667 84.7234 106.667 77.9167V36.8434C106.667 38.1834 106.04 39.52 104.783 40.5367ZM79.9267 96.3067C79.12 100.097 76.1967 103.167 73.4 103.167C70.6067 103.167 68.9934 100.097 69.8 96.3067C70.6067 92.5167 73.5267 89.4467 76.3234 89.4467C79.12 89.4467 80.73 92.5167 79.9267 96.3067ZM91.72 78.7367C90.8734 82.6434 87.7934 85.8067 84.8467 85.8067C81.9034 85.8067 80.2067 82.6434 81.0534 78.7367C81.9034 74.83 84.9834 71.6667 87.9234 71.6667C90.8734 71.6667 92.57 74.83 91.72 78.7367ZM101.93 61.72C101.093 65.4367 98.0534 68.4434 95.1467 68.4434C92.24 68.4434 90.5634 65.4367 91.4033 61.72C92.24 58.01 95.2767 55 98.1833 55C101.093 55 102.77 58.01 101.93 61.72ZM106.647 36.6834C106.65 36.7367 106.667 36.79 106.667 36.8434V36.6667L106.647 36.6834Z" fill="#EFF9FF"/>
<path d="M104.783 33.15L64.2966 1.66666C61.7866 -0.366671 57.67 -0.366671 55.1566 1.66666L15.2166 33.43C14.7059 33.8246 14.2801 34.3182 13.9645 34.8812C13.6489 35.4442 13.4501 36.0651 13.38 36.7067C13.37 36.8467 13.3333 36.9833 13.3333 37.1233C13.3333 38.4633 13.96 39.8 15.2166 40.8167L55.2933 72.97C55.71 73.3067 56.1766 73.5633 56.6666 73.79V115.573C56.6666 116.337 56.9366 117.007 57.3133 117.587C57.9166 118.52 58.8666 119.167 60 119.167C61.12 119.167 62.0633 118.533 62.6666 117.62C63.0886 117.02 63.3209 116.307 63.3333 115.573V73.6767C63.7248 73.4803 64.0946 73.2435 64.4366 72.97L104.783 40.5367C106.04 39.52 106.667 38.1833 106.667 36.8433C106.667 36.79 106.65 36.7367 106.647 36.68C106.6 35.3967 105.987 34.1233 104.783 33.15ZM61.6666 28.89C67.0333 28.89 71.3866 32.37 71.3866 36.6667C71.3866 40.9633 67.0333 44.4433 61.6666 44.4433C56.2966 44.4433 51.9466 40.9633 51.9466 36.6667C51.9466 32.37 56.2966 28.89 61.6666 28.89Z" fill="white"/>
<path d="M61.6667 44.4433C67.0349 44.4433 71.3867 40.9616 71.3867 36.6667C71.3867 32.3717 67.0349 28.89 61.6667 28.89C56.2985 28.89 51.9467 32.3717 51.9467 36.6667C51.9467 40.9616 56.2985 44.4433 61.6667 44.4433Z" fill="#01D5FF"/>
<path d="M98.1833 55C95.2767 55 92.24 58.01 91.4033 61.72C90.5633 65.4367 92.24 68.4433 95.1467 68.4433C98.0533 68.4433 101.093 65.4367 101.93 61.72C102.77 58.01 101.093 55 98.1833 55ZM87.9267 71.6667C84.9833 71.6667 81.9033 74.83 81.0567 78.7367C80.21 82.6433 81.9067 85.8067 84.85 85.8067C87.7967 85.8067 90.8767 82.6433 91.7233 78.7367C92.57 74.83 90.8733 71.6667 87.9267 71.6667ZM76.32 89.4467C73.5233 89.4467 70.6033 92.5167 69.7967 96.3067C68.99 100.097 70.6033 103.167 73.3967 103.167C76.1933 103.167 79.1167 100.097 79.9233 96.3067C80.73 92.5167 79.1167 89.4467 76.32 89.4467Z" fill="#01D2FF"/>
<path d="M23.96 60.0034C20.6466 60.0034 18.7366 63.36 19.6933 67.5C20.65 71.6434 24.11 75 27.4233 75C30.7366 75 32.6466 71.6434 31.69 67.5C30.7366 63.36 27.2733 60.0034 23.96 60.0034ZM42.57 85C39.2566 85 37.3466 88.3567 38.3 92.5C39.2566 96.64 42.72 100 46.0333 100C49.3466 100 51.2566 96.64 50.3033 92.5C49.3466 88.3567 45.8833 85 42.57 85Z" fill="#01D7FF"/>
</svg>
