<svg width="41" height="44" viewBox="0 0 41 44" fill="none" xmlns="http://www.w3.org/2000/svg">
<g clip-path="url(#clip0_1_3)">
<path d="M26.4943 21.4555H0.00330874V25.2765C-0.00120337 25.3138 -0.00120337 25.3516 0.00330874 25.3889C0.00330874 29.7113 5.92404 33.2644 13.2488 33.2644C20.5737 33.2644 26.4943 29.7372 26.4943 25.3889C26.4943 25.3457 26.4943 25.3111 26.4943 25.2765V21.4555Z" fill="url(#paint0_linear_1_3)"/>
<g style="mix-blend-mode:multiply">
<path style="mix-blend-mode:multiply" d="M0.00353174 24.775V24.8786C-0.00107679 24.8442 -0.00107679 24.8093 0.00353174 24.775Z" fill="url(#paint1_linear_1_3)"/>
<path style="mix-blend-mode:multiply" d="M13.2488 32.4259C5.92404 32.4259 0.00330874 28.8987 0.00330874 24.5417V25.2765C-0.00120337 25.3138 -0.00120337 25.3516 0.00330874 25.3888C0.00330874 29.7113 5.92404 33.2644 13.2488 33.2644C20.5737 33.2644 26.4943 29.7372 26.4943 25.3888C26.4943 25.3457 26.4943 25.3111 26.4943 25.2765V24.5417C26.4943 28.8987 20.5651 32.4259 13.2488 32.4259Z" fill="url(#paint2_linear_1_3)"/>
</g>
<g style="mix-blend-mode:multiply">
<g style="mix-blend-mode:multiply">
<g style="mix-blend-mode:multiply">
<path d="M17.3089 32.8502L17.6726 32.7724V22.7963H17.3089V32.8502Z" fill="#FDD65B"/>
</g>
</g>
<g style="mix-blend-mode:multiply">
<g style="mix-blend-mode:multiply">
<path d="M18.9666 32.4871L19.3387 32.3834V22.7963H18.9666V32.4871Z" fill="#FDD65B"/>
</g>
</g>
<g style="mix-blend-mode:multiply">
<g style="mix-blend-mode:multiply">
<path d="M20.633 31.9339L21.0051 31.7697V22.7963H20.633V31.9339Z" fill="#FDD65B"/>
</g>
</g>
<g style="mix-blend-mode:multiply">
<g style="mix-blend-mode:multiply">
<path d="M15.6427 33.1356H16.0148V22.7963H15.6427V33.1356Z" fill="#FDD65B"/>
</g>
</g>
<g style="mix-blend-mode:multiply">
<g style="mix-blend-mode:multiply">
<path d="M23.9569 30.005L24.329 29.6938V22.778H23.9569V30.005Z" fill="#FDD65B"/>
</g>
</g>
<g style="mix-blend-mode:multiply">
<g style="mix-blend-mode:multiply">
<path d="M25.6232 28.1733C25.7636 27.9583 25.8879 27.733 25.9953 27.499V22.7963H25.6232V28.1733Z" fill="#FDD65B"/>
</g>
</g>
<g style="mix-blend-mode:multiply">
<g style="mix-blend-mode:multiply">
<path d="M22.2991 31.1204L22.6713 30.913V22.7868H22.2991V31.1204Z" fill="#FDD65B"/>
</g>
</g>
<g style="mix-blend-mode:multiply">
<g style="mix-blend-mode:multiply">
<path d="M13.9763 33.2478H14.3822V22.7963H14.0101L13.9763 33.2478Z" fill="#FDD65B"/>
</g>
</g>
<g style="mix-blend-mode:multiply">
<g style="mix-blend-mode:multiply">
<path d="M12.3101 33.2393H12.6823V22.7963H12.3101V33.2393Z" fill="#FDD65B"/>
</g>
</g>
<g style="mix-blend-mode:multiply">
<g style="mix-blend-mode:multiply">
<path d="M8.98597 32.8502C9.11285 32.8502 9.23127 32.9107 9.35815 32.9279V22.7963H8.98597V32.8502Z" fill="#FDD65B"/>
</g>
</g>
<g style="mix-blend-mode:multiply">
<g style="mix-blend-mode:multiply">
<path d="M10.6522 33.1174H11.0243V22.7435H10.6522V33.1174Z" fill="#FDD65B"/>
</g>
</g>
<g style="mix-blend-mode:multiply">
<g style="mix-blend-mode:multiply">
<path d="M7.31986 32.4267L7.69201 32.5391V22.7963H7.31986V32.4267Z" fill="#FDD65B"/>
</g>
</g>
<g style="mix-blend-mode:multiply">
<g style="mix-blend-mode:multiply">
<path d="M0.663147 27.8362C0.781559 28.0437 0.899972 28.2511 1.0353 28.4412V22.7963H0.663147V27.8362Z" fill="#FDD65B"/>
</g>
</g>
<g style="mix-blend-mode:multiply">
<g style="mix-blend-mode:multiply">
<path d="M2.32933 29.8419L2.70151 30.1444V22.7963H2.32933V29.8419Z" fill="#FDD65B"/>
</g>
</g>
<g style="mix-blend-mode:multiply">
<g style="mix-blend-mode:multiply">
<path d="M5.66185 31.8388L6.02554 31.9944V22.7963H5.66185V31.8388Z" fill="#FDD65B"/>
</g>
</g>
<g style="mix-blend-mode:multiply">
<g style="mix-blend-mode:multiply">
<path d="M3.99574 31.0175L4.36791 31.225V22.7963H3.99574V31.0175Z" fill="#FDD65B"/>
</g>
</g>
</g>
<path d="M13.2494 29.4001C20.5647 29.4001 26.4949 25.8702 26.4949 21.516C26.4949 17.1617 20.5647 13.6318 13.2494 13.6318C5.93407 13.6318 0.00384521 17.1617 0.00384521 21.516C0.00384521 25.8702 5.93407 29.4001 13.2494 29.4001Z" fill="url(#paint3_linear_1_3)"/>
<path style="mix-blend-mode:screen" d="M13.2489 29.184C6.08478 29.184 0.274015 25.8039 0.00335295 21.6111C-0.0012181 21.7033 -0.0012181 21.7956 0.00335295 21.8877C0.00335295 26.2102 5.92408 29.7633 13.2489 29.7633C20.5737 29.7633 26.4943 26.2361 26.4943 21.8877C26.4989 21.7956 26.4989 21.7033 26.4943 21.6111C26.2237 25.8039 20.4045 29.184 13.2489 29.184Z" fill="url(#paint4_radial_1_3)"/>
<path d="M23.145 21.5159C23.145 24.7664 18.7129 27.4031 13.2489 27.4031C7.78495 27.4031 3.38668 24.7664 3.38668 21.5159C3.38668 18.2655 7.81878 15.6201 13.2912 15.6201C18.7636 15.6201 23.145 18.2568 23.145 21.5159Z" fill="url(#paint5_linear_1_3)"/>
<path style="mix-blend-mode:screen" d="M13.5786 15.914C18.8651 15.914 23.1702 18.3864 23.4493 21.49C23.4493 21.3863 23.4493 21.2824 23.4493 21.1701C23.4493 17.9197 19.0172 15.283 13.5533 15.283C8.08929 15.283 3.67411 17.9197 3.67411 21.1701C3.66536 21.2765 3.66536 21.3835 3.67411 21.49C3.9786 18.3864 8.29228 15.914 13.5786 15.914Z" fill="url(#paint6_radial_1_3)"/>
<path style="mix-blend-mode:multiply" d="M13.2488 16.2512C18.5351 16.2512 22.8404 18.7237 23.1194 21.8272C23.1194 21.7235 23.1194 21.6197 23.1194 21.5073C23.1194 18.2569 18.6873 15.6201 13.2233 15.6201C7.75936 15.6201 3.38648 18.2569 3.38648 21.5073C3.37772 21.6137 3.37772 21.7208 3.38648 21.8272C3.64867 18.7237 7.96236 16.2512 13.2488 16.2512Z" fill="url(#paint7_linear_1_3)"/>
<path style="mix-blend-mode:color-dodge" d="M20.2017 13.9172C23.1789 14.9545 25.1835 17.0121 24.6844 18.5248C24.1854 20.0377 21.3604 20.4095 18.3831 19.3894C15.4059 18.3693 13.4012 16.2945 13.9088 14.7903C14.4162 13.2861 17.2243 12.8798 20.2017 13.9172Z" fill="url(#paint8_radial_1_3)"/>
<g style="mix-blend-mode:multiply">
<path style="mix-blend-mode:multiply" d="M14.0102 19.6572L13.2489 19.8388C13.0205 19.8993 12.7752 19.9684 12.5131 20.0548C12.2509 20.1413 12.0056 20.245 11.7687 20.3488L12.5638 20.8156L12.826 20.7206L13.122 20.6167C13.5704 20.4525 13.9679 20.3142 14.3908 20.2105C14.7617 20.103 15.1408 20.0277 15.5242 19.9856C15.8555 19.9421 16.1909 19.9421 16.5223 19.9856C16.8467 20.0464 17.1584 20.1633 17.4442 20.3314C17.7276 20.4721 17.959 20.7026 18.1039 20.9885C18.15 21.1007 18.1737 21.2212 18.1737 21.343C18.1737 21.4646 18.15 21.5851 18.1039 21.6974C17.9926 21.9719 17.8221 22.2173 17.6049 22.4149C17.3472 22.6673 17.0637 22.8905 16.7591 23.0805L17.8333 23.7116L16.9875 24.239L15.8963 23.5992C15.3259 23.8872 14.7383 24.1385 14.137 24.3514C13.5409 24.5704 12.9303 24.7467 12.31 24.8787L11.7349 23.435C12.0309 23.3745 12.3439 23.3054 12.6653 23.2189L13.5618 22.9596C13.8812 22.8528 14.1944 22.7287 14.5007 22.5878L13.7226 22.1296C13.4434 22.2333 13.1559 22.3371 12.8768 22.4322C12.4825 22.5707 12.0816 22.689 11.6757 22.7866C11.3486 22.8693 11.0143 22.9185 10.6776 22.9336C10.3943 22.951 10.11 22.9307 9.83181 22.8731C9.57594 22.8141 9.33055 22.7149 9.10441 22.5791C8.83792 22.4404 8.61513 22.2276 8.46158 21.9654C8.34771 21.7515 8.31461 21.5023 8.36855 21.2651C8.4412 20.9973 8.57122 20.7492 8.74916 20.539C8.98041 20.2715 9.24485 20.0362 9.53578 19.8388L8.63921 19.3114L9.52732 18.7928L10.4323 19.32C10.703 19.1904 10.9737 19.0694 11.2782 18.9655C11.5827 18.8618 11.8279 18.7582 12.1239 18.6717L12.9107 18.4296L13.6126 18.2481L14.0102 19.6572ZM10.999 21.1095C11.0991 21.1673 11.2154 21.1886 11.3289 21.1701C11.4929 21.1537 11.6546 21.1189 11.811 21.0662L11.1428 20.6686C10.8975 20.8674 10.8553 21.0144 10.999 21.1095ZM15.2281 21.8357C15.1171 21.7838 14.9937 21.7658 14.8729 21.7838C14.6977 21.8082 14.525 21.8487 14.357 21.9049L15.0083 22.2852C15.1774 22.1728 15.2705 22.0863 15.2958 22.0086C15.3212 21.9308 15.355 21.8789 15.2789 21.8357H15.2281Z" fill="url(#paint9_linear_1_3)"/>
</g>
<path d="M14.0102 19.3202L13.2489 19.5018C13.0205 19.5622 12.7752 19.6314 12.5131 19.7178C12.2508 19.8043 12.0055 19.908 11.7687 20.0118L12.5638 20.4786L12.826 20.3834L13.122 20.2797C13.5703 20.1155 13.9679 19.9772 14.3908 19.8734C14.7617 19.7659 15.1408 19.6907 15.5242 19.6486C15.8554 19.6051 16.1909 19.6051 16.5223 19.6486C16.8465 19.7094 17.1584 19.8263 17.4442 19.9944C17.7276 20.1351 17.959 20.3656 18.1039 20.6515C18.15 20.7637 18.1737 20.8842 18.1737 21.006C18.1737 21.1276 18.15 21.2481 18.1039 21.3603C17.9904 21.6336 17.8202 21.8785 17.6049 22.0779C17.3472 22.3302 17.0636 22.5534 16.7591 22.7435L17.8332 23.3746L16.9874 23.902L15.8963 23.2622C15.3258 23.5502 14.7383 23.8015 14.137 24.0144C13.5409 24.2334 12.9303 24.4097 12.31 24.5417L11.7349 23.098C12.0309 23.0374 12.3439 22.9682 12.6653 22.8818L13.5365 22.6485C13.8557 22.5417 14.1691 22.4176 14.4753 22.2767L13.6971 21.8185C13.4181 21.9222 13.1305 22.026 12.8513 22.1211C12.457 22.2596 12.0562 22.3779 11.6503 22.4756C11.3232 22.5583 10.9889 22.6074 10.6522 22.6225C10.3689 22.6399 10.0846 22.6196 9.80641 22.562C9.55054 22.503 9.30515 22.4038 9.07901 22.268C8.81253 22.1293 8.58973 21.9165 8.4362 21.6543C8.32232 21.4404 8.28921 21.1912 8.34315 20.954C8.41582 20.6862 8.54582 20.4381 8.72377 20.2279C8.95501 19.9604 9.21946 19.7251 9.51038 19.5277L8.59689 19.0176L9.48501 18.4989L10.39 19.0262C10.6607 18.8966 10.9314 18.7755 11.2359 18.6718C11.5403 18.568 11.7856 18.4643 12.0816 18.3778L12.8683 18.1358L13.5703 17.9543L14.0102 19.3202ZM10.999 20.7466C11.0991 20.8043 11.2154 20.8257 11.3289 20.8071C11.5026 20.8074 11.6757 20.7871 11.8448 20.7466L11.1766 20.3489C10.8975 20.5304 10.8552 20.6774 10.999 20.7466ZM15.2281 21.4727C15.1171 21.4209 14.9937 21.4028 14.8729 21.4209C14.7042 21.4691 14.5399 21.5328 14.3823 21.611L15.0336 21.9914C15.2028 21.8791 15.2958 21.7926 15.3212 21.7148C15.3465 21.6369 15.355 21.5419 15.2789 21.4986L15.2281 21.4727Z" fill="url(#paint10_linear_1_3)"/>
<path style="mix-blend-mode:color-dodge" d="M14.0102 19.3202L13.2489 19.5018C13.0205 19.5622 12.7752 19.6314 12.5131 19.7178C12.2508 19.8043 12.0055 19.908 11.7687 20.0118L12.5638 20.4786L12.826 20.3834L13.122 20.2797C13.5703 20.1155 13.9679 19.9772 14.3908 19.8734C14.7617 19.7659 15.1408 19.6907 15.5242 19.6486C15.8554 19.6051 16.1909 19.6051 16.5223 19.6486C16.8465 19.7094 17.1584 19.8263 17.4442 19.9944C17.7276 20.1351 17.959 20.3656 18.1039 20.6515C18.15 20.7637 18.1737 20.8842 18.1737 21.006C18.1737 21.1276 18.15 21.2481 18.1039 21.3603C17.9904 21.6336 17.8202 21.8785 17.6049 22.0779C17.3472 22.3302 17.0636 22.5534 16.7591 22.7435L17.8332 23.3746L16.9874 23.902L15.8963 23.2622C15.3258 23.5502 14.7383 23.8015 14.137 24.0144C13.5409 24.2334 12.9303 24.4097 12.31 24.5417L11.7349 23.098C12.0309 23.0374 12.3439 22.9682 12.6653 22.8818L13.5365 22.6485C13.8557 22.5417 14.1691 22.4176 14.4753 22.2767L13.6971 21.8185C13.4181 21.9222 13.1305 22.026 12.8513 22.1211C12.457 22.2596 12.0562 22.3779 11.6503 22.4756C11.3232 22.5583 10.9889 22.6074 10.6522 22.6225C10.3689 22.6399 10.0846 22.6196 9.80641 22.562C9.55054 22.503 9.30515 22.4038 9.07901 22.268C8.81253 22.1293 8.58973 21.9165 8.4362 21.6543C8.32232 21.4404 8.28921 21.1912 8.34315 20.954C8.41582 20.6862 8.54582 20.4381 8.72377 20.2279C8.95501 19.9604 9.21946 19.7251 9.51038 19.5277L8.59689 19.0176L9.48501 18.4989L10.39 19.0262C10.6607 18.8966 10.9314 18.7755 11.2359 18.6718C11.5403 18.568 11.7856 18.4643 12.0816 18.3778L12.8683 18.1358L13.5703 17.9543L14.0102 19.3202ZM10.999 20.7466C11.0991 20.8043 11.2154 20.8257 11.3289 20.8071C11.5026 20.8074 11.6757 20.7871 11.8448 20.7466L11.1766 20.3489C10.8975 20.5304 10.8552 20.6774 10.999 20.7466ZM15.2281 21.4727C15.1171 21.4209 14.9937 21.4028 14.8729 21.4209C14.7042 21.4691 14.5399 21.5328 14.3823 21.611L15.0336 21.9914C15.2028 21.8791 15.2958 21.7926 15.3212 21.7148C15.3465 21.6369 15.355 21.5419 15.2789 21.4986L15.2281 21.4727Z" fill="url(#paint11_radial_1_3)"/>
<path d="M26.4946 17.1849H0.00349601V21.006C-0.000662431 21.0403 -0.000662431 21.0752 0.00349601 21.1097C0.00349601 25.4321 5.92423 28.9937 13.249 28.9937C20.5738 28.9937 26.4946 25.4666 26.4946 21.1097C26.4946 21.1097 26.4946 21.0404 26.4946 21.006V17.1849Z" fill="url(#paint12_linear_1_3)"/>
<g style="mix-blend-mode:multiply">
<path style="mix-blend-mode:multiply" d="M0.00355874 20.4976V20.6108C-0.00108579 20.5732 -0.00108579 20.5352 0.00355874 20.4976Z" fill="url(#paint13_linear_1_3)"/>
<path style="mix-blend-mode:multiply" d="M13.2489 28.1551C5.92404 28.1551 0.00331624 24.6193 0.00331624 20.2709V21.0057C-0.000842198 21.0402 -0.000842198 21.075 0.00331624 21.1095C0.00331624 25.432 5.92404 28.9937 13.2489 28.9937C20.5737 28.9937 26.4943 25.4666 26.4943 21.1095C26.4943 21.1095 26.4943 21.0403 26.4943 21.0057V20.2709C26.4943 24.6193 20.5652 28.1551 13.2489 28.1551Z" fill="url(#paint14_linear_1_3)"/>
</g>
<g style="mix-blend-mode:multiply">
<g style="mix-blend-mode:multiply">
<g style="mix-blend-mode:multiply">
<path d="M17.3089 28.6125L17.6726 28.5347V18.5239H17.3089V28.6125Z" fill="#FDD65B"/>
</g>
</g>
<g style="mix-blend-mode:multiply">
<g style="mix-blend-mode:multiply">
<path d="M18.9666 28.2148L19.3387 28.1111V18.5239H18.9666V28.2148Z" fill="#FDD65B"/>
</g>
</g>
<g style="mix-blend-mode:multiply">
<g style="mix-blend-mode:multiply">
<path d="M20.633 27.6615L21.0051 27.4973V18.5239H20.633V27.6615Z" fill="#FDD65B"/>
</g>
</g>
<g style="mix-blend-mode:multiply">
<g style="mix-blend-mode:multiply">
<path d="M15.6427 28.8632H16.0148V18.5239H15.6427V28.8632Z" fill="#FDD65B"/>
</g>
</g>
<g style="mix-blend-mode:multiply">
<g style="mix-blend-mode:multiply">
<path d="M23.9569 25.7345L24.329 25.4233V18.5075H23.9569V25.7345Z" fill="#FDD65B"/>
</g>
</g>
<g style="mix-blend-mode:multiply">
<g style="mix-blend-mode:multiply">
<path d="M25.6232 23.901C25.7617 23.685 25.8861 23.4596 25.9953 23.2266V18.5239H25.6232V23.901Z" fill="#FDD65B"/>
</g>
</g>
<g style="mix-blend-mode:multiply">
<g style="mix-blend-mode:multiply">
<path d="M22.2991 26.8576L22.6713 26.6502V18.5239H22.2991V26.8576Z" fill="#FDD65B"/>
</g>
</g>
<g style="mix-blend-mode:multiply">
<g style="mix-blend-mode:multiply">
<path d="M13.9763 28.9755H14.3484V18.5239H13.9763V28.9755Z" fill="#FDD65B"/>
</g>
</g>
<g style="mix-blend-mode:multiply">
<g style="mix-blend-mode:multiply">
<path d="M12.3101 28.9669H12.6907V18.5239H12.3186L12.3101 28.9669Z" fill="#FDD65B"/>
</g>
</g>
<g style="mix-blend-mode:multiply">
<g style="mix-blend-mode:multiply">
<path d="M8.98597 28.5692L9.35815 28.6471V18.5239H8.98597V28.5692Z" fill="#FDD65B"/>
</g>
</g>
<g style="mix-blend-mode:multiply">
<g style="mix-blend-mode:multiply">
<path d="M10.6522 28.8383H11.0243V18.4644H10.6522V28.8383Z" fill="#FDD65B"/>
</g>
</g>
<g style="mix-blend-mode:multiply">
<g style="mix-blend-mode:multiply">
<path d="M7.31986 28.1543L7.69201 28.258V18.5239H7.31986V28.1543Z" fill="#FDD65B"/>
</g>
</g>
<g style="mix-blend-mode:multiply">
<g style="mix-blend-mode:multiply">
<path d="M0.663147 23.5639C0.781559 23.7713 0.899972 23.9701 1.0353 24.169V18.5239H0.663147V23.5639Z" fill="#FDD65B"/>
</g>
</g>
<g style="mix-blend-mode:multiply">
<g style="mix-blend-mode:multiply">
<path d="M2.32933 25.5695C2.44775 25.6733 2.57463 25.7683 2.70151 25.8634V18.5239H2.32933V25.5695Z" fill="#FDD65B"/>
</g>
</g>
<g style="mix-blend-mode:multiply">
<g style="mix-blend-mode:multiply">
<path d="M5.66185 27.5665L6.02554 27.7135V18.5239H5.66185V27.5665Z" fill="#FDD65B"/>
</g>
</g>
<g style="mix-blend-mode:multiply">
<g style="mix-blend-mode:multiply">
<path d="M3.99574 26.7452L4.36791 26.9441V18.5239H3.99574V26.7452Z" fill="#FDD65B"/>
</g>
</g>
</g>
<path d="M13.2494 25.1208C20.5647 25.1208 26.4949 21.5909 26.4949 17.2367C26.4949 12.8824 20.5647 9.35252 13.2494 9.35252C5.93407 9.35252 0.00384521 12.8824 0.00384521 17.2367C0.00384521 21.5909 5.93407 25.1208 13.2494 25.1208Z" fill="url(#paint15_linear_1_3)"/>
<path style="mix-blend-mode:screen" d="M13.2494 24.9134C6.08529 24.9134 0.274507 21.5246 0.00384521 17.2886C0.00384521 17.375 0.00384521 17.47 0.00384521 17.5565C0.00384521 21.8789 5.92458 25.4407 13.2494 25.4407C20.5741 25.4407 26.4949 21.9135 26.4949 17.5565C26.4949 17.47 26.4949 17.375 26.4949 17.2886C26.2242 21.5246 20.4049 24.9134 13.2494 24.9134Z" fill="url(#paint16_radial_1_3)"/>
<path d="M23.145 17.2367C23.145 20.4959 18.7129 23.1326 13.2489 23.1326C7.78495 23.1326 3.38668 20.4959 3.38668 17.2367C3.38668 13.9776 7.81878 11.3496 13.2912 11.3496C18.7636 11.3496 23.145 13.9863 23.145 17.2367Z" fill="url(#paint17_linear_1_3)"/>
<path style="mix-blend-mode:screen" d="M13.5788 11.6436C18.8652 11.6436 23.1704 14.1074 23.4495 17.2195C23.4495 17.1158 23.4495 17.0119 23.4495 16.8996C23.4495 13.6492 19.0174 11.0125 13.5534 11.0125C8.08942 11.0125 3.64887 13.606 3.64887 16.8996C3.64011 17.006 3.64011 17.113 3.64887 17.2195C3.97874 14.1074 8.29242 11.6436 13.5788 11.6436Z" fill="url(#paint18_radial_1_3)"/>
<path style="mix-blend-mode:multiply" d="M13.2488 11.9806C18.5351 11.9806 22.8404 14.453 23.1194 17.5566C23.1194 17.4529 23.1194 17.3492 23.1194 17.2368C23.1194 13.9863 18.6873 11.3496 13.2233 11.3496C7.75936 11.3496 3.38648 13.9863 3.38648 17.2368C3.37772 17.3433 3.37772 17.4502 3.38648 17.5566C3.64867 14.453 7.96236 11.9806 13.2488 11.9806Z" fill="url(#paint19_linear_1_3)"/>
<path style="mix-blend-mode:color-dodge" d="M20.2017 9.64664C23.1789 10.684 25.1835 12.7414 24.6844 14.2457C24.1854 15.7499 21.3604 16.139 18.3831 15.1102C15.4059 14.0814 13.4012 12.0153 13.9088 10.5111C14.4162 9.00692 17.2243 8.64383 20.2017 9.64664Z" fill="url(#paint20_radial_1_3)"/>
<g style="mix-blend-mode:multiply">
<path style="mix-blend-mode:multiply" d="M14.0102 15.3867L13.2489 15.5682C13.0205 15.6287 12.7752 15.6979 12.5131 15.7843C12.2598 15.8681 12.0113 15.9662 11.7688 16.0782L12.5638 16.5451L12.826 16.4499L13.122 16.3462C13.5732 16.1792 13.9961 16.0407 14.3908 15.9313C14.7628 15.8305 15.1417 15.7583 15.5242 15.7151C15.8555 15.6716 16.1909 15.6716 16.5223 15.7151C16.8467 15.7759 17.1584 15.8928 17.4442 16.061C17.7276 16.2016 17.959 16.4321 18.1039 16.718C18.15 16.8302 18.1737 16.9507 18.1737 17.0724C18.1737 17.1941 18.15 17.3146 18.1039 17.4269C17.992 17.6986 17.8215 17.9409 17.6049 18.1357C17.3476 18.391 17.064 18.6171 16.7591 18.81L17.8333 19.4411L16.9875 19.9684L15.8963 19.32C15.3276 19.6145 14.7399 19.8687 14.137 20.0808C13.5396 20.2959 12.9293 20.472 12.3101 20.6082L11.7349 19.1645C12.031 19.104 12.3439 19.0348 12.6654 18.9483L13.5618 18.6889C13.8812 18.5823 14.1946 18.4582 14.5007 18.3173L13.7226 17.8591C13.4435 17.9628 13.1559 18.0665 12.8768 18.1617C12.4824 18.3002 12.0816 18.4185 11.6757 18.5162C11.3478 18.5946 11.0139 18.6439 10.6777 18.663C10.3939 18.6823 10.109 18.659 9.83184 18.5939C9.57644 18.5377 9.33109 18.4415 9.10444 18.3086C8.83543 18.1695 8.61201 17.9532 8.46162 17.6862C8.34674 17.4757 8.31353 17.2289 8.36857 16.9946C8.43635 16.7248 8.56693 16.4756 8.74919 16.2685C8.98043 16.001 9.24488 15.7656 9.5358 15.5682L8.63923 15.0409L9.52734 14.5136L10.4324 15.0495C10.703 14.9198 10.9737 14.7989 11.2782 14.695C11.5827 14.5914 11.828 14.4877 12.1241 14.4012C12.42 14.3147 12.6654 14.2283 12.9107 14.1591L13.6126 13.9689L14.0102 15.3867ZM10.9991 16.839C11.1005 16.8927 11.2155 16.9138 11.3289 16.8994C11.4929 16.8832 11.6546 16.8483 11.8111 16.7958L11.1682 16.424C10.8976 16.5882 10.8553 16.7352 10.9991 16.839ZM15.2281 17.5652C15.1184 17.509 14.9937 17.4908 14.8729 17.5133C14.6979 17.5344 14.5252 17.5719 14.357 17.6257L15.0083 18.0147C15.1269 17.9509 15.2264 17.8553 15.2958 17.7381C15.3804 17.6689 15.355 17.6084 15.2789 17.5652H15.2281Z" fill="url(#paint21_linear_1_3)"/>
</g>
<path d="M14.0102 15.0495L13.2489 15.231C13.0205 15.2915 12.7752 15.3608 12.5131 15.4472C12.2509 15.5337 12.0056 15.6287 11.7688 15.7325L12.5638 16.2079L12.826 16.1128L13.122 16.0091C13.5732 15.842 13.9961 15.7036 14.3908 15.5942C14.7628 15.4934 15.1417 15.4212 15.5242 15.378C15.8555 15.3345 16.1909 15.3345 16.5223 15.378C16.8467 15.4388 17.1584 15.5557 17.4442 15.7238C17.7276 15.8645 17.959 16.095 18.1039 16.3808C18.15 16.4931 18.1737 16.6136 18.1737 16.7352C18.1737 16.857 18.15 16.9775 18.1039 17.0897C17.992 17.3614 17.8215 17.6038 17.6049 17.7986C17.3476 18.0539 17.064 18.28 16.7591 18.4729L17.8333 19.104L16.9875 19.6314L15.8541 19.0175C15.2854 19.3121 14.6975 19.5662 14.0947 19.7784C13.4973 19.9935 12.8871 20.1696 12.2678 20.3056L11.6926 18.862C11.9887 18.8014 12.3016 18.7322 12.6231 18.6458L13.5196 18.3864C13.8388 18.2797 14.1522 18.1557 14.4584 18.0148L13.6803 17.5566C13.4012 17.6603 13.1136 17.764 12.8344 17.8591C12.3947 18.0061 11.9887 18.1272 11.6334 18.2136C11.3056 18.2921 10.9716 18.3413 10.6354 18.3605C10.3516 18.3798 10.0667 18.3564 9.78955 18.2914C9.53415 18.2351 9.28879 18.1389 9.06214 18.0061C8.80758 17.8581 8.59934 17.6392 8.46162 17.375C8.34674 17.1646 8.31353 16.9178 8.36857 16.6834C8.43635 16.4135 8.56693 16.1644 8.74919 15.9573C8.98043 15.6898 9.24488 15.4543 9.5358 15.2569L8.59694 14.695L9.48505 14.1678L10.3901 14.7037C10.6607 14.574 10.9314 14.453 11.2359 14.3492C11.5404 14.2455 11.7857 14.1418 12.0817 14.0554C12.3778 13.9689 12.6231 13.8825 12.8683 13.8133L13.5365 13.6577L14.0102 15.0495ZM10.9991 16.5019C11.1005 16.5555 11.2155 16.5767 11.3289 16.5624C11.5057 16.5375 11.6789 16.491 11.8449 16.424L11.1767 16.0263C10.8976 16.2512 10.8553 16.424 10.9991 16.5019ZM15.2281 17.228C15.1184 17.1719 14.9937 17.1537 14.8729 17.1762C14.7065 17.1988 14.5423 17.2363 14.3823 17.2886L15.0336 17.6775C15.1524 17.6139 15.2518 17.5182 15.3212 17.4009C15.3804 17.3318 15.355 17.2886 15.2789 17.228H15.2281Z" fill="url(#paint22_linear_1_3)"/>
<path style="mix-blend-mode:color-dodge" d="M14.0102 15.0495L13.2489 15.231C13.0205 15.2915 12.7752 15.3608 12.5131 15.4472C12.2509 15.5337 12.0056 15.6287 11.7688 15.7325L12.5638 16.2079L12.826 16.1128L13.122 16.0091C13.5732 15.842 13.9961 15.7036 14.3908 15.5942C14.7628 15.4934 15.1417 15.4212 15.5242 15.378C15.8555 15.3345 16.1909 15.3345 16.5223 15.378C16.8467 15.4388 17.1584 15.5557 17.4442 15.7238C17.7276 15.8645 17.959 16.095 18.1039 16.3808C18.15 16.4931 18.1737 16.6136 18.1737 16.7352C18.1737 16.857 18.15 16.9775 18.1039 17.0897C17.992 17.3614 17.8215 17.6038 17.6049 17.7986C17.3476 18.0539 17.064 18.28 16.7591 18.4729L17.8333 19.104L16.9875 19.6314L15.8541 19.0175C15.2854 19.3121 14.6975 19.5662 14.0947 19.7784C13.4973 19.9935 12.8871 20.1696 12.2678 20.3056L11.6926 18.862C11.9887 18.8014 12.3016 18.7322 12.6231 18.6458L13.5196 18.3864C13.8388 18.2797 14.1522 18.1557 14.4584 18.0148L13.6803 17.5566C13.4012 17.6603 13.1136 17.764 12.8344 17.8591C12.3947 18.0061 11.9887 18.1272 11.6334 18.2136C11.3056 18.2921 10.9716 18.3413 10.6354 18.3605C10.3516 18.3798 10.0667 18.3564 9.78955 18.2914C9.53415 18.2351 9.28879 18.1389 9.06214 18.0061C8.80758 17.8581 8.59934 17.6392 8.46162 17.375C8.34674 17.1646 8.31353 16.9178 8.36857 16.6834C8.43635 16.4135 8.56693 16.1644 8.74919 15.9573C8.98043 15.6898 9.24488 15.4543 9.5358 15.2569L8.59694 14.695L9.48505 14.1678L10.3901 14.7037C10.6607 14.574 10.9314 14.453 11.2359 14.3492C11.5404 14.2455 11.7857 14.1418 12.0817 14.0554C12.3778 13.9689 12.6231 13.8825 12.8683 13.8133L13.5365 13.6577L14.0102 15.0495ZM10.9991 16.5019C11.1005 16.5555 11.2155 16.5767 11.3289 16.5624C11.5057 16.5375 11.6789 16.491 11.8449 16.424L11.1767 16.0263C10.8976 16.2512 10.8553 16.424 10.9991 16.5019ZM15.2281 17.228C15.1184 17.1719 14.9937 17.1537 14.8729 17.1762C14.7065 17.1988 14.5423 17.2363 14.3823 17.2886L15.0336 17.6775C15.1524 17.6139 15.2518 17.5182 15.3212 17.4009C15.3804 17.3318 15.355 17.2886 15.2789 17.228H15.2281Z" fill="url(#paint23_radial_1_3)"/>
<path d="M26.4946 12.6895H0.00349601V16.5105C-0.000662431 16.545 -0.000662431 16.5798 0.00349601 16.6142C0.00349601 20.9366 5.92423 24.4984 13.249 24.4984C20.5738 24.4984 26.4946 20.9712 26.4946 16.6142C26.4946 16.6142 26.4946 16.5451 26.4946 16.5105V12.6895Z" fill="url(#paint24_linear_1_3)"/>
<g style="mix-blend-mode:multiply">
<path style="mix-blend-mode:multiply" d="M0.00360275 16.0007V16.1139C-0.00140182 16.0763 -0.00140182 16.0382 0.00360275 16.0007Z" fill="url(#paint25_linear_1_3)"/>
<path style="mix-blend-mode:multiply" d="M13.2489 23.6512C5.92419 23.6512 0.00345642 20.1241 0.00345642 15.7758V16.5106C-0.000702006 16.5451 -0.000702006 16.5799 0.00345642 16.6143C0.00345642 20.9367 5.92419 24.4984 13.2489 24.4984C20.5738 24.4984 26.4945 20.9714 26.4945 16.6143C26.4945 16.6143 26.4945 16.5452 26.4945 16.5106V15.7758C26.4945 20.1241 20.5653 23.6512 13.2489 23.6512Z" fill="url(#paint26_linear_1_3)"/>
</g>
<g style="mix-blend-mode:multiply">
<g style="mix-blend-mode:multiply">
<g style="mix-blend-mode:multiply">
<path d="M17.3089 24.1184L17.6726 24.0406V14.0299H17.3089V24.1184Z" fill="#FDD65B"/>
</g>
</g>
<g style="mix-blend-mode:multiply">
<g style="mix-blend-mode:multiply">
<path d="M18.9666 23.7208L19.3387 23.6084V14.0299H18.9666V23.7208Z" fill="#FDD65B"/>
</g>
</g>
<g style="mix-blend-mode:multiply">
<g style="mix-blend-mode:multiply">
<path d="M20.633 23.1589L21.0051 22.9946V14.0299H20.633V23.1589Z" fill="#FDD65B"/>
</g>
</g>
<g style="mix-blend-mode:multiply">
<g style="mix-blend-mode:multiply">
<path d="M15.6427 24.3605H16.0148V14.0299H15.6427V24.3605Z" fill="#FDD65B"/>
</g>
</g>
<g style="mix-blend-mode:multiply">
<g style="mix-blend-mode:multiply">
<path d="M23.9569 21.2392L24.329 20.9279V14.012H23.9569V21.2392Z" fill="#FDD65B"/>
</g>
</g>
<g style="mix-blend-mode:multiply">
<g style="mix-blend-mode:multiply">
<path d="M25.6232 19.4071C25.7601 19.1898 25.8843 18.9647 25.9953 18.7327V14.0299H25.6232V19.4071Z" fill="#FDD65B"/>
</g>
</g>
<g style="mix-blend-mode:multiply">
<g style="mix-blend-mode:multiply">
<path d="M22.2991 22.3635L22.6713 22.156V14.0299H22.2991V22.3635Z" fill="#FDD65B"/>
</g>
</g>
<g style="mix-blend-mode:multiply">
<g style="mix-blend-mode:multiply">
<path d="M13.9763 24.4728H14.3822V14.0299H14.0101L13.9763 24.4728Z" fill="#FDD65B"/>
</g>
</g>
<g style="mix-blend-mode:multiply">
<g style="mix-blend-mode:multiply">
<path d="M12.3101 24.4728H12.6907V14.0299H12.3186L12.3101 24.4728Z" fill="#FDD65B"/>
</g>
</g>
<g style="mix-blend-mode:multiply">
<g style="mix-blend-mode:multiply">
<path d="M8.98597 24.0751L9.35815 24.153V14.0299H8.98597V24.0751Z" fill="#FDD65B"/>
</g>
</g>
<g style="mix-blend-mode:multiply">
<g style="mix-blend-mode:multiply">
<path d="M10.6522 24.3427H11.0243V13.9689H10.6522V24.3427Z" fill="#FDD65B"/>
</g>
</g>
<g style="mix-blend-mode:multiply">
<g style="mix-blend-mode:multiply">
<path d="M7.31986 23.6602L7.69201 23.764V14.0299H7.31986V23.6602Z" fill="#FDD65B"/>
</g>
</g>
<g style="mix-blend-mode:multiply">
<g style="mix-blend-mode:multiply">
<path d="M0.663147 19.0698C0.781559 19.2772 0.899972 19.4761 1.0353 19.6749V14.0299H0.663147V19.0698Z" fill="#FDD65B"/>
</g>
</g>
<g style="mix-blend-mode:multiply">
<g style="mix-blend-mode:multiply">
<path d="M2.32933 21.0754C2.44775 21.1792 2.57463 21.2742 2.70151 21.3694V14.0299H2.32933V21.0754Z" fill="#FDD65B"/>
</g>
</g>
<g style="mix-blend-mode:multiply">
<g style="mix-blend-mode:multiply">
<path d="M5.66185 23.0724L6.02554 23.2194V14.0299H5.66185V23.0724Z" fill="#FDD65B"/>
</g>
</g>
<g style="mix-blend-mode:multiply">
<g style="mix-blend-mode:multiply">
<path d="M3.99574 22.2512L4.36791 22.45V14.0299H3.99574V22.2512Z" fill="#FDD65B"/>
</g>
</g>
</g>
<path d="M13.2494 20.6255C20.5647 20.6255 26.4949 17.0957 26.4949 12.7413C26.4949 8.38707 20.5647 4.85721 13.2494 4.85721C5.93407 4.85721 0.00384521 8.38707 0.00384521 12.7413C0.00384521 17.0957 5.93407 20.6255 13.2494 20.6255Z" fill="url(#paint27_linear_1_3)"/>
<path style="mix-blend-mode:screen" d="M13.2494 20.4095C6.08529 20.4095 0.274507 17.0293 0.00384521 12.802C0.00384521 12.897 0.00384521 12.9834 0.00384521 13.0786C0.00384521 17.401 5.92458 20.9628 13.2494 20.9628C20.5741 20.9628 26.4949 17.4357 26.4949 13.0786C26.4949 12.9834 26.4949 12.897 26.4949 12.802C26.2242 17.0293 20.4049 20.4095 13.2494 20.4095Z" fill="url(#paint28_radial_1_3)"/>
<path d="M23.145 12.7414C23.145 15.992 18.7129 18.6373 13.2489 18.6373C7.78495 18.6373 3.38668 15.992 3.38668 12.7414C3.38668 9.491 7.77649 6.84567 13.2489 6.84567C18.7214 6.84567 23.145 9.50829 23.145 12.7414Z" fill="url(#paint29_linear_1_3)"/>
<path style="mix-blend-mode:screen" d="M13.5788 7.14818C18.8652 7.14818 23.1704 9.61194 23.4496 12.7241C23.4496 12.6117 23.4496 12.508 23.4496 12.4042C23.4496 9.15377 19.0175 6.50846 13.5535 6.50846C8.08949 6.50846 3.67432 9.15377 3.67432 12.4042C3.66647 12.5107 3.66647 12.6177 3.67432 12.7241C3.97882 9.61194 8.29249 7.14818 13.5788 7.14818Z" fill="url(#paint30_radial_1_3)"/>
<path style="mix-blend-mode:multiply" d="M13.2489 7.48539C18.5354 7.48539 22.8405 9.94916 23.1197 13.0613C23.1197 12.949 23.1197 12.8451 23.1197 12.7414C23.1197 9.49099 18.6876 6.84567 13.2236 6.84567C7.75958 6.84567 3.3867 9.50828 3.3867 12.7414C3.37883 12.8479 3.37883 12.9548 3.3867 13.0613C3.64889 9.94916 7.96257 7.48539 13.2489 7.48539Z" fill="url(#paint31_linear_1_3)"/>
<path style="mix-blend-mode:color-dodge" d="M24.6807 9.75159C25.1821 8.24653 23.1759 6.18699 20.1997 5.1515C17.2236 4.116 14.4046 4.49666 13.9033 6.00171C13.4021 7.50677 15.4083 9.5663 18.3844 10.6018C21.3604 11.6373 24.1794 11.2567 24.6807 9.75159Z" fill="url(#paint32_radial_1_3)"/>
<g style="mix-blend-mode:multiply">
<path style="mix-blend-mode:multiply" d="M14.0102 10.8915C13.7533 10.9374 13.4993 10.998 13.2489 11.073C13.0206 11.1249 12.7754 11.2027 12.5131 11.2891C12.2509 11.3756 12.0056 11.4707 11.7688 11.5744L12.5638 12.0498L12.826 11.9461L13.1221 11.8424C13.5704 11.6868 13.9679 11.5485 14.3909 11.4361C14.7624 11.3371 15.1415 11.2705 15.5242 11.2372C15.8549 11.185 16.1915 11.185 16.5223 11.2372C16.8476 11.2941 17.1601 11.4113 17.4442 11.583C17.7276 11.7237 17.959 11.9542 18.1039 12.2401C18.15 12.3522 18.1737 12.4728 18.1737 12.5945C18.1737 12.7162 18.15 12.8367 18.1039 12.949C17.9921 13.2207 17.8215 13.463 17.6049 13.6578C17.3454 13.9105 17.0622 14.1364 16.7591 14.3321L17.8333 14.9632L16.9875 15.4818L15.8964 14.8422C15.3277 15.1366 14.7399 15.3908 14.137 15.6029C13.5396 15.818 12.9294 15.9941 12.3101 16.1302L11.6927 14.6952C11.9887 14.6346 12.3017 14.5655 12.6231 14.4791C12.9444 14.3926 13.1897 14.3234 13.5196 14.211C13.8417 14.1091 14.1556 13.982 14.4585 13.8307L13.6804 13.3726C13.3984 13.4821 13.1165 13.5858 12.8346 13.6838C12.3947 13.8307 11.9887 13.9517 11.6335 14.0381C11.3048 14.1125 10.9712 14.1616 10.6354 14.1851C10.3517 14.1998 10.0674 14.1766 9.78957 14.1159C9.53371 14.057 9.28832 13.9579 9.06217 13.8221C8.79229 13.6883 8.56824 13.4743 8.41935 13.2083C8.30527 12.9976 8.2721 12.751 8.32632 12.5167C8.39409 12.2469 8.52466 11.9977 8.70693 11.7905C8.93818 11.5231 9.20262 11.2877 9.49354 11.0903L8.59698 10.5629L9.48509 10.0356L10.3901 10.5716C10.6608 10.4419 10.9314 10.3209 11.2359 10.2085L12.0817 9.91459L12.8683 9.68119L13.5365 9.50829L14.0102 10.8915ZM10.9991 12.3438C11.1006 12.3975 11.2156 12.4186 11.329 12.4043C11.4929 12.3879 11.6546 12.3532 11.8111 12.3006L11.1429 11.903C10.8976 12.1018 10.8553 12.2401 10.9991 12.3438ZM15.2281 13.0699C15.1184 13.0138 14.9937 12.9956 14.873 13.0181C14.6979 13.0391 14.5252 13.0767 14.357 13.1304L15.0083 13.5195C15.127 13.4558 15.2264 13.3601 15.2959 13.2428C15.3804 13.1737 15.3551 13.1132 15.2789 13.0699H15.2281Z" fill="url(#paint33_linear_1_3)"/>
</g>
<path d="M14.0101 10.5543C13.7532 10.6003 13.4991 10.6609 13.2489 10.7359C13.0205 10.7877 12.7752 10.8655 12.513 10.952C12.2508 11.0384 12.0055 11.1335 11.7687 11.2373L12.5637 11.7127L12.826 11.609L13.122 11.5052C13.5703 11.3496 13.9679 11.2113 14.3908 11.0989C14.7618 10.9941 15.1409 10.9218 15.5242 10.8828C15.8548 10.8305 16.1915 10.8305 16.5222 10.8828C16.8476 10.9397 17.1601 11.0569 17.4442 11.2286C17.7276 11.3693 17.9588 11.5997 18.1039 11.8856C18.15 11.9978 18.1736 12.1183 18.1736 12.2401C18.1736 12.3617 18.15 12.4822 18.1039 12.5945C17.992 12.8662 17.8214 13.1086 17.6048 13.3033C17.3453 13.556 17.062 13.782 16.759 13.9777L17.8332 14.6087L16.9874 15.1274L15.8963 14.4878C15.3276 14.7822 14.7397 15.0363 14.1369 15.2485C13.5395 15.4636 12.9294 15.6397 12.31 15.7758L11.7349 14.3321C12.0309 14.2716 12.3439 14.2025 12.6653 14.116C12.9866 14.0296 13.2319 13.9604 13.5618 13.848C13.8837 13.7489 14.1976 13.6247 14.5007 13.4762L13.7226 13.0181C13.4406 13.1334 13.1586 13.2371 12.8767 13.3293C12.4369 13.4762 12.0309 13.5973 11.6756 13.6838C11.347 13.7581 11.0134 13.8072 10.6776 13.8307C10.3939 13.8454 10.1096 13.8221 9.83175 13.7615C9.57588 13.7026 9.33049 13.6035 9.10435 13.4677C8.83801 13.3408 8.61434 13.1363 8.46152 12.8798C8.34744 12.6691 8.31428 12.4225 8.36849 12.1882C8.43626 11.9183 8.56684 11.6692 8.7491 11.462C8.98035 11.1946 9.24479 10.9592 9.53572 10.7618L8.63915 10.2345L9.52725 9.70713L10.4323 10.2431C10.703 10.1134 10.9736 9.99241 11.2781 9.88002C11.5826 9.76764 11.8279 9.67256 12.1239 9.5861L12.9105 9.35269L13.5364 9.1625L14.0101 10.5543ZM10.999 12.0066C11.1005 12.0604 11.2154 12.0814 11.3289 12.0672C11.4928 12.0508 11.6545 12.016 11.811 11.9635L11.1428 11.5658C10.8975 11.756 10.8552 11.903 10.999 12.0066ZM15.2281 12.7328C15.1183 12.6766 14.9936 12.6584 14.8729 12.6809C14.6978 12.702 14.5251 12.7395 14.3569 12.7933L15.0082 13.1824C15.1269 13.1187 15.2263 13.0229 15.2958 12.9057C15.3803 12.8366 15.355 12.7761 15.2789 12.7328H15.2281Z" fill="url(#paint34_linear_1_3)"/>
<path style="mix-blend-mode:color-dodge" d="M14.0101 10.5543C13.7532 10.6003 13.4991 10.6609 13.2489 10.7359C13.0205 10.7877 12.7752 10.8655 12.513 10.952C12.2508 11.0384 12.0055 11.1335 11.7687 11.2373L12.5637 11.7127L12.826 11.609L13.122 11.5052C13.5703 11.3496 13.9679 11.2113 14.3908 11.0989C14.7618 10.9941 15.1409 10.9218 15.5242 10.8828C15.8548 10.8305 16.1915 10.8305 16.5222 10.8828C16.8476 10.9397 17.1601 11.0569 17.4442 11.2286C17.7276 11.3693 17.9588 11.5997 18.1039 11.8856C18.15 11.9978 18.1736 12.1183 18.1736 12.2401C18.1736 12.3617 18.15 12.4822 18.1039 12.5945C17.992 12.8662 17.8214 13.1086 17.6048 13.3033C17.3453 13.556 17.062 13.782 16.759 13.9777L17.8332 14.6087L16.9874 15.1274L15.8963 14.4878C15.3276 14.7822 14.7397 15.0363 14.1369 15.2485C13.5395 15.4636 12.9294 15.6397 12.31 15.7758L11.7349 14.3321C12.0309 14.2716 12.3439 14.2025 12.6653 14.116C12.9866 14.0296 13.2319 13.9604 13.5618 13.848C13.8837 13.7489 14.1976 13.6247 14.5007 13.4762L13.7226 13.0181C13.4406 13.1334 13.1586 13.2371 12.8767 13.3293C12.4369 13.4762 12.0309 13.5973 11.6756 13.6838C11.347 13.7581 11.0134 13.8072 10.6776 13.8307C10.3939 13.8454 10.1096 13.8221 9.83175 13.7615C9.57588 13.7026 9.33049 13.6035 9.10435 13.4677C8.83801 13.3408 8.61434 13.1363 8.46152 12.8798C8.34744 12.6691 8.31428 12.4225 8.36849 12.1882C8.43626 11.9183 8.56684 11.6692 8.7491 11.462C8.98035 11.1946 9.24479 10.9592 9.53572 10.7618L8.63915 10.2345L9.52725 9.70713L10.4323 10.2431C10.703 10.1134 10.9736 9.99241 11.2781 9.88002C11.5826 9.76764 11.8279 9.67256 12.1239 9.5861L12.9105 9.35269L13.5364 9.1625L14.0101 10.5543ZM10.999 12.0066C11.1005 12.0604 11.2154 12.0814 11.3289 12.0672C11.4928 12.0508 11.6545 12.016 11.811 11.9635L11.1428 11.5658C10.8975 11.756 10.8552 11.903 10.999 12.0066ZM15.2281 12.7328C15.1183 12.6766 14.9936 12.6584 14.8729 12.6809C14.6978 12.702 14.5251 12.7395 14.3569 12.7933L15.0082 13.1824C15.1269 13.1187 15.2263 13.0229 15.2958 12.9057C15.3803 12.8366 15.355 12.7761 15.2789 12.7328H15.2281Z" fill="url(#paint35_radial_1_3)"/>
<path d="M26.4943 8.1163H0.00329567V11.9373C-0.000897649 11.9747 -0.000897649 12.0124 0.00329567 12.0497C0.00329567 16.3722 5.92403 19.9338 13.2488 19.9338C20.5737 19.9338 26.4943 16.424 26.4943 12.0497C26.4943 12.0497 26.4943 11.9719 26.4943 11.9373V8.1163Z" fill="url(#paint36_linear_1_3)"/>
<g style="mix-blend-mode:multiply">
<path style="mix-blend-mode:multiply" d="M0.00353174 11.4375V11.5412C-0.00107679 11.5068 -0.00107679 11.472 0.00353174 11.4375Z" fill="url(#paint37_linear_1_3)"/>
<path style="mix-blend-mode:multiply" d="M13.2488 19.0868C5.92402 19.0868 0.00328136 15.5597 0.00328136 11.2372V11.972C-0.000911954 12.0094 -0.000911954 12.0471 0.00328136 12.0844C0.00328136 16.4069 5.92402 19.9686 13.2488 19.9686C20.5737 19.9686 26.4943 16.4241 26.4943 12.0498C26.4943 12.0498 26.4943 11.972 26.4943 11.9374V11.2372C26.4943 15.5597 20.5651 19.0868 13.2488 19.0868Z" fill="url(#paint38_linear_1_3)"/>
</g>
<g style="mix-blend-mode:multiply">
<g style="mix-blend-mode:multiply">
<g style="mix-blend-mode:multiply">
<path d="M17.3089 19.5546L17.6726 19.4681V9.45734H17.3089V19.5546Z" fill="#FDD65B"/>
</g>
</g>
<g style="mix-blend-mode:multiply">
<g style="mix-blend-mode:multiply">
<path d="M18.9666 19.1482L19.3387 19.0445V9.45734H18.9666V19.1482Z" fill="#FDD65B"/>
</g>
</g>
<g style="mix-blend-mode:multiply">
<g style="mix-blend-mode:multiply">
<path d="M20.633 18.595L21.0051 18.4308V9.45734H20.633V18.595Z" fill="#FDD65B"/>
</g>
</g>
<g style="mix-blend-mode:multiply">
<g style="mix-blend-mode:multiply">
<path d="M15.6427 19.7967H16.0148V9.45734H15.6427V19.7967Z" fill="#FDD65B"/>
</g>
</g>
<g style="mix-blend-mode:multiply">
<g style="mix-blend-mode:multiply">
<path d="M23.9569 16.6659C24.0867 16.5696 24.211 16.4656 24.329 16.3547V9.43875H23.9569V16.6659Z" fill="#FDD65B"/>
</g>
</g>
<g style="mix-blend-mode:multiply">
<g style="mix-blend-mode:multiply">
<path d="M25.6232 14.8344C25.7617 14.6213 25.8861 14.3989 25.9953 14.1688V9.45734H25.6232V14.8344Z" fill="#FDD65B"/>
</g>
</g>
<g style="mix-blend-mode:multiply">
<g style="mix-blend-mode:multiply">
<path d="M22.2991 17.7911L22.6713 17.5836V9.45734H22.2991V17.7911Z" fill="#FDD65B"/>
</g>
</g>
<g style="mix-blend-mode:multiply">
<g style="mix-blend-mode:multiply">
<path d="M13.9763 19.883H14.3822V9.45734H14.0101L13.9763 19.883Z" fill="#FDD65B"/>
</g>
</g>
<g style="mix-blend-mode:multiply">
<g style="mix-blend-mode:multiply">
<path d="M12.3101 19.883H12.6907V9.45734H12.3186L12.3101 19.883Z" fill="#FDD65B"/>
</g>
</g>
<g style="mix-blend-mode:multiply">
<g style="mix-blend-mode:multiply">
<path d="M8.98597 19.5027C9.11285 19.5027 9.23127 19.5632 9.35815 19.5806V9.45734H8.98597V19.5027Z" fill="#FDD65B"/>
</g>
</g>
<g style="mix-blend-mode:multiply">
<g style="mix-blend-mode:multiply">
<path d="M10.6522 19.7784H11.0243V9.4045H10.6522V19.7784Z" fill="#FDD65B"/>
</g>
</g>
<g style="mix-blend-mode:multiply">
<g style="mix-blend-mode:multiply">
<path d="M7.31986 19.0877L7.69201 19.2001V9.45734H7.31986V19.0877Z" fill="#FDD65B"/>
</g>
</g>
<g style="mix-blend-mode:multiply">
<g style="mix-blend-mode:multiply">
<path d="M0.663147 14.506C0.781559 14.7048 0.899972 14.9123 1.0353 15.1025V9.45734H0.663147V14.506Z" fill="#FDD65B"/>
</g>
</g>
<g style="mix-blend-mode:multiply">
<g style="mix-blend-mode:multiply">
<path d="M2.32933 16.5115L2.70151 16.8055V9.45734H2.32933V16.5115Z" fill="#FDD65B"/>
</g>
</g>
<g style="mix-blend-mode:multiply">
<g style="mix-blend-mode:multiply">
<path d="M5.66185 18.4999L6.02554 18.6555V9.45734H5.66185V18.4999Z" fill="#FDD65B"/>
</g>
</g>
<g style="mix-blend-mode:multiply">
<g style="mix-blend-mode:multiply">
<path d="M3.99574 17.6873L4.36791 17.8861V9.45734H3.99574V17.6873Z" fill="#FDD65B"/>
</g>
</g>
</g>
<path d="M13.2494 16.0614C20.5647 16.0614 26.4949 12.5316 26.4949 8.17726C26.4949 3.82296 20.5647 0.293087 13.2494 0.293087C5.93407 0.293087 0.00384521 3.82296 0.00384521 8.17726C0.00384521 12.5316 5.93407 16.0614 13.2494 16.0614Z" fill="url(#paint39_linear_1_3)"/>
<path style="mix-blend-mode:screen" d="M13.2494 15.8448C6.08529 15.8448 0.274507 12.4646 0.00384521 8.23723C0.00384521 8.33232 0.00384521 8.41877 0.00384521 8.51387C0.00384521 12.8623 5.92458 16.424 13.2494 16.424C20.5741 16.424 26.4949 12.8882 26.4949 8.53981C26.4949 8.44471 26.4949 8.35825 26.4949 8.26316C26.2242 12.4646 20.4049 15.8448 13.2494 15.8448Z" fill="url(#paint40_radial_1_3)"/>
<path d="M23.145 8.17692C23.145 11.4274 18.7129 14.0641 13.2489 14.0641C7.78495 14.0641 3.38668 11.4274 3.38668 8.17692C3.38668 4.92645 7.77649 2.28111 13.2489 2.28111C18.7214 2.28111 23.145 4.91781 23.145 8.17692Z" fill="url(#paint41_linear_1_3)"/>
<path style="mix-blend-mode:screen" d="M13.5787 2.5924C18.8652 2.5924 23.1703 5.04751 23.4495 8.15098C23.4495 8.04724 23.4495 7.94351 23.4495 7.83977C23.4495 4.5807 19.0174 1.94405 13.5534 1.94405C8.0894 1.94405 3.67423 4.5807 3.67423 7.83977C3.66591 7.94333 3.66591 8.04742 3.67423 8.15098C3.97872 5.04751 8.29239 2.5924 13.5787 2.5924Z" fill="url(#paint42_radial_1_3)"/>
<path style="mix-blend-mode:multiply" d="M13.2488 2.91221C18.5351 2.91221 22.8404 5.38466 23.1195 8.48821C23.1195 8.38447 23.1195 8.28073 23.1195 8.177C23.1195 4.91783 18.6874 2.28111 13.2235 2.28111C7.75947 2.28111 3.3866 4.91783 3.3866 8.177C3.37828 8.28055 3.37828 8.38464 3.3866 8.48821C3.6488 5.38466 7.96247 2.91221 13.2488 2.91221Z" fill="url(#paint43_linear_1_3)"/>
<g style="mix-blend-mode:multiply">
<path style="mix-blend-mode:multiply" d="M14.0102 6.32686C13.7649 6.32686 13.5112 6.43059 13.2489 6.49975C12.9868 6.56891 12.7752 6.62942 12.5131 6.72452C12.2509 6.81962 12.0056 6.90606 11.7687 7.00981L12.5638 7.47663L12.826 7.38154L13.122 7.27779C13.5704 7.11354 13.9679 6.98387 14.3908 6.87148C14.7627 6.76814 15.1415 6.69301 15.5242 6.64671C15.8552 6.5986 16.1913 6.5986 16.5223 6.64671C16.8473 6.70031 17.1597 6.8146 17.4442 6.98387C17.7285 7.12732 17.9599 7.3608 18.1039 7.64953C18.15 7.76177 18.1737 7.88225 18.1737 8.00397C18.1737 8.12568 18.15 8.24617 18.1039 8.35841C17.9901 8.62903 17.8198 8.87096 17.6049 9.06729C17.3472 9.31971 17.0637 9.5429 16.7591 9.73295L17.8333 10.364L16.9875 10.8914L15.8963 10.2517C15.326 10.5425 14.7384 10.7966 14.137 11.0124C13.5406 11.2288 12.9302 11.4021 12.31 11.5311L11.7349 10.0874L12.6653 9.87993C12.9275 9.81076 13.232 9.71566 13.5618 9.61193C13.8824 9.50899 14.196 9.38482 14.5007 9.24019L13.7226 8.78202L12.8768 9.09323C12.437 9.24019 12.0309 9.35258 11.6757 9.43903C11.3486 9.52177 11.0143 9.57099 10.6776 9.58599C10.3943 9.6079 10.1094 9.5875 9.83181 9.52548C9.57594 9.46652 9.33055 9.36736 9.10441 9.23154C8.8397 9.10221 8.61667 8.89825 8.46158 8.64369C8.34771 8.42981 8.31461 8.18063 8.36855 7.94345C8.4412 7.67556 8.57122 7.42752 8.74916 7.21728C8.98041 6.94985 9.24485 6.71445 9.53578 6.51704L8.63921 5.9897L9.52732 5.47101L10.3901 6.05021C10.6607 5.92054 10.9314 5.79951 11.2359 5.69578C11.5404 5.59203 11.7857 5.4883 12.0817 5.40184L12.8683 5.16843L13.5365 4.93502L14.0102 6.32686ZM10.999 7.7792C11.0996 7.83589 11.2146 7.86001 11.3289 7.84836C11.504 7.82324 11.6766 7.78274 11.8449 7.72733L11.1767 7.33831C10.8975 7.52849 10.8553 7.67547 10.999 7.7792ZM15.2281 8.50538C15.1161 8.45691 14.993 8.44191 14.8729 8.46215C14.6972 8.47897 14.5241 8.51668 14.357 8.57453L15.0083 8.95492C15.1774 8.84253 15.2705 8.75608 15.2958 8.68692C15.3212 8.61776 15.355 8.54861 15.2789 8.49673L15.2281 8.50538Z" fill="url(#paint44_linear_1_3)"/>
</g>
<path d="M14.0102 5.98977C13.7649 6.03299 13.5112 6.0935 13.2489 6.16266C12.9868 6.23183 12.7752 6.29233 12.5131 6.38743C12.2509 6.48252 12.0056 6.56897 11.7687 6.67271L12.5638 7.13953L12.826 7.04444L13.122 6.91477C13.5704 6.75052 13.9679 6.62085 14.3908 6.50846C14.7627 6.40512 15.1415 6.32998 15.5242 6.28369C15.8552 6.23557 16.1913 6.23557 16.5223 6.28369C16.8473 6.33728 17.1597 6.45158 17.4442 6.62085C17.7285 6.7643 17.9599 6.99776 18.1039 7.2865C18.15 7.39873 18.1737 7.51922 18.1737 7.64093C18.1737 7.76265 18.15 7.88314 18.1039 7.99537C17.9901 8.26598 17.8198 8.50791 17.6049 8.70425C17.3472 8.95666 17.0637 9.17985 16.7591 9.36991L17.8333 10.001L16.9875 10.5283L15.8963 9.8886C15.326 10.1795 14.7384 10.4335 14.137 10.6493C13.5406 10.8657 12.9302 11.039 12.31 11.168L11.7349 9.72434L12.6653 9.51687C12.9275 9.4477 13.232 9.35262 13.5618 9.24888C13.8824 9.14595 14.196 9.02178 14.5007 8.87715L13.7226 8.41897L12.8768 8.73018C12.437 8.87715 12.0309 8.98953 11.6757 9.07598C11.3486 9.15871 11.0143 9.20794 10.6776 9.22295C10.3943 9.24033 10.11 9.22 9.83181 9.16243C9.57594 9.10347 9.33055 9.00431 9.10441 8.86851C8.84407 8.74859 8.6215 8.55702 8.46158 8.31524C8.34771 8.10134 8.31461 7.85218 8.36855 7.615C8.43201 7.35992 8.54728 7.12134 8.70687 6.91477C8.93812 6.64734 9.20256 6.41194 9.49349 6.21454L8.59692 5.6872L9.48502 5.18579L10.3901 5.71314C10.6607 5.58346 10.9314 5.46243 11.2359 5.35869C11.5404 5.25496 11.7857 5.15122 12.0817 5.06477L12.8683 4.83135L13.5365 4.59795L14.0102 5.98977ZM10.999 7.43346C11.0996 7.49014 11.2146 7.51426 11.3289 7.50262C11.5037 7.48031 11.6763 7.44272 11.8449 7.39024L11.1682 7.00122C10.8975 7.19141 10.8553 7.33837 10.999 7.43346ZM15.2281 8.15962C15.1121 8.12552 14.989 8.12552 14.8729 8.15962C14.6972 8.17644 14.5241 8.21415 14.357 8.27201L15.0083 8.65239C15.1774 8.54 15.2705 8.45355 15.2958 8.38439C15.3212 8.31524 15.355 8.21149 15.2789 8.15962H15.2281Z" fill="url(#paint45_linear_1_3)"/>
<path style="mix-blend-mode:color-dodge" d="M14.0102 5.98977C13.7649 6.03299 13.5112 6.0935 13.2489 6.16266C12.9868 6.23183 12.7752 6.29233 12.5131 6.38743C12.2509 6.48252 12.0056 6.56897 11.7687 6.67271L12.5638 7.13953L12.826 7.04444L13.122 6.91477C13.5704 6.75052 13.9679 6.62085 14.3908 6.50846C14.7627 6.40512 15.1415 6.32998 15.5242 6.28369C15.8552 6.23557 16.1913 6.23557 16.5223 6.28369C16.8473 6.33728 17.1597 6.45158 17.4442 6.62085C17.7285 6.7643 17.9599 6.99776 18.1039 7.2865C18.15 7.39873 18.1737 7.51922 18.1737 7.64093C18.1737 7.76265 18.15 7.88314 18.1039 7.99537C17.9901 8.26598 17.8198 8.50791 17.6049 8.70425C17.3472 8.95666 17.0637 9.17985 16.7591 9.36991L17.8333 10.001L16.9875 10.5283L15.8963 9.8886C15.326 10.1795 14.7384 10.4335 14.137 10.6493C13.5406 10.8657 12.9302 11.039 12.31 11.168L11.7349 9.72434L12.6653 9.51687C12.9275 9.4477 13.232 9.35262 13.5618 9.24888C13.8824 9.14595 14.196 9.02178 14.5007 8.87715L13.7226 8.41897L12.8768 8.73018C12.437 8.87715 12.0309 8.98953 11.6757 9.07598C11.3486 9.15871 11.0143 9.20794 10.6776 9.22295C10.3943 9.24033 10.11 9.22 9.83181 9.16243C9.57594 9.10347 9.33055 9.00431 9.10441 8.86851C8.84407 8.74859 8.6215 8.55702 8.46158 8.31524C8.34771 8.10134 8.31461 7.85218 8.36855 7.615C8.43201 7.35992 8.54728 7.12134 8.70687 6.91477C8.93812 6.64734 9.20256 6.41194 9.49349 6.21454L8.59692 5.6872L9.48502 5.18579L10.3901 5.71314C10.6607 5.58346 10.9314 5.46243 11.2359 5.35869C11.5404 5.25496 11.7857 5.15122 12.0817 5.06477L12.8683 4.83135L13.5365 4.59795L14.0102 5.98977ZM10.999 7.43346C11.0996 7.49014 11.2146 7.51426 11.3289 7.50262C11.5037 7.48031 11.6763 7.44272 11.8449 7.39024L11.1682 7.00122C10.8975 7.19141 10.8553 7.33837 10.999 7.43346ZM15.2281 8.15962C15.1121 8.12552 14.989 8.12552 14.8729 8.15962C14.6972 8.17644 14.5241 8.21415 14.357 8.27201L15.0083 8.65239C15.1774 8.54 15.2705 8.45355 15.2958 8.38439C15.3212 8.31524 15.355 8.21149 15.2789 8.15962H15.2281Z" fill="url(#paint46_radial_1_3)"/>
<path d="M39.9175 31.1204H13.435V34.9328V35.0452C13.435 39.3676 19.3557 42.9293 26.6805 42.9293C34.0053 42.9293 39.9175 39.4021 39.9175 35.0452V34.9328V31.1204Z" fill="url(#paint47_linear_1_3)"/>
<g style="mix-blend-mode:multiply">
<path style="mix-blend-mode:multiply" d="M26.6805 42.0993C19.3642 42.0993 13.435 38.5722 13.435 34.2152V34.95V35.0624C13.435 39.3848 19.3557 42.9465 26.6805 42.9465C34.0053 42.9465 39.9175 39.4194 39.9175 35.0624V34.95V34.2152C39.9175 38.5722 33.9884 42.0993 26.6805 42.0993Z" fill="url(#paint48_linear_1_3)"/>
</g>
<g style="mix-blend-mode:multiply">
<g style="mix-blend-mode:multiply">
<g style="mix-blend-mode:multiply">
<path d="M30.7322 42.5652L31.1043 42.4875V32.4766H30.7322V42.5652Z" fill="#FDD65B"/>
</g>
</g>
<g style="mix-blend-mode:multiply">
<g style="mix-blend-mode:multiply">
<path d="M32.3986 42.1676L32.7707 42.0552V32.4766H32.3986V42.1676Z" fill="#FDD65B"/>
</g>
</g>
<g style="mix-blend-mode:multiply">
<g style="mix-blend-mode:multiply">
<path d="M34.0647 41.6057L34.4369 41.4415V32.4766H34.0647V41.6057Z" fill="#FDD65B"/>
</g>
</g>
<g style="mix-blend-mode:multiply">
<g style="mix-blend-mode:multiply">
<path d="M29.0661 42.8072H29.4382V32.4766H29.0661V42.8072Z" fill="#FDD65B"/>
</g>
</g>
<g style="mix-blend-mode:multiply">
<g style="mix-blend-mode:multiply">
<path d="M37.3889 39.6873C37.5157 39.5835 37.6427 39.4798 37.761 39.3674V32.4514H37.3889V39.6873Z" fill="#FDD65B"/>
</g>
</g>
<g style="mix-blend-mode:multiply">
<g style="mix-blend-mode:multiply">
<path d="M39.055 37.8538C39.1904 37.629 39.3173 37.4043 39.4272 37.1795V32.4766H39.055V37.8538Z" fill="#FDD65B"/>
</g>
</g>
<g style="mix-blend-mode:multiply">
<g style="mix-blend-mode:multiply">
<path d="M35.7225 40.8104L36.0947 40.603V32.4766H35.7225V40.8104Z" fill="#FDD65B"/>
</g>
</g>
<g style="mix-blend-mode:multiply">
<g style="mix-blend-mode:multiply">
<path d="M27.4081 42.9197H27.7803V32.4766H27.4081V42.9197Z" fill="#FDD65B"/>
</g>
</g>
<g style="mix-blend-mode:multiply">
<g style="mix-blend-mode:multiply">
<path d="M25.742 42.9197H26.1141V32.4766H25.742V42.9197Z" fill="#FDD65B"/>
</g>
</g>
<g style="mix-blend-mode:multiply">
<g style="mix-blend-mode:multiply">
<path d="M22.4178 42.5221L22.79 42.5998V32.4766H22.4178V42.5221Z" fill="#FDD65B"/>
</g>
</g>
<g style="mix-blend-mode:multiply">
<g style="mix-blend-mode:multiply">
<path d="M24.0756 42.7908H24.4477V32.4171H24.0756V42.7908Z" fill="#FDD65B"/>
</g>
</g>
<g style="mix-blend-mode:multiply">
<g style="mix-blend-mode:multiply">
<path d="M20.7517 42.1072L21.1238 42.2109V32.4766H20.7517V42.1072Z" fill="#FDD65B"/>
</g>
</g>
<g style="mix-blend-mode:multiply">
<g style="mix-blend-mode:multiply">
<path d="M14.095 37.5167C14.2048 37.7271 14.3293 37.9293 14.4672 38.1218V32.4766H14.095V37.5167Z" fill="#FDD65B"/>
</g>
</g>
<g style="mix-blend-mode:multiply">
<g style="mix-blend-mode:multiply">
<path d="M15.7611 39.5222C15.8795 39.6259 16.0064 39.7211 16.1333 39.8161V32.4766H15.7611V39.5222Z" fill="#FDD65B"/>
</g>
</g>
<g style="mix-blend-mode:multiply">
<g style="mix-blend-mode:multiply">
<path d="M19.0853 41.4933L19.4574 41.6403V32.4766H19.0853V41.4933Z" fill="#FDD65B"/>
</g>
</g>
<g style="mix-blend-mode:multiply">
<g style="mix-blend-mode:multiply">
<path d="M17.4191 40.6979L17.7912 40.8967V32.4766H17.4191V40.6979Z" fill="#FDD65B"/>
</g>
</g>
</g>
<path d="M26.6805 39.0737C33.9958 39.0737 39.9259 35.5438 39.9259 31.1896C39.9259 26.8352 33.9958 23.3055 26.6805 23.3055C19.3651 23.3055 13.435 26.8352 13.435 31.1896C13.435 35.5438 19.3651 39.0737 26.6805 39.0737Z" fill="url(#paint49_linear_1_3)"/>
<path style="mix-blend-mode:screen" d="M26.6805 38.9008C19.5164 38.9008 13.6971 35.4428 13.4519 31.25C13.4519 31.3451 13.4519 31.4316 13.4519 31.5267C13.4519 35.8491 19.3726 39.4108 26.6974 39.4108C34.0222 39.4108 39.9345 35.8837 39.9345 31.5267C39.9345 31.4316 39.9345 31.3451 39.9345 31.25C39.6553 35.4428 33.8361 38.9008 26.6805 38.9008Z" fill="url(#paint50_radial_1_3)"/>
<path d="M36.5766 31.1896C36.5766 34.4401 32.1445 37.0855 26.6805 37.0855C21.2165 37.0855 16.7759 34.4401 16.7759 31.1896C16.7759 27.9392 21.208 25.2938 26.6805 25.2938C32.1529 25.2938 36.5766 27.9305 36.5766 31.1896Z" fill="url(#paint51_linear_1_3)"/>
<path style="mix-blend-mode:screen" d="M27.0104 25.5877C32.2968 25.5877 36.602 28.0601 36.8811 31.1637C36.8811 31.06 36.8811 30.9561 36.8811 30.8524C36.8811 27.5932 32.4491 24.9566 26.985 24.9566C21.521 24.9566 17.0805 27.5932 17.0805 30.8524C17.0805 30.9561 17.0805 31.06 17.0805 31.1637C17.4104 28.0601 21.7155 25.5877 27.0104 25.5877Z" fill="url(#paint52_radial_1_3)"/>
<path style="mix-blend-mode:multiply" d="M26.6806 25.9335C31.967 25.9335 36.2722 28.4059 36.5513 31.518C36.5513 31.4057 36.5513 31.302 36.5513 31.1983C36.5513 27.939 32.1192 25.3024 26.6552 25.3024C21.1912 25.3024 16.7507 27.939 16.7507 31.1983C16.7507 31.302 16.7507 31.4057 16.7507 31.518C17.0806 28.3972 21.3857 25.9335 26.6806 25.9335Z" fill="url(#paint53_linear_1_3)"/>
<path style="mix-blend-mode:color-dodge" d="M33.633 23.5993C36.6103 24.6281 38.6149 26.6943 38.1159 28.1985C37.6168 29.7027 34.7918 30.083 31.8146 29.063C28.8372 28.0429 26.8327 25.9681 27.3317 24.4552C27.8307 22.9423 30.6557 22.562 33.633 23.5993Z" fill="url(#paint54_radial_1_3)"/>
<g style="mix-blend-mode:multiply">
<path style="mix-blend-mode:multiply" d="M27.4417 29.3394C27.1848 29.3855 26.9307 29.4461 26.6805 29.521C26.4521 29.5729 26.2068 29.6506 25.9446 29.7371C25.6824 29.8236 25.4371 29.9187 25.2003 30.0224L25.9953 30.4979L26.2576 30.3941L26.5451 30.2904C27.0019 30.1348 27.3909 29.9965 27.8224 29.8841C28.1905 29.7793 28.5669 29.707 28.9472 29.668C29.2809 29.6158 29.6202 29.6158 29.9538 29.668C30.2765 29.7249 30.5861 29.8421 30.8672 30.0138C31.1564 30.1492 31.3919 30.3808 31.5355 30.6707C31.5815 30.783 31.6052 30.9035 31.6052 31.0252C31.6052 31.1469 31.5815 31.2675 31.5355 31.3796C31.4207 31.6497 31.2504 31.8914 31.0364 32.0885C30.7752 32.3392 30.4921 32.5649 30.1906 32.7629L31.2648 33.3939L30.3682 33.9126L29.2856 33.2729C28.7162 33.5658 28.1285 33.8199 27.5263 34.0336C26.9293 34.2478 26.3189 34.4211 25.6993 34.5524L25.1156 33.1173C25.4202 33.0567 25.7332 32.979 26.0461 32.9012C26.359 32.8234 26.6127 32.7455 26.9427 32.6331C27.2753 32.5442 27.6005 32.4286 27.9153 32.2873L27.0695 31.8292C26.7989 31.9416 26.5113 32.0453 26.2237 32.1405C25.8269 32.2777 25.4231 32.393 25.0142 32.4862C24.6895 32.5678 24.3583 32.6199 24.0246 32.6418C23.7409 32.6561 23.4566 32.6328 23.1787 32.5726C22.9235 32.5118 22.6784 32.4128 22.4514 32.2788C22.1833 32.1424 21.9598 31.9291 21.8085 31.6649C21.7018 31.4517 21.6719 31.2069 21.724 30.9734C21.7894 30.7026 21.9203 30.4529 22.1045 30.2471C22.3349 29.9821 22.5962 29.7469 22.8827 29.547L21.9946 29.0197L22.9166 28.5269L23.8216 29.0628C24.0971 28.9268 24.3794 28.8056 24.6674 28.6998C24.9466 28.5961 25.2256 28.4923 25.5132 28.4058L26.2998 28.1724L27.0019 27.9822L27.4417 29.3394ZM24.4475 30.7918C24.5495 30.844 24.664 30.865 24.7774 30.8523C24.9443 30.837 25.1088 30.8021 25.2679 30.7486L24.5998 30.351C24.329 30.5411 24.2784 30.6881 24.4475 30.7918ZM28.6766 31.518C28.5698 31.4619 28.4479 31.4436 28.3298 31.4661C28.1522 31.4879 27.9767 31.5255 27.8054 31.5784L28.4651 31.9675C28.581 31.8998 28.6795 31.805 28.7527 31.6908C28.7679 31.661 28.771 31.6262 28.7616 31.5939C28.7521 31.5617 28.7308 31.5344 28.7019 31.518H28.6766Z" fill="url(#paint55_linear_1_3)"/>
</g>
<path d="M27.4417 29.0024C27.1848 29.0484 26.9307 29.1091 26.6805 29.184C26.4521 29.2359 26.2068 29.3136 25.9446 29.4001C25.6824 29.4865 25.4371 29.5817 25.2003 29.6854L25.9953 30.1523L26.2576 30.0571L26.5451 29.9534C27.0019 29.7978 27.3909 29.6594 27.8224 29.5471C28.1905 29.4422 28.5669 29.3699 28.9472 29.331C29.2809 29.2788 29.6202 29.2788 29.9538 29.331C30.2765 29.3878 30.5861 29.5051 30.8672 29.6767C31.1564 29.8121 31.3919 30.0438 31.5355 30.3337C31.5815 30.446 31.6052 30.5664 31.6052 30.6882C31.6052 30.8099 31.5815 30.9305 31.5355 31.0426C31.4207 31.3127 31.2504 31.5544 31.0364 31.7515C30.7752 32.0022 30.4921 32.2279 30.1906 32.4259L31.2648 33.057L30.3682 33.5756L29.2856 32.9359C28.7162 33.2288 28.1285 33.4829 27.5263 33.6966C26.9293 33.9108 26.3189 34.0841 25.6993 34.2154L25.1156 32.8494C25.4202 32.7889 25.7332 32.7111 26.0461 32.6333C26.359 32.5555 26.6127 32.4777 26.9427 32.3653C27.2762 32.2651 27.6016 32.138 27.9153 31.9849L27.0695 31.4922C26.7989 31.6046 26.5113 31.7083 26.2237 31.8034C25.8269 31.9407 25.4231 32.056 25.0142 32.1491C24.6895 32.231 24.3583 32.2829 24.0246 32.3048C23.7409 32.3191 23.4566 32.2958 23.1787 32.2356C22.9235 32.1748 22.6784 32.0758 22.4514 31.9417C22.1833 31.8053 21.9598 31.5921 21.8085 31.3279C21.7018 31.1147 21.6719 30.8698 21.724 30.6364C21.7894 30.3656 21.9203 30.1159 22.1045 29.9101C22.3302 29.6402 22.5922 29.4045 22.8827 29.2099L21.9946 28.6825L22.8827 28.1552L23.7877 28.6912C24.0633 28.5552 24.3456 28.434 24.6335 28.3282C24.9127 28.2245 25.1918 28.1206 25.4795 28.0342L26.266 27.8007L26.968 27.6106L27.4417 29.0024ZM24.4475 30.4548C24.5495 30.507 24.664 30.528 24.7774 30.5153C24.9443 30.5 25.1088 30.4651 25.2679 30.4116L24.5998 30.0139C24.329 30.2041 24.2784 30.3511 24.4475 30.4548ZM28.6766 31.181C28.5698 31.1249 28.4479 31.1066 28.3298 31.129C28.1522 31.1509 27.9767 31.1885 27.8054 31.2414L28.4651 31.6305C28.581 31.5627 28.6795 31.468 28.7527 31.3538C28.7679 31.324 28.771 31.2892 28.7616 31.2569C28.7521 31.2247 28.7308 31.1974 28.7019 31.181H28.6766Z" fill="url(#paint56_linear_1_3)"/>
<path style="mix-blend-mode:color-dodge" d="M27.4417 29.0024C27.1848 29.0484 26.9307 29.1091 26.6805 29.184C26.4521 29.2359 26.2068 29.3136 25.9446 29.4001C25.6824 29.4865 25.4371 29.5817 25.2003 29.6854L25.9953 30.1523L26.2576 30.0571L26.5451 29.9534C27.0019 29.7978 27.3909 29.6594 27.8224 29.5471C28.1905 29.4422 28.5669 29.3699 28.9472 29.331C29.2809 29.2788 29.6202 29.2788 29.9538 29.331C30.2765 29.3878 30.5861 29.5051 30.8672 29.6767C31.1564 29.8121 31.3919 30.0438 31.5355 30.3337C31.5815 30.446 31.6052 30.5664 31.6052 30.6882C31.6052 30.8099 31.5815 30.9305 31.5355 31.0426C31.4207 31.3127 31.2504 31.5544 31.0364 31.7515C30.7752 32.0022 30.4921 32.2279 30.1906 32.4259L31.2648 33.057L30.3682 33.5756L29.2856 32.9359C28.7162 33.2288 28.1285 33.4829 27.5263 33.6966C26.9293 33.9108 26.3189 34.0841 25.6993 34.2154L25.1156 32.8494C25.4202 32.7889 25.7332 32.7111 26.0461 32.6333C26.359 32.5555 26.6127 32.4777 26.9427 32.3653C27.2762 32.2651 27.6016 32.138 27.9153 31.9849L27.0695 31.4922C26.7989 31.6046 26.5113 31.7083 26.2237 31.8034C25.8269 31.9407 25.4231 32.056 25.0142 32.1491C24.6895 32.231 24.3583 32.2829 24.0246 32.3048C23.7409 32.3191 23.4566 32.2958 23.1787 32.2356C22.9235 32.1748 22.6784 32.0758 22.4514 31.9417C22.1833 31.8053 21.9598 31.5921 21.8085 31.3279C21.7018 31.1147 21.6719 30.8698 21.724 30.6364C21.7894 30.3656 21.9203 30.1159 22.1045 29.9101C22.3302 29.6402 22.5922 29.4045 22.8827 29.2099L21.9946 28.6825L22.8827 28.1552L23.7877 28.6912C24.0633 28.5552 24.3456 28.434 24.6335 28.3282C24.9127 28.2245 25.1918 28.1206 25.4795 28.0342L26.266 27.8007L26.968 27.6106L27.4417 29.0024ZM24.4475 30.4548C24.5495 30.507 24.664 30.528 24.7774 30.5153C24.9443 30.5 25.1088 30.4651 25.2679 30.4116L24.5998 30.0139C24.329 30.2041 24.2784 30.3511 24.4475 30.4548ZM28.6766 31.181C28.5698 31.1249 28.4479 31.1066 28.3298 31.129C28.1522 31.1509 27.9767 31.1885 27.8054 31.2414L28.4651 31.6305C28.581 31.5627 28.6795 31.468 28.7527 31.3538C28.7679 31.324 28.771 31.2892 28.7616 31.2569C28.7521 31.2247 28.7308 31.1974 28.7019 31.181H28.6766Z" fill="url(#paint57_radial_1_3)"/>
<path d="M39.9175 26.8583H13.435V30.6794V30.7918C13.435 35.1143 19.3557 38.676 26.6805 38.676C34.0053 38.676 39.9175 35.1402 39.9175 30.7918V30.6794V26.8583Z" fill="url(#paint58_linear_1_3)"/>
<g style="mix-blend-mode:multiply">
<path style="mix-blend-mode:multiply" d="M26.6805 37.8287C19.3642 37.8287 13.435 34.3016 13.435 29.9446V30.6794V30.7918C13.435 35.1143 19.3557 38.6759 26.6805 38.6759C34.0053 38.6759 39.9175 35.1402 39.9175 30.7918V30.6794V29.9446C39.9175 34.3016 33.9884 37.8287 26.6805 37.8287Z" fill="url(#paint59_linear_1_3)"/>
</g>
<g style="mix-blend-mode:multiply">
<g style="mix-blend-mode:multiply">
<g style="mix-blend-mode:multiply">
<path d="M30.7322 38.2965L31.1043 38.2101V28.1992H30.7322V38.2965Z" fill="#FDD65B"/>
</g>
</g>
<g style="mix-blend-mode:multiply">
<g style="mix-blend-mode:multiply">
<path d="M32.3986 37.8902L32.7707 37.7865V28.1992H32.3986V37.8902Z" fill="#FDD65B"/>
</g>
</g>
<g style="mix-blend-mode:multiply">
<g style="mix-blend-mode:multiply">
<path d="M34.0647 37.3369L34.4369 37.1726V28.1992H34.0647V37.3369Z" fill="#FDD65B"/>
</g>
</g>
<g style="mix-blend-mode:multiply">
<g style="mix-blend-mode:multiply">
<path d="M29.0661 38.5385H29.4382V28.1992H29.0661V38.5385Z" fill="#FDD65B"/>
</g>
</g>
<g style="mix-blend-mode:multiply">
<g style="mix-blend-mode:multiply">
<path d="M37.3889 35.4421C37.5157 35.3384 37.6427 35.2346 37.761 35.1222V28.2063H37.3889V35.4421Z" fill="#FDD65B"/>
</g>
</g>
<g style="mix-blend-mode:multiply">
<g style="mix-blend-mode:multiply">
<path d="M39.055 33.5764C39.1904 33.3614 39.3147 33.1391 39.4272 32.9108V28.1992H39.055V33.5764Z" fill="#FDD65B"/>
</g>
</g>
<g style="mix-blend-mode:multiply">
<g style="mix-blend-mode:multiply">
<path d="M35.7225 36.533C35.8494 36.4637 35.9763 36.4032 36.0947 36.3254V28.1992H35.7225V36.533Z" fill="#FDD65B"/>
</g>
</g>
<g style="mix-blend-mode:multiply">
<g style="mix-blend-mode:multiply">
<path d="M27.4081 38.6509H27.7803V28.1992H27.4081V38.6509Z" fill="#FDD65B"/>
</g>
</g>
<g style="mix-blend-mode:multiply">
<g style="mix-blend-mode:multiply">
<path d="M25.742 38.6422H26.1141V28.1992H25.742V38.6422Z" fill="#FDD65B"/>
</g>
</g>
<g style="mix-blend-mode:multiply">
<g style="mix-blend-mode:multiply">
<path d="M22.4178 38.2534L22.79 38.3311V28.1992H22.4178V38.2534Z" fill="#FDD65B"/>
</g>
</g>
<g style="mix-blend-mode:multiply">
<g style="mix-blend-mode:multiply">
<path d="M24.0756 38.5206H24.4477V28.1467H24.0756V38.5206Z" fill="#FDD65B"/>
</g>
</g>
<g style="mix-blend-mode:multiply">
<g style="mix-blend-mode:multiply">
<path d="M20.7517 37.8297L21.1238 37.942V28.1992H20.7517V37.8297Z" fill="#FDD65B"/>
</g>
</g>
<g style="mix-blend-mode:multiply">
<g style="mix-blend-mode:multiply">
<path d="M14.095 33.2479C14.2049 33.4557 14.3294 33.655 14.4672 33.8444V28.1992H14.095V33.2479Z" fill="#FDD65B"/>
</g>
</g>
<g style="mix-blend-mode:multiply">
<g style="mix-blend-mode:multiply">
<path d="M15.7611 35.2535L16.1333 35.5475V28.1992H15.7611V35.2535Z" fill="#FDD65B"/>
</g>
</g>
<g style="mix-blend-mode:multiply">
<g style="mix-blend-mode:multiply">
<path d="M19.0853 37.2418L19.4574 37.3974V28.1992H19.0853V37.2418Z" fill="#FDD65B"/>
</g>
</g>
<g style="mix-blend-mode:multiply">
<g style="mix-blend-mode:multiply">
<path d="M17.4191 36.4293L17.7912 36.6281V28.1992H17.4191V36.4293Z" fill="#FDD65B"/>
</g>
</g>
</g>
<path d="M26.6805 34.8031C33.9958 34.8031 39.9259 31.2732 39.9259 26.919C39.9259 22.5647 33.9958 19.0349 26.6805 19.0349C19.3651 19.0349 13.435 22.5647 13.435 26.919C13.435 31.2732 19.3651 34.8031 26.6805 34.8031Z" fill="url(#paint60_linear_1_3)"/>
<path style="mix-blend-mode:screen" d="M26.6805 34.5783C19.5164 34.5783 13.6971 31.1983 13.4519 26.9709C13.4519 27.0659 13.4519 27.1524 13.4519 27.2475C13.4519 31.5699 19.3726 35.1316 26.6974 35.1316C34.0222 35.1316 39.9345 31.5959 39.9345 27.2475C39.9345 27.1524 39.9345 27.0659 39.9345 26.9709C39.6553 31.2068 33.8361 34.5783 26.6805 34.5783Z" fill="url(#paint61_radial_1_3)"/>
<path d="M36.5766 26.919C36.5766 30.1695 32.1445 32.8494 26.6805 32.8494C21.2165 32.8494 16.7759 30.1695 16.7759 26.919C16.7759 23.6686 21.208 21.0232 26.6805 21.0232C32.1529 21.0232 36.5766 23.6599 36.5766 26.919Z" fill="url(#paint62_linear_1_3)"/>
<path style="mix-blend-mode:screen" d="M27.0103 21.317C32.2967 21.317 36.6019 23.7895 36.8811 26.893C36.8811 26.7892 36.8811 26.6855 36.8811 26.5818C36.8811 23.3226 32.449 20.6859 26.985 20.6859C21.521 20.6859 17.1058 23.34 17.1058 26.5818C17.1058 26.6855 17.1058 26.7892 17.1058 26.893C17.4103 23.7895 21.7155 21.317 27.0103 21.317Z" fill="url(#paint63_radial_1_3)"/>
<path style="mix-blend-mode:multiply" d="M26.6806 21.6543C31.967 21.6543 36.2722 24.1267 36.5513 27.2302C36.5513 27.1265 36.5513 27.0228 36.5513 26.919C36.5513 23.6599 32.1192 21.0232 26.6552 21.0232C21.1912 21.0232 16.7507 23.6599 16.7507 26.919C16.7507 27.0228 16.7507 27.1265 16.7507 27.2302C17.0806 24.1267 21.3857 21.6543 26.6806 21.6543Z" fill="url(#paint64_linear_1_3)"/>
<g style="mix-blend-mode:multiply">
<path style="mix-blend-mode:multiply" d="M27.4417 25.0689C27.1964 25.1121 26.9427 25.1726 26.6805 25.2418C26.4182 25.3109 26.2068 25.3802 25.9446 25.4666C25.6824 25.5531 25.4371 25.6481 25.2003 25.7519L25.9953 26.2186L26.2576 26.1236L26.5451 26.0198C27.0019 25.8556 27.3909 25.726 27.8224 25.6136C28.1914 25.5102 28.5674 25.4351 28.9472 25.3888C29.2811 25.3408 29.62 25.3408 29.9538 25.3888C30.2761 25.4425 30.5858 25.5567 30.8672 25.726C31.1554 25.8668 31.3903 26.1007 31.5355 26.3916C31.5815 26.5038 31.6052 26.6243 31.6052 26.7461C31.6052 26.8677 31.5815 26.9882 31.5355 27.1004C31.4184 27.3692 31.2486 27.6105 31.0364 27.8093C30.7771 28.0597 30.4938 28.2827 30.1906 28.475L31.2648 29.106L30.3682 29.6334L29.2856 28.9936C28.7146 29.283 28.1271 29.5371 27.5263 29.7545C26.9293 29.9686 26.3189 30.1419 25.6993 30.2731L25.1156 28.8294L26.0461 28.622C26.3168 28.5528 26.6127 28.4577 26.9427 28.354C27.2738 28.2637 27.5988 28.1511 27.9153 28.0168L27.0695 27.5586L26.2237 27.8698C25.8269 28.0071 25.4231 28.1225 25.0142 28.2157C24.6901 28.2989 24.3585 28.3482 24.0246 28.3626C23.7413 28.384 23.4565 28.3636 23.1787 28.3021C22.9235 28.2412 22.6784 28.1422 22.4514 28.0081C22.1849 27.8694 21.9621 27.6567 21.8085 27.3944C21.7018 27.1812 21.6719 26.9363 21.724 26.7028C21.7894 26.432 21.9203 26.1824 22.1045 25.9766C22.3321 25.7061 22.5938 25.4678 22.8827 25.2678L21.9946 24.749L22.9166 24.2044L23.8216 24.7318C24.0973 24.5985 24.3796 24.4802 24.6674 24.3773C24.9466 24.2736 25.2256 24.1699 25.5132 24.0835L26.2998 23.85L27.0019 23.6599L27.4417 25.0689ZM24.4475 26.5126C24.5473 26.5715 24.6629 26.5957 24.7774 26.5817C24.9437 26.5586 25.1078 26.5211 25.2679 26.4693L24.5998 26.0803C24.329 26.2705 24.2784 26.4175 24.4475 26.5126ZM28.6766 27.2387C28.5676 27.1901 28.447 27.175 28.3298 27.1956C28.1522 27.2173 27.9767 27.2549 27.8054 27.3079L28.4651 27.6882C28.58 27.6231 28.6785 27.5313 28.7527 27.4203C28.8035 27.3426 28.7611 27.2906 28.7019 27.2387H28.6766Z" fill="url(#paint65_linear_1_3)"/>
</g>
<path d="M27.4417 24.7319C27.1964 24.7751 26.9427 24.8356 26.6804 24.9047C26.4182 24.9739 26.2067 25.0345 25.9446 25.1296C25.6824 25.2246 25.437 25.3111 25.2003 25.4149L25.9953 25.8816L26.2575 25.7866L26.5451 25.6828C27.0019 25.5186 27.3909 25.3888 27.8222 25.2765C28.1917 25.1791 28.5677 25.1097 28.9472 25.0691C29.2811 25.021 29.6199 25.021 29.9538 25.0691C30.276 25.1227 30.5858 25.237 30.8672 25.4062C31.1554 25.5471 31.3902 25.781 31.5354 26.0719C31.5815 26.184 31.6052 26.3046 31.6052 26.4263C31.6052 26.5481 31.5815 26.6685 31.5354 26.7808C31.4184 27.0495 31.2485 27.2908 31.0364 27.4897C30.777 27.74 30.4936 27.9631 30.1906 28.1552L31.2648 28.7863L30.3682 29.3138L29.2856 28.674C28.7145 28.9633 28.1271 29.2174 27.5262 29.4348C26.9292 29.649 26.3189 29.8222 25.6993 29.9534L25.1156 28.527L26.0461 28.3196C26.3167 28.2504 26.6127 28.1552 26.9427 28.0515C27.275 27.9444 27.6 27.8144 27.9153 27.6626L27.0695 27.2216L26.2237 27.5328C25.7838 27.6798 25.3778 27.7922 25.0141 27.8786C24.6901 27.962 24.3585 28.0112 24.0246 28.0256C23.7412 28.047 23.4563 28.0267 23.1787 27.9651C22.9235 27.9042 22.6783 27.8051 22.4514 27.6711C22.1849 27.5325 21.962 27.3197 21.8085 27.0574C21.7012 26.8412 21.6712 26.5935 21.724 26.3572C21.7917 26.0872 21.9222 25.8381 22.1045 25.631C22.3349 25.3658 22.5962 25.1307 22.8827 24.9308L21.9946 24.4034L22.8827 23.8846L23.7877 24.412C24.0634 24.2787 24.3457 24.1604 24.6335 24.0575C24.9127 23.9538 25.1917 23.85 25.4793 23.7636L26.2659 23.5303L26.968 23.34L27.4417 24.7319ZM24.4475 26.1756C24.5472 26.2345 24.6629 26.2587 24.7773 26.2447C24.9437 26.2216 25.1078 26.184 25.2679 26.1323L24.5996 25.7433C24.329 25.9335 24.2783 26.0805 24.4475 26.1756ZM28.6765 26.9017C28.5676 26.8531 28.447 26.838 28.3298 26.8586C28.1514 26.8762 27.9755 26.9138 27.8054 26.9709L28.4651 27.3514C28.58 27.2861 28.6785 27.1943 28.7527 27.0833C28.8035 27.0055 28.7611 26.9537 28.7019 26.9017H28.6765Z" fill="url(#paint66_linear_1_3)"/>
<path style="mix-blend-mode:color-dodge" d="M27.4417 24.7319C27.1964 24.7751 26.9427 24.8356 26.6804 24.9047C26.4182 24.9739 26.2067 25.0345 25.9446 25.1296C25.6824 25.2246 25.437 25.3111 25.2003 25.4149L25.9953 25.8816L26.2575 25.7866L26.5451 25.6828C27.0019 25.5186 27.3909 25.3888 27.8222 25.2765C28.1917 25.1791 28.5677 25.1097 28.9472 25.0691C29.2811 25.021 29.6199 25.021 29.9538 25.0691C30.276 25.1227 30.5858 25.237 30.8672 25.4062C31.1554 25.5471 31.3902 25.781 31.5354 26.0719C31.5815 26.184 31.6052 26.3046 31.6052 26.4263C31.6052 26.5481 31.5815 26.6685 31.5354 26.7808C31.4184 27.0495 31.2485 27.2908 31.0364 27.4897C30.777 27.74 30.4936 27.9631 30.1906 28.1552L31.2648 28.7863L30.3682 29.3138L29.2856 28.674C28.7145 28.9633 28.1271 29.2174 27.5262 29.4348C26.9292 29.649 26.3189 29.8222 25.6993 29.9534L25.1156 28.527L26.0461 28.3196C26.3167 28.2504 26.6127 28.1552 26.9427 28.0515C27.275 27.9444 27.6 27.8144 27.9153 27.6626L27.0695 27.2216L26.2237 27.5328C25.7838 27.6798 25.3778 27.7922 25.0141 27.8786C24.6901 27.962 24.3585 28.0112 24.0246 28.0256C23.7412 28.047 23.4563 28.0267 23.1787 27.9651C22.9235 27.9042 22.6783 27.8051 22.4514 27.6711C22.1849 27.5325 21.962 27.3197 21.8085 27.0574C21.7012 26.8412 21.6712 26.5935 21.724 26.3572C21.7917 26.0872 21.9222 25.8381 22.1045 25.631C22.3349 25.3658 22.5962 25.1307 22.8827 24.9308L21.9946 24.4034L22.8827 23.8846L23.7877 24.412C24.0634 24.2787 24.3457 24.1604 24.6335 24.0575C24.9127 23.9538 25.1917 23.85 25.4793 23.7636L26.2659 23.5303L26.968 23.34L27.4417 24.7319ZM24.4475 26.1756C24.5472 26.2345 24.6629 26.2587 24.7773 26.2447C24.9437 26.2216 25.1078 26.184 25.2679 26.1323L24.5996 25.7433C24.329 25.9335 24.2783 26.0805 24.4475 26.1756ZM28.6765 26.9017C28.5676 26.8531 28.447 26.838 28.3298 26.8586C28.1514 26.8762 27.9755 26.9138 27.8054 26.9709L28.4651 27.3514C28.58 27.2861 28.6785 27.1943 28.7527 27.0833C28.8035 27.0055 28.7611 26.9537 28.7019 26.9017H28.6765Z" fill="url(#paint67_radial_1_3)"/>
</g>
<defs>
<linearGradient id="paint0_linear_1_3" x1="0.130182" y1="27.3599" x2="26.1983" y2="27.3599" gradientUnits="userSpaceOnUse">
<stop stop-color="#FFBB96"/>
<stop offset="0.23" stop-color="#FFFBC9"/>
<stop offset="0.54" stop-color="#F9B673"/>
<stop offset="0.64" stop-color="#F9B876"/>
<stop offset="0.72" stop-color="#FABE81"/>
<stop offset="0.81" stop-color="#FCC993"/>
<stop offset="0.86" stop-color="#FED2A3"/>
<stop offset="0.97" stop-color="#FFC28C"/>
</linearGradient>
<linearGradient id="paint1_linear_1_3" x1="7.53393e-05" y1="27.7494" x2="0.000109903" y2="27.7494" gradientUnits="userSpaceOnUse">
<stop stop-color="#FFBB96"/>
<stop offset="0.23" stop-color="#FFFBC9"/>
<stop offset="0.54" stop-color="#F9B673"/>
<stop offset="0.64" stop-color="#F9B876"/>
<stop offset="0.72" stop-color="#FABE81"/>
<stop offset="0.81" stop-color="#FCC993"/>
<stop offset="0.86" stop-color="#FED2A3"/>
<stop offset="0.97" stop-color="#FFC28C"/>
</linearGradient>
<linearGradient id="paint2_linear_1_3" x1="3.97409" y1="316.229" x2="820.532" y2="316.229" gradientUnits="userSpaceOnUse">
<stop stop-color="#FFBB96"/>
<stop offset="0.23" stop-color="#FFFBC9"/>
<stop offset="0.54" stop-color="#F9B673"/>
<stop offset="0.64" stop-color="#F9B876"/>
<stop offset="0.72" stop-color="#FABE81"/>
<stop offset="0.81" stop-color="#FCC993"/>
<stop offset="0.86" stop-color="#FED2A3"/>
<stop offset="0.97" stop-color="#FFC28C"/>
</linearGradient>
<linearGradient id="paint3_linear_1_3" x1="37.7189" y1="-3.65791" x2="11.2424" y2="22.4076" gradientUnits="userSpaceOnUse">
<stop offset="0.04" stop-color="#FFBA78"/>
<stop offset="0.4" stop-color="#FFC987"/>
<stop offset="1" stop-color="#FEECA8"/>
</linearGradient>
<radialGradient id="paint4_radial_1_3" cx="0" cy="0" r="1" gradientUnits="userSpaceOnUse" gradientTransform="translate(7.5565 27.3081) scale(16.6456 17.0133)">
<stop stop-color="white"/>
<stop offset="1"/>
</radialGradient>
<linearGradient id="paint5_linear_1_3" x1="561.362" y1="159.607" x2="324.802" y2="558.886" gradientUnits="userSpaceOnUse">
<stop offset="0.04" stop-color="#FFBA78"/>
<stop offset="0.4" stop-color="#FFC987"/>
<stop offset="1" stop-color="#FEECA8"/>
</linearGradient>
<radialGradient id="paint6_radial_1_3" cx="0" cy="0" r="1" gradientUnits="userSpaceOnUse" gradientTransform="translate(422.448 123.409) scale(171.31 53.753)">
<stop stop-color="white"/>
<stop offset="1"/>
</radialGradient>
<linearGradient id="paint7_linear_1_3" x1="644.124" y1="60.497" x2="567.763" y2="304.913" gradientUnits="userSpaceOnUse">
<stop stop-color="#FFBB96"/>
<stop offset="0.23" stop-color="#FFFBC9"/>
<stop offset="0.54" stop-color="#F9B673"/>
<stop offset="0.64" stop-color="#F9B876"/>
<stop offset="0.72" stop-color="#FABE81"/>
<stop offset="0.81" stop-color="#FCC993"/>
<stop offset="0.86" stop-color="#FED2A3"/>
<stop offset="0.97" stop-color="#FFC28C"/>
</linearGradient>
<radialGradient id="paint8_radial_1_3" cx="0" cy="0" r="1" gradientUnits="userSpaceOnUse" gradientTransform="translate(14.272 23.4604) rotate(-70.739) scale(2.8487 5.77886)">
<stop stop-color="#F49587"/>
<stop offset="0.12" stop-color="#BD7368"/>
<stop offset="0.24" stop-color="#8B554D"/>
<stop offset="0.36" stop-color="#603B35"/>
<stop offset="0.48" stop-color="#3E2622"/>
<stop offset="0.61" stop-color="#231513"/>
<stop offset="0.74" stop-color="#0F0908"/>
<stop offset="0.86" stop-color="#040202"/>
<stop offset="1"/>
</radialGradient>
<linearGradient id="paint9_linear_1_3" x1="104.78" y1="183.814" x2="219.501" y2="183.814" gradientUnits="userSpaceOnUse">
<stop stop-color="#FFBB96"/>
<stop offset="0.23" stop-color="#FFFBC9"/>
<stop offset="0.54" stop-color="#F9B673"/>
<stop offset="0.64" stop-color="#F9B876"/>
<stop offset="0.72" stop-color="#FABE81"/>
<stop offset="0.81" stop-color="#FCC993"/>
<stop offset="0.86" stop-color="#FED2A3"/>
<stop offset="0.97" stop-color="#FFC28C"/>
</linearGradient>
<linearGradient id="paint10_linear_1_3" x1="275.212" y1="138.306" x2="198.85" y2="200.656" gradientUnits="userSpaceOnUse">
<stop offset="0.04" stop-color="#FFBA78"/>
<stop offset="0.4" stop-color="#FFC987"/>
<stop offset="1" stop-color="#FEECA8"/>
</linearGradient>
<radialGradient id="paint11_radial_1_3" cx="0" cy="0" r="1" gradientUnits="userSpaceOnUse" gradientTransform="translate(83.8133 184.945) scale(102.894 68.7725)">
<stop stop-color="#F49587"/>
<stop offset="0.12" stop-color="#BD7368"/>
<stop offset="0.24" stop-color="#8B554D"/>
<stop offset="0.36" stop-color="#603B35"/>
<stop offset="0.48" stop-color="#3E2622"/>
<stop offset="0.61" stop-color="#231513"/>
<stop offset="0.74" stop-color="#0F0908"/>
<stop offset="0.86" stop-color="#040202"/>
<stop offset="1"/>
</radialGradient>
<linearGradient id="paint12_linear_1_3" x1="3.9745" y1="332.6" x2="820.526" y2="332.6" gradientUnits="userSpaceOnUse">
<stop stop-color="#FFBB96"/>
<stop offset="0.23" stop-color="#FFFBC9"/>
<stop offset="0.54" stop-color="#F9B673"/>
<stop offset="0.64" stop-color="#F9B876"/>
<stop offset="0.72" stop-color="#FABE81"/>
<stop offset="0.81" stop-color="#FCC993"/>
<stop offset="0.86" stop-color="#FED2A3"/>
<stop offset="0.97" stop-color="#FFC28C"/>
</linearGradient>
<linearGradient id="paint13_linear_1_3" x1="7.53396e-05" y1="23.1915" x2="0.000110174" y2="23.1915" gradientUnits="userSpaceOnUse">
<stop stop-color="#FFBB96"/>
<stop offset="0.23" stop-color="#FFFBC9"/>
<stop offset="0.54" stop-color="#F9B673"/>
<stop offset="0.64" stop-color="#F9B876"/>
<stop offset="0.72" stop-color="#FABE81"/>
<stop offset="0.81" stop-color="#FCC993"/>
<stop offset="0.86" stop-color="#FED2A3"/>
<stop offset="0.97" stop-color="#FFC28C"/>
</linearGradient>
<linearGradient id="paint14_linear_1_3" x1="3.97432" y1="268.87" x2="820.525" y2="268.87" gradientUnits="userSpaceOnUse">
<stop stop-color="#FFBB96"/>
<stop offset="0.23" stop-color="#FFFBC9"/>
<stop offset="0.54" stop-color="#F9B673"/>
<stop offset="0.64" stop-color="#F9B876"/>
<stop offset="0.72" stop-color="#FABE81"/>
<stop offset="0.81" stop-color="#FCC993"/>
<stop offset="0.86" stop-color="#FED2A3"/>
<stop offset="0.97" stop-color="#FFC28C"/>
</linearGradient>
<linearGradient id="paint15_linear_1_3" x1="1181.24" y1="-135.243" x2="757.935" y2="580.33" gradientUnits="userSpaceOnUse">
<stop offset="0.04" stop-color="#FFBA78"/>
<stop offset="0.4" stop-color="#FFC987"/>
<stop offset="1" stop-color="#FEECA8"/>
</linearGradient>
<radialGradient id="paint16_radial_1_3" cx="0" cy="0" r="1" gradientUnits="userSpaceOnUse" gradientTransform="translate(236.569 234.544) scale(521.344 160.435)">
<stop stop-color="white"/>
<stop offset="1"/>
</radialGradient>
<linearGradient id="paint17_linear_1_3" x1="561.362" y1="97.1299" x2="324.799" y2="496.411" gradientUnits="userSpaceOnUse">
<stop offset="0.04" stop-color="#FFBA78"/>
<stop offset="0.4" stop-color="#FFC987"/>
<stop offset="1" stop-color="#FEECA8"/>
</linearGradient>
<radialGradient id="paint18_radial_1_3" cx="0" cy="0" r="1" gradientUnits="userSpaceOnUse" gradientTransform="translate(422.961 88.4136) scale(171.531 53.7525)">
<stop stop-color="white"/>
<stop offset="1"/>
</radialGradient>
<linearGradient id="paint19_linear_1_3" x1="644.124" y1="25.5638" x2="567.734" y2="269.961" gradientUnits="userSpaceOnUse">
<stop stop-color="#FFBB96"/>
<stop offset="0.23" stop-color="#FFFBC9"/>
<stop offset="0.54" stop-color="#F9B673"/>
<stop offset="0.64" stop-color="#F9B876"/>
<stop offset="0.72" stop-color="#FABE81"/>
<stop offset="0.81" stop-color="#FCC993"/>
<stop offset="0.86" stop-color="#FED2A3"/>
<stop offset="0.97" stop-color="#FFC28C"/>
</linearGradient>
<radialGradient id="paint20_radial_1_3" cx="0" cy="0" r="1" gradientUnits="userSpaceOnUse" gradientTransform="translate(165428 -61420) scale(242.876 146.709)">
<stop stop-color="#F49587"/>
<stop offset="0.12" stop-color="#BD7368"/>
<stop offset="0.24" stop-color="#8B554D"/>
<stop offset="0.36" stop-color="#603B35"/>
<stop offset="0.48" stop-color="#3E2622"/>
<stop offset="0.61" stop-color="#231513"/>
<stop offset="0.74" stop-color="#0F0908"/>
<stop offset="0.86" stop-color="#040202"/>
<stop offset="1"/>
</radialGradient>
<linearGradient id="paint21_linear_1_3" x1="104.786" y1="146.953" x2="219.514" y2="146.953" gradientUnits="userSpaceOnUse">
<stop stop-color="#FFBB96"/>
<stop offset="0.23" stop-color="#FFFBC9"/>
<stop offset="0.54" stop-color="#F9B673"/>
<stop offset="0.64" stop-color="#F9B876"/>
<stop offset="0.72" stop-color="#FABE81"/>
<stop offset="0.81" stop-color="#FCC993"/>
<stop offset="0.86" stop-color="#FED2A3"/>
<stop offset="0.97" stop-color="#FFC28C"/>
</linearGradient>
<linearGradient id="paint22_linear_1_3" x1="274.569" y1="102.275" x2="197.689" y2="164.32" gradientUnits="userSpaceOnUse">
<stop offset="0.04" stop-color="#FFBA78"/>
<stop offset="0.4" stop-color="#FFC987"/>
<stop offset="1" stop-color="#FEECA8"/>
</linearGradient>
<radialGradient id="paint23_radial_1_3" cx="0" cy="0" r="1" gradientUnits="userSpaceOnUse" gradientTransform="translate(83.6488 149.343) scale(102.637 69.4048)">
<stop stop-color="#F49587"/>
<stop offset="0.12" stop-color="#BD7368"/>
<stop offset="0.24" stop-color="#8B554D"/>
<stop offset="0.36" stop-color="#603B35"/>
<stop offset="0.48" stop-color="#3E2622"/>
<stop offset="0.61" stop-color="#231513"/>
<stop offset="0.74" stop-color="#0F0908"/>
<stop offset="0.86" stop-color="#040202"/>
<stop offset="1"/>
</radialGradient>
<linearGradient id="paint24_linear_1_3" x1="3.9745" y1="266.699" x2="820.526" y2="266.699" gradientUnits="userSpaceOnUse">
<stop stop-color="#FFBB96"/>
<stop offset="0.23" stop-color="#FFFBC9"/>
<stop offset="0.54" stop-color="#F9B673"/>
<stop offset="0.64" stop-color="#F9B876"/>
<stop offset="0.72" stop-color="#FABE81"/>
<stop offset="0.81" stop-color="#FCC993"/>
<stop offset="0.86" stop-color="#FED2A3"/>
<stop offset="0.97" stop-color="#FFC28C"/>
</linearGradient>
<linearGradient id="paint25_linear_1_3" x1="-0.000150681" y1="18.1034" x2="-0.000113147" y2="18.1034" gradientUnits="userSpaceOnUse">
<stop stop-color="#FFBB96"/>
<stop offset="0.23" stop-color="#FFFBC9"/>
<stop offset="0.54" stop-color="#F9B673"/>
<stop offset="0.64" stop-color="#F9B876"/>
<stop offset="0.72" stop-color="#FABE81"/>
<stop offset="0.81" stop-color="#FCC993"/>
<stop offset="0.86" stop-color="#FED2A3"/>
<stop offset="0.97" stop-color="#FFC28C"/>
</linearGradient>
<linearGradient id="paint26_linear_1_3" x1="3.97446" y1="218.925" x2="820.524" y2="218.925" gradientUnits="userSpaceOnUse">
<stop stop-color="#FFBB96"/>
<stop offset="0.23" stop-color="#FFFBC9"/>
<stop offset="0.54" stop-color="#F9B673"/>
<stop offset="0.64" stop-color="#F9B876"/>
<stop offset="0.72" stop-color="#FABE81"/>
<stop offset="0.81" stop-color="#FCC993"/>
<stop offset="0.86" stop-color="#FED2A3"/>
<stop offset="0.97" stop-color="#FFC28C"/>
</linearGradient>
<linearGradient id="paint27_linear_1_3" x1="1181.24" y1="-221.891" x2="758" y2="493.804" gradientUnits="userSpaceOnUse">
<stop offset="0.04" stop-color="#FFBA78"/>
<stop offset="0.4" stop-color="#FFC987"/>
<stop offset="1" stop-color="#FEECA8"/>
</linearGradient>
<radialGradient id="paint28_radial_1_3" cx="0" cy="0" r="1" gradientUnits="userSpaceOnUse" gradientTransform="translate(236.569 187.851) scale(521.344 160.606)">
<stop stop-color="white"/>
<stop offset="1"/>
</radialGradient>
<linearGradient id="paint29_linear_1_3" x1="561.362" y1="31.3722" x2="324.544" y2="430.792" gradientUnits="userSpaceOnUse">
<stop offset="0.04" stop-color="#FFBA78"/>
<stop offset="0.4" stop-color="#FFC987"/>
<stop offset="1" stop-color="#FEECA8"/>
</linearGradient>
<radialGradient id="paint30_radial_1_3" cx="0" cy="0" r="1" gradientUnits="userSpaceOnUse" gradientTransform="translate(422.434 51.696) scale(171.304 53.8272)">
<stop stop-color="white"/>
<stop offset="1"/>
</radialGradient>
<linearGradient id="paint31_linear_1_3" x1="644.104" y1="-11.2418" x2="567.52" y2="233.43" gradientUnits="userSpaceOnUse">
<stop stop-color="#FFBB96"/>
<stop offset="0.23" stop-color="#FFFBC9"/>
<stop offset="0.54" stop-color="#F9B673"/>
<stop offset="0.64" stop-color="#F9B876"/>
<stop offset="0.72" stop-color="#FABE81"/>
<stop offset="0.81" stop-color="#FCC993"/>
<stop offset="0.86" stop-color="#FED2A3"/>
<stop offset="0.97" stop-color="#FFC28C"/>
</linearGradient>
<radialGradient id="paint32_radial_1_3" cx="0" cy="0" r="1" gradientUnits="userSpaceOnUse" gradientTransform="translate(-24311.4 -20218.7) rotate(-71.5783) scale(19.147 76.0595)">
<stop stop-color="#F49587"/>
<stop offset="0.12" stop-color="#BD7368"/>
<stop offset="0.24" stop-color="#8B554D"/>
<stop offset="0.36" stop-color="#603B35"/>
<stop offset="0.48" stop-color="#3E2622"/>
<stop offset="0.61" stop-color="#231513"/>
<stop offset="0.74" stop-color="#0F0908"/>
<stop offset="0.86" stop-color="#040202"/>
<stop offset="1"/>
</radialGradient>
<linearGradient id="paint33_linear_1_3" x1="105.154" y1="107.711" x2="220.37" y2="107.711" gradientUnits="userSpaceOnUse">
<stop stop-color="#FFBB96"/>
<stop offset="0.23" stop-color="#FFFBC9"/>
<stop offset="0.54" stop-color="#F9B673"/>
<stop offset="0.64" stop-color="#F9B876"/>
<stop offset="0.72" stop-color="#FABE81"/>
<stop offset="0.81" stop-color="#FCC993"/>
<stop offset="0.86" stop-color="#FED2A3"/>
<stop offset="0.97" stop-color="#FFC28C"/>
</linearGradient>
<linearGradient id="paint34_linear_1_3" x1="274.555" y1="62.9286" x2="197.993" y2="125.037" gradientUnits="userSpaceOnUse">
<stop offset="0.04" stop-color="#FFBA78"/>
<stop offset="0.4" stop-color="#FFC987"/>
<stop offset="1" stop-color="#FEECA8"/>
</linearGradient>
<radialGradient id="paint35_radial_1_3" cx="0" cy="0" r="1" gradientUnits="userSpaceOnUse" gradientTransform="translate(83.6454 109.684) scale(102.631 69.0428)">
<stop stop-color="#F49587"/>
<stop offset="0.12" stop-color="#BD7368"/>
<stop offset="0.24" stop-color="#8B554D"/>
<stop offset="0.36" stop-color="#603B35"/>
<stop offset="0.48" stop-color="#3E2622"/>
<stop offset="0.61" stop-color="#231513"/>
<stop offset="0.74" stop-color="#0F0908"/>
<stop offset="0.86" stop-color="#040202"/>
<stop offset="1"/>
</radialGradient>
<linearGradient id="paint36_linear_1_3" x1="3.97428" y1="199.915" x2="820.526" y2="199.915" gradientUnits="userSpaceOnUse">
<stop stop-color="#FFBB96"/>
<stop offset="0.23" stop-color="#FFFBC9"/>
<stop offset="0.54" stop-color="#F9B673"/>
<stop offset="0.64" stop-color="#F9B876"/>
<stop offset="0.72" stop-color="#FABE81"/>
<stop offset="0.81" stop-color="#FCC993"/>
<stop offset="0.86" stop-color="#FED2A3"/>
<stop offset="0.97" stop-color="#FFC28C"/>
</linearGradient>
<linearGradient id="paint37_linear_1_3" x1="7.53393e-05" y1="12.8153" x2="0.000109903" y2="12.8153" gradientUnits="userSpaceOnUse">
<stop stop-color="#FFBB96"/>
<stop offset="0.23" stop-color="#FFFBC9"/>
<stop offset="0.54" stop-color="#F9B673"/>
<stop offset="0.64" stop-color="#F9B876"/>
<stop offset="0.72" stop-color="#FABE81"/>
<stop offset="0.81" stop-color="#FCC993"/>
<stop offset="0.86" stop-color="#FED2A3"/>
<stop offset="0.97" stop-color="#FFC28C"/>
</linearGradient>
<linearGradient id="paint38_linear_1_3" x1="3.97426" y1="168.489" x2="820.526" y2="168.489" gradientUnits="userSpaceOnUse">
<stop stop-color="#FFBB96"/>
<stop offset="0.23" stop-color="#FFFBC9"/>
<stop offset="0.54" stop-color="#F9B673"/>
<stop offset="0.64" stop-color="#F9B876"/>
<stop offset="0.72" stop-color="#FABE81"/>
<stop offset="0.81" stop-color="#FCC993"/>
<stop offset="0.86" stop-color="#FED2A3"/>
<stop offset="0.97" stop-color="#FFC28C"/>
</linearGradient>
<linearGradient id="paint39_linear_1_3" x1="1181.24" y1="-309.712" x2="757.932" y2="405.862" gradientUnits="userSpaceOnUse">
<stop offset="0.04" stop-color="#FFBA78"/>
<stop offset="0.4" stop-color="#FFC987"/>
<stop offset="1" stop-color="#FEECA8"/>
</linearGradient>
<radialGradient id="paint40_radial_1_3" cx="0" cy="0" r="1" gradientUnits="userSpaceOnUse" gradientTransform="translate(236.569 140.536) scale(521.344 161.116)">
<stop stop-color="white"/>
<stop offset="1"/>
</radialGradient>
<linearGradient id="paint41_linear_1_3" x1="561.362" y1="-35.5422" x2="324.849" y2="363.828" gradientUnits="userSpaceOnUse">
<stop offset="0.04" stop-color="#FFBA78"/>
<stop offset="0.4" stop-color="#FFC987"/>
<stop offset="1" stop-color="#FEECA8"/>
</linearGradient>
<radialGradient id="paint42_radial_1_3" cx="0" cy="0" r="1" gradientUnits="userSpaceOnUse" gradientTransform="translate(422.442 14.2958) scale(171.308 53.7521)">
<stop stop-color="white"/>
<stop offset="1"/>
</radialGradient>
<linearGradient id="paint43_linear_1_3" x1="644.114" y1="-48.617" x2="567.75" y2="195.801" gradientUnits="userSpaceOnUse">
<stop stop-color="#FFBB96"/>
<stop offset="0.23" stop-color="#FFFBC9"/>
<stop offset="0.54" stop-color="#F9B673"/>
<stop offset="0.64" stop-color="#F9B876"/>
<stop offset="0.72" stop-color="#FABE81"/>
<stop offset="0.81" stop-color="#FCC993"/>
<stop offset="0.86" stop-color="#FED2A3"/>
<stop offset="0.97" stop-color="#FFC28C"/>
</linearGradient>
<linearGradient id="paint44_linear_1_3" x1="104.78" y1="67.8617" x2="219.501" y2="67.8617" gradientUnits="userSpaceOnUse">
<stop stop-color="#FFBB96"/>
<stop offset="0.23" stop-color="#FFFBC9"/>
<stop offset="0.54" stop-color="#F9B673"/>
<stop offset="0.64" stop-color="#F9B876"/>
<stop offset="0.72" stop-color="#FABE81"/>
<stop offset="0.81" stop-color="#FCC993"/>
<stop offset="0.86" stop-color="#FED2A3"/>
<stop offset="0.97" stop-color="#FFC28C"/>
</linearGradient>
<linearGradient id="paint45_linear_1_3" x1="274.552" y1="23.257" x2="198.389" y2="85.447" gradientUnits="userSpaceOnUse">
<stop offset="0.04" stop-color="#FFBA78"/>
<stop offset="0.4" stop-color="#FFC987"/>
<stop offset="1" stop-color="#FEECA8"/>
</linearGradient>
<radialGradient id="paint46_radial_1_3" cx="0" cy="0" r="1" gradientUnits="userSpaceOnUse" gradientTransform="translate(83.6445 69.7732) scale(102.63 68.5917)">
<stop stop-color="#F49587"/>
<stop offset="0.12" stop-color="#BD7368"/>
<stop offset="0.24" stop-color="#8B554D"/>
<stop offset="0.36" stop-color="#603B35"/>
<stop offset="0.48" stop-color="#3E2622"/>
<stop offset="0.61" stop-color="#231513"/>
<stop offset="0.74" stop-color="#0F0908"/>
<stop offset="0.86" stop-color="#040202"/>
<stop offset="1"/>
</radialGradient>
<linearGradient id="paint47_linear_1_3" x1="437.951" y1="537.13" x2="1254.14" y2="537.13" gradientUnits="userSpaceOnUse">
<stop stop-color="#FFBB96"/>
<stop offset="0.23" stop-color="#FFFBC9"/>
<stop offset="0.54" stop-color="#F9B673"/>
<stop offset="0.64" stop-color="#F9B876"/>
<stop offset="0.72" stop-color="#FABE81"/>
<stop offset="0.81" stop-color="#FCC993"/>
<stop offset="0.86" stop-color="#FED2A3"/>
<stop offset="0.97" stop-color="#FFC28C"/>
</linearGradient>
<linearGradient id="paint48_linear_1_3" x1="437.951" y1="423.895" x2="1254.14" y2="423.895" gradientUnits="userSpaceOnUse">
<stop stop-color="#FFBB96"/>
<stop offset="0.23" stop-color="#FFFBC9"/>
<stop offset="0.54" stop-color="#F9B673"/>
<stop offset="0.64" stop-color="#F9B876"/>
<stop offset="0.72" stop-color="#FABE81"/>
<stop offset="0.81" stop-color="#FCC993"/>
<stop offset="0.86" stop-color="#FED2A3"/>
<stop offset="0.97" stop-color="#FFC28C"/>
</linearGradient>
<linearGradient id="paint49_linear_1_3" x1="1615.35" y1="133.052" x2="1192.11" y2="848.744" gradientUnits="userSpaceOnUse">
<stop offset="0.04" stop-color="#FFBA78"/>
<stop offset="0.4" stop-color="#FFC987"/>
<stop offset="1" stop-color="#FEECA8"/>
</linearGradient>
<radialGradient id="paint50_radial_1_3" cx="0" cy="0" r="1" gradientUnits="userSpaceOnUse" gradientTransform="translate(670.485 380.448) scale(521.178 160.604)">
<stop stop-color="white"/>
<stop offset="1"/>
</radialGradient>
<linearGradient id="paint51_linear_1_3" x1="890.38" y1="301.456" x2="653.649" y2="701.404" gradientUnits="userSpaceOnUse">
<stop offset="0.04" stop-color="#FFBA78"/>
<stop offset="0.4" stop-color="#FFC987"/>
<stop offset="1" stop-color="#FEECA8"/>
</linearGradient>
<radialGradient id="paint52_radial_1_3" cx="0" cy="0" r="1" gradientUnits="userSpaceOnUse" gradientTransform="translate(750.694 202.541) scale(171.474 53.7534)">
<stop stop-color="white"/>
<stop offset="1"/>
</radialGradient>
<linearGradient id="paint53_linear_1_3" x1="973.714" y1="139.858" x2="897.387" y2="384.577" gradientUnits="userSpaceOnUse">
<stop stop-color="#FFBB96"/>
<stop offset="0.23" stop-color="#FFFBC9"/>
<stop offset="0.54" stop-color="#F9B673"/>
<stop offset="0.64" stop-color="#F9B876"/>
<stop offset="0.72" stop-color="#FABE81"/>
<stop offset="0.81" stop-color="#FCC993"/>
<stop offset="0.86" stop-color="#FED2A3"/>
<stop offset="0.97" stop-color="#FFC28C"/>
</linearGradient>
<radialGradient id="paint54_radial_1_3" cx="0" cy="0" r="1" gradientUnits="userSpaceOnUse" gradientTransform="translate(164793 -61117.7) scale(243.011 147.077)">
<stop stop-color="#F49587"/>
<stop offset="0.12" stop-color="#BD7368"/>
<stop offset="0.24" stop-color="#8B554D"/>
<stop offset="0.36" stop-color="#603B35"/>
<stop offset="0.48" stop-color="#3E2622"/>
<stop offset="0.61" stop-color="#231513"/>
<stop offset="0.74" stop-color="#0F0908"/>
<stop offset="0.86" stop-color="#040202"/>
<stop offset="1"/>
</radialGradient>
<linearGradient id="paint55_linear_1_3" x1="276.192" y1="265.622" x2="391.797" y2="265.622" gradientUnits="userSpaceOnUse">
<stop stop-color="#FFBB96"/>
<stop offset="0.23" stop-color="#FFFBC9"/>
<stop offset="0.54" stop-color="#F9B673"/>
<stop offset="0.64" stop-color="#F9B876"/>
<stop offset="0.72" stop-color="#FABE81"/>
<stop offset="0.81" stop-color="#FCC993"/>
<stop offset="0.86" stop-color="#FED2A3"/>
<stop offset="0.97" stop-color="#FFC28C"/>
</linearGradient>
<linearGradient id="paint56_linear_1_3" x1="447.273" y1="222.251" x2="370.672" y2="284.952" gradientUnits="userSpaceOnUse">
<stop offset="0.04" stop-color="#FFBA78"/>
<stop offset="0.4" stop-color="#FFC987"/>
<stop offset="1" stop-color="#FEECA8"/>
</linearGradient>
<radialGradient id="paint57_radial_1_3" cx="0" cy="0" r="1" gradientUnits="userSpaceOnUse" gradientTransform="translate(254.892 268.947) scale(103.422 68.9532)">
<stop stop-color="#F49587"/>
<stop offset="0.12" stop-color="#BD7368"/>
<stop offset="0.24" stop-color="#8B554D"/>
<stop offset="0.36" stop-color="#603B35"/>
<stop offset="0.48" stop-color="#3E2622"/>
<stop offset="0.61" stop-color="#231513"/>
<stop offset="0.74" stop-color="#0F0908"/>
<stop offset="0.86" stop-color="#040202"/>
<stop offset="1"/>
</radialGradient>
<linearGradient id="paint58_linear_1_3" x1="437.951" y1="474.864" x2="1254.14" y2="474.864" gradientUnits="userSpaceOnUse">
<stop stop-color="#FFBB96"/>
<stop offset="0.23" stop-color="#FFFBC9"/>
<stop offset="0.54" stop-color="#F9B673"/>
<stop offset="0.64" stop-color="#F9B876"/>
<stop offset="0.72" stop-color="#FABE81"/>
<stop offset="0.81" stop-color="#FCC993"/>
<stop offset="0.86" stop-color="#FED2A3"/>
<stop offset="0.97" stop-color="#FFC28C"/>
</linearGradient>
<linearGradient id="paint59_linear_1_3" x1="437.951" y1="376.491" x2="1254.14" y2="376.491" gradientUnits="userSpaceOnUse">
<stop stop-color="#FFBB96"/>
<stop offset="0.23" stop-color="#FFFBC9"/>
<stop offset="0.54" stop-color="#F9B673"/>
<stop offset="0.64" stop-color="#F9B876"/>
<stop offset="0.72" stop-color="#FABE81"/>
<stop offset="0.81" stop-color="#FCC993"/>
<stop offset="0.86" stop-color="#FED2A3"/>
<stop offset="0.97" stop-color="#FFC28C"/>
</linearGradient>
<linearGradient id="paint60_linear_1_3" x1="1615.35" y1="50.8868" x2="1192.04" y2="766.457" gradientUnits="userSpaceOnUse">
<stop offset="0.04" stop-color="#FFBA78"/>
<stop offset="0.4" stop-color="#FFC987"/>
<stop offset="1" stop-color="#FEECA8"/>
</linearGradient>
<radialGradient id="paint61_radial_1_3" cx="0" cy="0" r="1" gradientUnits="userSpaceOnUse" gradientTransform="translate(670.485 335.774) scale(521.178 160.604)">
<stop stop-color="white"/>
<stop offset="1"/>
</radialGradient>
<linearGradient id="paint62_linear_1_3" x1="890.38" y1="239.454" x2="652.671" y2="640.055" gradientUnits="userSpaceOnUse">
<stop offset="0.04" stop-color="#FFBA78"/>
<stop offset="0.4" stop-color="#FFC987"/>
<stop offset="1" stop-color="#FEECA8"/>
</linearGradient>
<radialGradient id="paint63_radial_1_3" cx="0" cy="0" r="1" gradientUnits="userSpaceOnUse" gradientTransform="translate(749.779 167.607) scale(171.253 53.753)">
<stop stop-color="white"/>
<stop offset="1"/>
</radialGradient>
<linearGradient id="paint64_linear_1_3" x1="973.714" y1="104.694" x2="897.61" y2="349.152" gradientUnits="userSpaceOnUse">
<stop stop-color="#FFBB96"/>
<stop offset="0.23" stop-color="#FFFBC9"/>
<stop offset="0.54" stop-color="#F9B673"/>
<stop offset="0.64" stop-color="#F9B876"/>
<stop offset="0.72" stop-color="#FABE81"/>
<stop offset="0.81" stop-color="#FCC993"/>
<stop offset="0.86" stop-color="#FED2A3"/>
<stop offset="0.97" stop-color="#FFC28C"/>
</linearGradient>
<linearGradient id="paint65_linear_1_3" x1="276.192" y1="230.127" x2="391.797" y2="230.127" gradientUnits="userSpaceOnUse">
<stop stop-color="#FFBB96"/>
<stop offset="0.23" stop-color="#FFFBC9"/>
<stop offset="0.54" stop-color="#F9B673"/>
<stop offset="0.64" stop-color="#F9B876"/>
<stop offset="0.72" stop-color="#FABE81"/>
<stop offset="0.81" stop-color="#FCC993"/>
<stop offset="0.86" stop-color="#FED2A3"/>
<stop offset="0.97" stop-color="#FFC28C"/>
</linearGradient>
<linearGradient id="paint66_linear_1_3" x1="447.29" y1="185.502" x2="370.607" y2="248.188" gradientUnits="userSpaceOnUse">
<stop offset="0.04" stop-color="#FFBA78"/>
<stop offset="0.4" stop-color="#FFC987"/>
<stop offset="1" stop-color="#FEECA8"/>
</linearGradient>
<radialGradient id="paint67_radial_1_3" cx="0" cy="0" r="1" gradientUnits="userSpaceOnUse" gradientTransform="translate(254.902 232.325) scale(103.426 69.0444)">
<stop stop-color="#F49587"/>
<stop offset="0.12" stop-color="#BD7368"/>
<stop offset="0.24" stop-color="#8B554D"/>
<stop offset="0.36" stop-color="#603B35"/>
<stop offset="0.48" stop-color="#3E2622"/>
<stop offset="0.61" stop-color="#231513"/>
<stop offset="0.74" stop-color="#0F0908"/>
<stop offset="0.86" stop-color="#040202"/>
<stop offset="1"/>
</radialGradient>
<clipPath id="clip0_1_3">
<rect width="41" height="44" fill="white"/>
</clipPath>
</defs>
</svg>
