<svg width="114" height="114" viewBox="0 0 114 114" fill="none" xmlns="http://www.w3.org/2000/svg">
<path d="M72.8507 113.9L107.127 106.485C107.127 106.485 94.7577 22.8238 94.658 22.268C94.5725 21.717 94.1165 21.356 93.6557 21.356C93.195 21.356 84.493 20.71 84.493 20.71C84.493 20.71 78.4367 14.6585 77.6577 14.0077C77.4896 13.8559 77.2947 13.7367 77.083 13.6562L72.7415 113.9H72.8507ZM55.6225 53.6988C55.6225 53.6988 51.775 51.6847 47.196 51.6847C40.3227 51.6847 40.052 55.9883 40.052 57.1045C40.052 62.9565 55.442 65.2507 55.442 79.0922C55.442 89.9935 48.602 96.9522 39.2635 96.9522C28.082 96.9522 22.4485 89.9935 22.4485 89.9935L25.517 80.085C25.517 80.085 31.4307 85.1485 36.347 85.1485C36.9433 85.1681 37.5376 85.0686 38.095 84.8556C38.6524 84.6426 39.1616 84.3206 39.593 83.9083C40.0243 83.496 40.369 83.0017 40.6068 82.4545C40.8447 81.9073 40.971 81.3181 40.9782 80.7215C40.9782 73.0312 28.3717 72.675 28.3717 60.0163C28.2102 49.3905 35.834 39.0402 51.3 39.0402C57.2707 39.0402 60.2062 40.755 60.2062 40.755L55.7175 53.6512L55.6225 53.6988ZM53.0575 3.9425C53.7035 3.9425 54.3447 4.123 54.9812 4.58375C50.3072 6.7925 45.1772 12.369 43.0682 23.5457C40.0919 24.5079 37.1006 25.4232 34.0955 26.2912C36.5607 17.8125 42.5172 3.99 53.0575 3.99V3.9425ZM58.9237 17.9503V18.5915C55.3422 19.6935 51.4045 20.8905 47.5522 22.0875C49.7657 13.6468 53.884 9.52375 57.456 7.97525C58.3727 10.355 58.9237 13.5612 58.9237 17.9503ZM61.484 7.33875C64.7805 7.69025 66.9037 11.457 68.2717 15.675C66.614 16.2165 64.7805 16.7722 62.7712 17.4135V16.2165C62.7712 12.6445 62.3152 9.70425 61.484 7.32925V7.33875ZM75.696 13.4615C75.601 13.4615 75.411 13.5612 75.3255 13.5612C75.24 13.5612 73.9527 13.9175 71.934 14.5588C69.9247 8.702 66.348 3.30125 60.021 3.30125H59.4747C57.6412 0.99275 55.4277 0 53.5087 0C38.7552 0 31.7062 18.4158 29.4975 27.7685C23.826 29.5023 19.6982 30.7895 19.2375 30.97C16.0312 31.9818 15.941 32.072 15.5705 35.1025C15.2142 37.297 6.87799 101.902 6.87799 101.902L71.2927 114L75.696 13.4615Z" fill="white"/>
</svg>
