<svg width="70" height="59" viewBox="0 0 70 59" fill="none" xmlns="http://www.w3.org/2000/svg">
<g clip-path="url(#clip0_27_2152)" filter="url(#filter0_d_27_2152)">
<g opacity="0.74">
<path opacity="0.74" fill-rule="evenodd" clip-rule="evenodd" d="M15.558 43.0998C15.5624 43.1735 15.6458 43.3038 15.7022 43.3736C15.9174 43.6274 16.0917 44.4203 16.1076 44.6908C16.1426 45.1033 16.0918 45.5153 15.9585 45.8998C15.8064 46.3155 15.5706 46.6918 15.2655 47.0054C14.981 47.3143 14.4255 47.7974 14.0213 47.9473C14.0321 47.9101 14.0094 47.9559 14.0456 47.8907C14.055 47.8729 14.0659 47.8561 14.0782 47.8403C14.1002 47.8098 14.1164 47.7932 14.1399 47.7616C14.1784 47.7128 14.2235 47.6502 14.2581 47.5992C14.4356 47.332 14.6779 46.814 14.5541 46.5174C14.3105 46.7046 14.1715 46.9164 13.8372 47.0961C13.0861 47.5009 12.4131 47.5621 11.5868 47.3413C11.0293 47.1929 10.0244 46.6233 9.38999 47.209C9.10807 47.4703 9.13808 47.7583 9.05184 47.8987C8.95083 47.7123 9.00885 47.3856 9.05147 47.2161C9.27868 46.3218 10.0925 45.9684 10.6116 45.4925C11.1197 45.0262 11.0125 44.7822 11.0146 44.2228C11.0141 43.9989 11.0545 43.7785 11.1338 43.5727C11.2569 43.258 11.3971 43.1132 11.4612 42.9585C11.3647 42.9331 11.3323 42.9457 11.2194 42.977C10.8842 43.0716 10.7843 43.2431 10.581 43.4242C10.6781 43.0931 10.971 42.6172 11.2509 42.305C11.6396 41.873 12.0398 41.7187 12.5301 41.6548C12.9388 41.6011 13.3576 41.6376 13.7583 41.7616C14.0602 41.8626 14.662 42.1098 14.9237 42.4152L15.2081 42.6749L15.1423 42.5833C14.7348 42.0706 13.9398 41.6166 13.4609 41.4337C12.884 41.2073 12.2705 41.1087 11.6628 41.1449C10.9671 41.1832 10.3911 41.3282 9.71973 41.8996C9.44808 42.1354 9.20078 42.3984 8.98135 42.6848C8.67785 43.0752 8.62683 43.245 8.45939 43.4837C8.6182 43.2542 8.83737 43.0753 9.09344 42.9662C9.34952 42.857 9.63289 42.8217 9.91323 42.8641C9.78391 43.0008 9.66316 43.1457 9.55164 43.2978C9.21277 43.7577 9.05486 44.1023 8.96801 44.6646C8.91644 45.0145 8.93923 45.2881 8.80533 45.6139C8.32421 46.7845 6.16932 46.9022 5.45588 48.7356C5.36497 48.9643 5.25052 49.4696 5.35191 49.7088C5.39318 49.618 5.42661 49.5235 5.45185 49.4263C5.48332 49.3397 5.52082 49.2557 5.56406 49.1749C5.8911 48.5602 6.46467 48.3507 7.10504 48.402C7.94608 48.4701 8.4972 48.882 9.2005 49.1397C9.89662 49.4063 10.6407 49.4936 11.3642 49.3938C12.3302 49.2577 12.8162 48.9699 13.7213 48.3164C13.7916 48.5853 13.5919 49.0865 13.4147 49.3682C13.1794 49.7272 12.8946 50.0492 12.5685 50.3249C13.0282 50.274 14.3263 49.4321 14.7381 49.0465C15.408 48.4198 15.7748 47.9987 16.0669 47.2612C16.5464 46.0492 16.5328 44.6115 15.5607 43.1003L15.558 43.0998Z" fill="#E42320"/>
<path opacity="0.74" fill-rule="evenodd" clip-rule="evenodd" d="M15.7022 43.3735L15.7987 43.7617C15.8282 43.8897 15.8431 44.0201 15.8431 44.1504C15.8525 44.3989 15.8095 44.6445 15.7171 44.8707C15.6213 45.1453 15.4325 45.3734 15.1832 45.5156C15.0521 45.5968 14.5859 45.7977 14.4012 45.7597C14.586 45.6269 14.7297 45.5163 14.7603 45.3171C14.4402 45.4163 14.2428 45.4683 13.9394 45.4012C13.636 45.3341 13.4543 45.2065 13.1093 45.4258C12.7875 45.6316 12.5951 45.8956 12.2246 46.0466C11.9755 46.1488 11.6106 46.2042 11.3852 46.0484C11.5354 46.0222 11.6954 46.0444 11.8711 45.9076C12.0038 45.8015 12.0904 45.6472 12.1138 45.4751C12.1814 45.1333 12.0957 44.869 12.0922 44.5439C12.0798 44.2327 12.1449 43.9264 12.2814 43.6533C12.4831 43.216 12.6763 43.1842 13.0472 42.8507C12.7721 42.6726 12.2899 42.9275 12.1427 42.9427C12.2878 42.5999 13.1046 42.17 13.5454 42.0983C13.8899 42.0458 14.2461 42.0967 14.5705 42.2449L14.822 42.3771L14.8398 42.3855C14.8462 42.3886 14.8528 42.3912 14.8596 42.3934C14.8794 42.4036 14.901 42.4096 14.9229 42.4108C14.6628 42.1075 14.0573 41.8596 13.7576 41.7572C13.3569 41.6329 12.938 41.5965 12.5293 41.6504C12.039 41.7142 11.6388 41.8686 11.2501 42.3006C10.9702 42.6127 10.6773 43.0886 10.5802 43.4198C10.7861 43.2368 10.8834 43.0672 11.2186 42.9726C11.332 42.9409 11.3665 42.9268 11.4605 42.9541C11.3963 43.1088 11.2556 43.254 11.1336 43.5679C11.0539 43.7737 11.0133 43.9943 11.0138 44.2184C11.0117 44.7778 11.1205 45.0207 10.6108 45.4881C10.0917 45.964 9.27789 46.3174 9.05107 47.2122C9.00806 47.3812 8.94952 47.7083 9.05053 47.8947C9.13574 47.7518 9.10638 47.4657 9.38921 47.2046C10.0231 46.6193 11.0285 47.1885 11.5865 47.3365C12.416 47.5575 13.0879 47.4946 13.8369 47.0913C14.1712 46.9116 14.3103 46.6998 14.5538 46.5126C14.6777 46.8092 14.4348 47.3276 14.2578 47.5944C14.2242 47.6446 14.1812 47.7057 14.1397 47.7568C14.1162 47.7884 14.0973 47.8069 14.0785 47.8351C14.0659 47.851 14.0548 47.8679 14.0453 47.8859C14.0091 47.9511 14.0319 47.9053 14.0205 47.9429C14.4258 47.7923 14.9812 47.3091 15.2652 47.0006C15.5702 46.6869 15.806 46.3107 15.9582 45.895C16.0915 45.5105 16.1423 45.0986 16.1073 44.686C16.091 44.4159 15.9187 43.6248 15.702 43.3688L15.7022 43.3735Z" fill="#F28F25"/>
<path opacity="0.74" fill-rule="evenodd" clip-rule="evenodd" d="M15.7022 43.3736C15.6458 43.3038 15.5598 43.1753 15.558 43.0998C15.4688 42.967 15.2653 42.6411 15.1415 42.5822L15.2077 42.6743L14.9233 42.4146C14.9014 42.4134 14.8798 42.4075 14.8599 42.3973C14.8532 42.3951 14.8466 42.3925 14.8402 42.3894L14.8224 42.381L14.5709 42.2488C14.2465 42.1006 13.8903 42.0497 13.5458 42.1022C13.1018 42.1695 12.2856 42.5991 12.143 42.9465C12.2893 42.9322 12.7725 42.6765 13.0476 42.8546C12.6767 43.1881 12.4834 43.2199 12.2818 43.6572C12.1453 43.9302 12.0802 44.2365 12.0926 44.5478C12.0957 44.8724 12.1803 45.1383 12.1142 45.479C12.0908 45.6511 12.0042 45.8054 11.8715 45.9115C11.6943 46.0494 11.5354 46.0255 11.3856 46.0523C11.611 46.2081 11.9759 46.1526 12.225 46.0505C12.5971 45.8983 12.7879 45.6355 13.1097 45.4296C13.4539 45.2093 13.645 45.3391 13.9398 45.4051C14.2345 45.4711 14.4401 45.4206 14.7607 45.321C14.7301 45.5202 14.5884 45.6335 14.4016 45.7636C14.5857 45.802 15.0524 45.6007 15.1836 45.5195C15.4328 45.3773 15.6217 45.1492 15.7175 44.8746C15.8099 44.6484 15.8529 44.4028 15.8435 44.1543C15.8435 44.024 15.8286 43.8936 15.799 43.7655L15.7022 43.3736Z" fill="#F8E82D"/>
<path opacity="0.74" fill-rule="evenodd" clip-rule="evenodd" d="M10.4211 42.6862L10.1773 45.2114C9.65768 44.7148 8.95345 44.5778 8.44362 44.851C8.02969 45.0724 7.88389 45.4883 7.83946 45.6248C7.8151 45.5547 7.7963 45.483 7.78324 45.4103C7.78324 45.4103 7.69005 44.8916 8.03025 44.2527C8.32204 43.7033 9.17537 43.0616 10.4219 42.6873L10.4211 42.6862Z" fill="#E42320"/>
<path opacity="0.74" fill-rule="evenodd" clip-rule="evenodd" d="M11.2376 43.6713L11.118 44.9073C10.8648 44.6637 10.5195 44.5972 10.2697 44.731C10.1264 44.8129 10.0206 44.9471 9.97274 45.1076C9.96056 45.0734 9.95128 45.0382 9.94502 45.0026C9.92559 44.8032 9.96767 44.6051 10.0654 44.4358C10.21 44.1685 10.6258 43.8527 11.2365 43.6688L11.2376 43.6713Z" fill="#F28F25"/>
<path opacity="0.74" fill-rule="evenodd" clip-rule="evenodd" d="M12.8917 43.1561L12.7722 44.392C12.5189 44.1484 12.1737 44.0819 11.9243 44.2153C11.7809 44.2974 11.6749 44.4317 11.6269 44.5924C11.615 44.558 11.6057 44.5229 11.5991 44.4873C11.5798 44.2877 11.622 44.0895 11.72 43.9201C11.8641 43.6533 12.2804 43.3371 12.8912 43.1532L12.8917 43.1561Z" fill="#F8E82D"/>
</g>
<path d="M56.6603 18.6721L52.2812 28.1142L41.988 35.5086L46.1493 26.223L56.6603 18.6721Z" fill="#2985C7"/>
<path d="M51.6809 11.7406L41.1844 12.6672L30.8912 20.0616L41.1699 19.2915L51.6809 11.7406Z" fill="#2985C7"/>
<path d="M58.6731 6.71839C60.4838 5.41762 63.066 5.9143 64.4412 7.82861C65.8164 9.74291 65.4599 12.3466 63.6503 13.6466L61.2752 15.3528L56.2962 8.42188L58.6731 6.71839Z" fill="#9EB5DF"/>
<path d="M56.2991 8.4238L61.2782 15.3547L60.4908 15.9204L55.5118 8.98943L56.2991 8.4238Z" fill="#0660A7"/>
<path d="M55.5118 8.98948L60.4908 15.9204L29.8928 37.9014L24.9138 30.9705L55.5118 8.98948Z" fill="#BCC3DF"/>
<path d="M24.9138 30.9704L29.8928 37.9014L22.2742 43.3745L17.2951 36.4435L24.9138 30.9704Z" fill="#0E6AB2"/>
<path d="M22.2747 43.3742L20.1067 44.4587L18.2863 47.1036L15.3869 43.0676L19.7848 39.9082L22.2747 43.3742Z" fill="#173150"/>
<path d="M17.2953 36.4427L15.5755 38.1511L12.4878 39.032L15.3873 43.0681L19.7852 39.9087L17.2953 36.4427Z" fill="#173150"/>
<path d="M22.2723 43.3718C21.55 43.7328 20.8276 44.0943 20.1052 44.4565L15.5735 38.1484L17.2928 36.4404L22.2723 43.3718Z" fill="#173150"/>
<path d="M52.5719 11.1014L57.551 18.0323L56.6603 18.6722L51.6813 11.7412L52.5719 11.1014Z" fill="#0660A7"/>
<path d="M52.3323 12.6474L55.9137 17.6328L29.1467 36.8617L25.5653 31.8763L52.3323 12.6474Z" fill="#D8DAE1"/>
<path d="M56.1628 9.89572L59.7442 14.8811L56.8043 16.993L53.2229 12.0077L56.1628 9.89572Z" fill="#D8DAE1"/>
<path d="M59.731 7.33237L63.3124 12.3177L60.5316 14.3155L56.9502 9.33007L59.731 7.33237Z" fill="#D8DAE1"/>
<path d="M59.7309 7.33327C61.3383 6.55262 63.1444 6.8047 64.0234 8.02828C64.9024 9.25186 64.5648 11.0439 63.3123 12.3187L59.7309 7.33327Z" fill="#F3F2F3"/>
<path d="M25.5648 31.8767L29.1462 36.8621L21.5276 42.3352L17.9462 37.3498L25.5648 31.8767Z" fill="#46A1D9"/>
<path d="M17.9409 37.3414L21.5281 42.3348L19.5914 43.7261L16.0042 38.7326L17.9409 37.3414Z" fill="#035687"/>
<path d="M56.9502 9.33005L60.5316 14.3154L59.7442 14.8811L56.1628 9.89568L56.9502 9.33005Z" fill="#46A1D9"/>
<path d="M53.2229 12.0077L56.8044 16.993L55.9137 17.6329L52.3323 12.6475L53.2229 12.0077Z" fill="#46A1D9"/>
<path d="M13.2471 40.09L17.4768 45.9778C18.1816 45.2271 18.8859 44.4761 19.5897 43.7248L16.0025 38.7314C15.0835 39.183 14.1645 39.6352 13.2456 40.0878L13.2471 40.09Z" fill="#035687"/>
<path d="M46.1216 26.2063C45.8892 26.7544 45.6556 27.3009 45.4208 27.8459C48.8693 25.4416 52.3169 23.037 55.7639 20.6321L56.6583 18.6736L46.12 26.2074L46.1216 26.2063Z" fill="#0E6AB2"/>
<path d="M41.1699 19.2916C40.5762 19.3369 39.9825 19.3822 39.3889 19.4275L49.5945 11.9277L51.7052 11.7233L41.1699 19.2916Z" fill="#0E6AB2"/>
<path d="M26.554 33.3822L38.1961 25.0816L39.9073 27.0747L54.9171 16.2454L54.7664 16.0367L39.9396 26.7329L38.2292 24.7409L26.4039 33.1722L26.554 33.3822Z" fill="#46A1D9"/>
<path d="M32.4511 29.0205L32.2531 29.1686L30.5829 26.9285L30.7809 26.7804L32.4511 29.0205Z" fill="#46A1D9"/>
<path d="M31.444 29.7433L31.246 29.8915L29.5757 27.6514L29.7738 27.5033L31.444 29.7433Z" fill="#46A1D9"/>
<path d="M37.4617 27.6529L38.3244 28.8539L32.9182 32.7376L32.0554 31.5367L37.4617 27.6529Z" fill="#F2E500"/>
<path d="M31.0786 32.2384L31.9413 33.4393L30.8973 34.1893L30.0346 32.9884L31.0786 32.2384Z" fill="#E94A93"/>
<path d="M29.9725 34.3554L30.1757 34.6383L29.8411 34.8787L29.6379 34.5958L29.9725 34.3554Z" fill="white"/>
<path d="M29.3454 33.4826L29.5486 33.7655L29.2141 34.0059L29.0109 33.723L29.3454 33.4826Z" fill="white"/>
<path d="M48.9896 16.4072L49.5914 17.245L42.4669 22.3631L41.865 21.5253L48.9896 16.4072Z" fill="#6A71B3"/>
<path d="M50.651 15.2136L51.2154 15.9991L50.4626 16.5399L49.8983 15.7544L50.651 15.2136Z" fill="#71B532"/>
<path d="M41.1071 22.0698L41.6714 22.8553L40.9186 23.3961L40.3543 22.6106L41.1071 22.0698Z" fill="#71B532"/>
<g opacity="0.47">
<path opacity="0.47" d="M20.7183 33.9845L25.6973 40.9154L25.1887 41.2807L20.2097 34.3498L20.7183 33.9845Z" fill="white"/>
</g>
<g opacity="0.49">
<path opacity="0.49" d="M21.1713 36.9173L23.4812 40.1328L22.859 40.5798L20.5491 37.3643L21.1713 36.9173Z" fill="#54C2E9"/>
</g>
<path d="M25.3256 37.3907L25.6724 37.8734L25.2098 38.2057L24.863 37.723L25.3256 37.3907Z" fill="#54C2E9"/>
<path d="M26.0573 34.0878L26.6468 34.9083L23.5608 37.1252L22.9713 36.3047L26.0573 34.0878Z" fill="#54C2E9"/>
<path d="M15.2356 37.4371L20.743 45.1035L20.1275 45.5457L14.6201 37.8793L15.2356 37.4371Z" fill="#112A40"/>
</g>
<defs>
<filter id="filter0_d_27_2152" x="-4.00002" y="0" width="77.9142" height="65.7003" filterUnits="userSpaceOnUse" color-interpolation-filters="sRGB">
<feFlood flood-opacity="0" result="BackgroundImageFix"/>
<feColorMatrix in="SourceAlpha" type="matrix" values="0 0 0 0 0 0 0 0 0 0 0 0 0 0 0 0 0 0 127 0" result="hardAlpha"/>
<feOffset dy="4"/>
<feGaussianBlur stdDeviation="2"/>
<feComposite in2="hardAlpha" operator="out"/>
<feColorMatrix type="matrix" values="0 0 0 0 0 0 0 0 0 0 0 0 0 0 0 0 0 0 0.72 0"/>
<feBlend mode="normal" in2="BackgroundImageFix" result="effect1_dropShadow_27_2152"/>
<feBlend mode="normal" in="SourceGraphic" in2="effect1_dropShadow_27_2152" result="shape"/>
</filter>
<clipPath id="clip0_27_2152">
<rect width="19.0197" height="72.4211" fill="white" transform="matrix(-0.583439 -0.812157 -0.812157 0.583439 69.9142 15.447)"/>
</clipPath>
</defs>
</svg>
