<svg width="60" height="45" viewBox="0 0 60 45" fill="none" xmlns="http://www.w3.org/2000/svg">
<g opacity="0.74">
<path opacity="0.74" fill-rule="evenodd" clip-rule="evenodd" d="M10.2457 37.1065C10.2501 37.1802 10.3335 37.3105 10.3899 37.3803C10.6051 37.6341 10.7794 38.427 10.7953 38.6975C10.8303 39.11 10.7795 39.522 10.6462 39.9065C10.4941 40.3222 10.2583 40.6985 9.95325 41.0121C9.66875 41.321 9.11325 41.8041 8.70905 41.954C8.71985 41.9168 8.69715 41.9626 8.73335 41.8974C8.74275 41.8796 8.75365 41.8628 8.76595 41.847C8.78795 41.8165 8.80415 41.7999 8.82765 41.7683C8.86615 41.7195 8.91125 41.6569 8.94585 41.6059C9.12335 41.3387 9.36565 40.8207 9.24185 40.5241C8.99825 40.7113 8.85925 40.9231 8.52495 41.1028C7.77385 41.5076 7.10085 41.5688 6.27455 41.348C5.71705 41.1996 4.71215 40.63 4.07774 41.2157C3.79582 41.477 3.82583 41.765 3.73959 41.9054C3.63858 41.719 3.6966 41.3923 3.73922 41.2228C3.96643 40.3285 4.78025 39.9751 5.29935 39.4992C5.80745 39.0329 5.70025 38.7889 5.70235 38.2295C5.70185 38.0056 5.74225 37.7852 5.82155 37.5794C5.94465 37.2647 6.08485 37.1199 6.14895 36.9652C6.05245 36.9398 6.02005 36.9524 5.90715 36.9837C5.57195 37.0783 5.47205 37.2498 5.26875 37.4309C5.36585 37.0998 5.65875 36.6239 5.93865 36.3117C6.32735 35.8797 6.72755 35.7254 7.21785 35.6615C7.62655 35.6078 8.04535 35.6443 8.44605 35.7683C8.74795 35.8693 9.34975 36.1165 9.61145 36.4219L9.89585 36.6816L9.83005 36.59C9.42255 36.0773 8.62755 35.6233 8.14865 35.4404C7.57175 35.214 6.95825 35.1154 6.35055 35.1516C5.65485 35.1899 5.07885 35.3349 4.40748 35.9063C4.13583 36.1421 3.88853 36.4051 3.6691 36.6915C3.3656 37.0819 3.31458 37.2517 3.14714 37.4904C3.30595 37.2609 3.52512 37.082 3.78119 36.9729C4.03727 36.8637 4.32064 36.8284 4.60098 36.8708C4.47166 37.0075 4.35091 37.1524 4.23939 37.3045C3.90052 37.7644 3.74261 38.109 3.65576 38.6713C3.60419 39.0212 3.62698 39.2948 3.49308 39.6206C3.01196 40.7912 0.85707 40.9089 0.14363 42.7423C0.0527195 42.971 -0.0617305 43.4763 0.0396595 43.7155C0.0809295 43.6247 0.114359 43.5302 0.139599 43.433C0.171069 43.3464 0.20857 43.2624 0.25181 43.1816C0.57885 42.5669 1.15242 42.3574 1.79279 42.4087C2.63383 42.4768 3.18495 42.8887 3.88825 43.1464C4.58437 43.413 5.32845 43.5003 6.05195 43.4005C7.01795 43.2644 7.50395 42.9766 8.40905 42.3231C8.47935 42.592 8.27965 43.0932 8.10245 43.3749C7.86715 43.7339 7.58235 44.0559 7.25625 44.3316C7.71595 44.2807 9.01405 43.4388 9.42585 43.0532C10.0957 42.4265 10.4625 42.0054 10.7546 41.2679C11.2341 40.0559 11.2205 38.6182 10.2484 37.107L10.2457 37.1065Z" fill="#E42320"/>
<path opacity="0.74" fill-rule="evenodd" clip-rule="evenodd" d="M10.39 37.3802L10.4865 37.7684C10.516 37.8964 10.5309 38.0268 10.5309 38.1571C10.5403 38.4056 10.4973 38.6512 10.4049 38.8774C10.3091 39.152 10.1203 39.3801 9.87095 39.5223C9.73985 39.6035 9.27365 39.8044 9.08895 39.7664C9.27375 39.6336 9.41745 39.523 9.44805 39.3238C9.12795 39.423 8.93055 39.475 8.62715 39.4079C8.32375 39.3408 8.14205 39.2132 7.79705 39.4325C7.47525 39.6383 7.28285 39.9023 6.91235 40.0533C6.66325 40.1555 6.29835 40.2109 6.07295 40.0551C6.22315 40.0289 6.38315 40.0511 6.55885 39.9143C6.69155 39.8082 6.77815 39.6539 6.80155 39.4818C6.86915 39.14 6.78345 38.8757 6.77995 38.5506C6.76755 38.2394 6.83265 37.9331 6.96915 37.66C7.17085 37.2227 7.36405 37.1909 7.73495 36.8574C7.45985 36.6793 6.97765 36.9342 6.83045 36.9494C6.97555 36.6066 7.79235 36.1767 8.23315 36.105C8.57765 36.0525 8.93385 36.1034 9.25825 36.2516L9.50975 36.3838L9.52755 36.3922C9.53395 36.3953 9.54055 36.3979 9.54735 36.4001C9.56715 36.4103 9.58875 36.4163 9.61065 36.4175C9.35055 36.1142 8.74505 35.8663 8.44535 35.7639C8.04465 35.6396 7.62575 35.6032 7.21705 35.6571C6.72675 35.7209 6.32655 35.8753 5.93785 36.3073C5.65795 36.6194 5.36505 37.0953 5.26795 37.4265C5.47385 37.2435 5.57115 37.0739 5.90635 36.9793C6.01975 36.9476 6.05425 36.9335 6.14825 36.9608C6.08405 37.1155 5.94335 37.2607 5.82135 37.5746C5.74165 37.7804 5.70105 38.001 5.70155 38.2251C5.69945 38.7845 5.80825 39.0274 5.29855 39.4948C4.77945 39.9707 3.96564 40.3241 3.73882 41.2189C3.69581 41.3879 3.63727 41.715 3.73828 41.9014C3.82349 41.7585 3.79413 41.4724 4.07696 41.2113C4.71085 40.626 5.71625 41.1952 6.27425 41.3432C7.10375 41.5642 7.77565 41.5013 8.52465 41.098C8.85895 40.9183 8.99805 40.7065 9.24155 40.5193C9.36545 40.8159 9.12255 41.3343 8.94555 41.6011C8.91195 41.6513 8.86895 41.7124 8.82745 41.7635C8.80395 41.7951 8.78505 41.8136 8.76625 41.8418C8.75365 41.8577 8.74255 41.8746 8.73305 41.8926C8.69685 41.9578 8.71965 41.912 8.70825 41.9496C9.11355 41.799 9.66895 41.3158 9.95295 41.0073C10.258 40.6936 10.4938 40.3174 10.646 39.9017C10.7793 39.5172 10.8301 39.1053 10.7951 38.6927C10.7788 38.4226 10.6065 37.6315 10.3898 37.3755L10.39 37.3802Z" fill="#F28F25"/>
<path opacity="0.74" fill-rule="evenodd" clip-rule="evenodd" d="M10.3899 37.3803C10.3335 37.3105 10.2475 37.182 10.2457 37.1065C10.1565 36.9737 9.95305 36.6478 9.82925 36.5889L9.89545 36.681L9.61105 36.4213C9.58915 36.4201 9.56755 36.4142 9.54765 36.404C9.54095 36.4018 9.53435 36.3992 9.52795 36.3961L9.51015 36.3877L9.25865 36.2555C8.93425 36.1073 8.57805 36.0564 8.23355 36.1089C7.78955 36.1762 6.97335 36.6058 6.83075 36.9532C6.97705 36.9389 7.46025 36.6832 7.73535 36.8613C7.36445 37.1948 7.17115 37.2266 6.96955 37.6639C6.83305 37.9369 6.76795 38.2432 6.78035 38.5545C6.78345 38.8791 6.86805 39.145 6.80195 39.4857C6.77855 39.6578 6.69195 39.8121 6.55925 39.9182C6.38205 40.0561 6.22315 40.0322 6.07335 40.059C6.29875 40.2148 6.66365 40.1593 6.91275 40.0572C7.28485 39.905 7.47565 39.6422 7.79745 39.4363C8.14165 39.216 8.33275 39.3458 8.62755 39.4118C8.92225 39.4778 9.12785 39.4273 9.44845 39.3277C9.41785 39.5269 9.27615 39.6402 9.08935 39.7703C9.27345 39.8087 9.74015 39.6074 9.87135 39.5262C10.1205 39.384 10.3094 39.1559 10.4052 38.8813C10.4976 38.6551 10.5406 38.4095 10.5312 38.161C10.5312 38.0307 10.5163 37.9003 10.4867 37.7722L10.3899 37.3803Z" fill="#F8E82D"/>
<path opacity="0.74" fill-rule="evenodd" clip-rule="evenodd" d="M5.10885 36.6929L4.86505 39.2181C4.34543 38.7215 3.6412 38.5845 3.13137 38.8577C2.71744 39.0791 2.57164 39.495 2.52721 39.6315C2.50285 39.5614 2.48405 39.4897 2.47099 39.417C2.47099 39.417 2.3778 38.8983 2.718 38.2594C3.00979 37.71 3.86312 37.0683 5.10965 36.694L5.10885 36.6929Z" fill="#E42320"/>
<path opacity="0.74" fill-rule="evenodd" clip-rule="evenodd" d="M5.92535 37.678L5.80575 38.914C5.55255 38.6704 5.20725 38.6039 4.95745 38.7377C4.81415 38.8196 4.70835 38.9538 4.66049 39.1143C4.64831 39.0801 4.63903 39.0449 4.63277 39.0093C4.61334 38.8099 4.65542 38.6118 4.75315 38.4425C4.89775 38.1752 5.31355 37.8594 5.92425 37.6755L5.92535 37.678Z" fill="#F28F25"/>
<path opacity="0.74" fill-rule="evenodd" clip-rule="evenodd" d="M7.57945 37.1628L7.45995 38.3987C7.20665 38.1551 6.86145 38.0886 6.61205 38.222C6.46865 38.3041 6.36265 38.4384 6.31465 38.5991C6.30275 38.5647 6.29345 38.5296 6.28685 38.494C6.26755 38.2944 6.30975 38.0962 6.40775 37.9268C6.55185 37.66 6.96815 37.3438 7.57895 37.1599L7.57945 37.1628Z" fill="#F8E82D"/>
</g>
<path d="M51.348 12.6788L46.9689 22.1209L36.6757 29.5153L40.837 20.2297L51.348 12.6788Z" fill="#2985C7"/>
<path d="M46.3687 5.74732L35.8721 6.67392L25.5789 14.0683L35.8576 13.2982L46.3687 5.74732Z" fill="#2985C7"/>
<path d="M53.3608 0.725113C55.1715 -0.575657 57.7537 -0.0789765 59.1289 1.83533C60.5041 3.74963 60.1476 6.35332 58.338 7.65332L55.9629 9.35952L50.9839 2.4286L53.3608 0.725113Z" fill="#9EB5DF"/>
<path d="M50.9868 2.43053L55.9659 9.36143L55.1785 9.92713L50.1995 2.99616L50.9868 2.43053Z" fill="#0660A7"/>
<path d="M50.1995 2.9962L55.1785 9.92712L24.5805 31.9081L19.6015 24.9772L50.1995 2.9962Z" fill="#BCC3DF"/>
<path d="M19.6015 24.9771L24.5805 31.9081L16.962 37.3812L11.9828 30.4502L19.6015 24.9771Z" fill="#0E6AB2"/>
<path d="M16.9624 37.3809L14.7944 38.4654L12.974 41.1103L10.0746 37.0743L14.4725 33.9149L16.9624 37.3809Z" fill="#173150"/>
<path d="M11.9831 30.4494L10.2633 32.1578L7.17555 33.0387L10.0751 37.0748L14.473 33.9154L11.9831 30.4494Z" fill="#173150"/>
<path d="M16.96 37.3785C16.2377 37.7395 15.5153 38.101 14.7929 38.4632L10.2612 32.1551L11.9805 30.4471L16.96 37.3785Z" fill="#173150"/>
<path d="M47.2596 5.10812L52.2387 12.039L51.348 12.6789L46.369 5.74792L47.2596 5.10812Z" fill="#0660A7"/>
<path d="M47.0201 6.65412L50.6015 11.6395L23.8345 30.8684L20.2531 25.883L47.0201 6.65412Z" fill="#D8DAE1"/>
<path d="M50.8505 3.90244L54.4319 8.88782L51.492 10.9997L47.9106 6.01442L50.8505 3.90244Z" fill="#D8DAE1"/>
<path d="M54.4187 1.3391L58.0001 6.32443L55.2193 8.32223L51.6379 3.3368L54.4187 1.3391Z" fill="#D8DAE1"/>
<path d="M54.4186 1.34C56.026 0.559346 57.8321 0.811426 58.7111 2.03501C59.5901 3.25859 59.2525 5.05063 58 6.32543L54.4186 1.34Z" fill="#F3F2F3"/>
<path d="M20.2526 25.8834L23.834 30.8688L16.2153 36.3419L12.6339 31.3565L20.2526 25.8834Z" fill="#46A1D9"/>
<path d="M12.6286 31.3481L16.2158 36.3415L14.2791 37.7328L10.6919 32.7393L12.6286 31.3481Z" fill="#035687"/>
<path d="M51.6379 3.33678L55.2193 8.32213L54.4319 8.88783L50.8505 3.90241L51.6379 3.33678Z" fill="#46A1D9"/>
<path d="M47.9106 6.01442L51.4921 10.9997L50.6014 11.6396L47.02 6.65422L47.9106 6.01442Z" fill="#46A1D9"/>
<path d="M7.93485 34.0967L12.1646 39.9845C12.8694 39.2338 13.5737 38.4828 14.2775 37.7315L10.6903 32.7381C9.77125 33.1897 8.85225 33.6419 7.93335 34.0945L7.93485 34.0967Z" fill="#035687"/>
<path d="M40.8093 20.213C40.5769 20.7611 40.3433 21.3076 40.1085 21.8526C43.557 19.4483 47.0046 17.0437 50.4516 14.6388L51.346 12.6803L40.8077 20.2141L40.8093 20.213Z" fill="#0E6AB2"/>
<path d="M35.8576 13.2983C35.2639 13.3436 34.6702 13.3889 34.0766 13.4342L44.2822 5.93443L46.3929 5.73003L35.8576 13.2983Z" fill="#0E6AB2"/>
<path d="M21.2418 27.3889L32.8839 19.0883L34.5951 21.0814L49.6049 10.2521L49.4542 10.0434L34.6274 20.7396L32.917 18.7476L21.0917 27.1789L21.2418 27.3889Z" fill="#46A1D9"/>
<path d="M27.1388 23.0272L26.9408 23.1753L25.2706 20.9352L25.4686 20.7871L27.1388 23.0272Z" fill="#46A1D9"/>
<path d="M26.1318 23.75L25.9338 23.8982L24.2635 21.6581L24.4615 21.51L26.1318 23.75Z" fill="#46A1D9"/>
<path d="M32.1494 21.6596L33.0121 22.8606L27.6059 26.7443L26.7431 25.5434L32.1494 21.6596Z" fill="#F2E500"/>
<path d="M25.7664 26.2451L26.6291 27.446L25.5851 28.196L24.7224 26.9951L25.7664 26.2451Z" fill="#E94A93"/>
<path d="M24.6603 28.3621L24.8635 28.645L24.5289 28.8854L24.3257 28.6025L24.6603 28.3621Z" fill="white"/>
<path d="M24.0332 27.4893L24.2364 27.7722L23.9019 28.0126L23.6987 27.7297L24.0332 27.4893Z" fill="white"/>
<path d="M43.6773 10.4139L44.2791 11.2517L37.1546 16.3698L36.5527 15.532L43.6773 10.4139Z" fill="#6A71B3"/>
<path d="M45.3387 9.22032L45.9031 10.0058L45.1503 10.5466L44.586 9.76112L45.3387 9.22032Z" fill="#71B532"/>
<path d="M35.7948 16.0765L36.3591 16.862L35.6063 17.4028L35.042 16.6173L35.7948 16.0765Z" fill="#71B532"/>
<g opacity="0.47">
<path opacity="0.47" d="M15.406 27.9912L20.385 34.9221L19.8764 35.2874L14.8974 28.3565L15.406 27.9912Z" fill="white"/>
</g>
<g opacity="0.49">
<path opacity="0.49" d="M15.859 30.924L18.1689 34.1395L17.5467 34.5865L15.2368 31.371L15.859 30.924Z" fill="#54C2E9"/>
</g>
<path d="M20.0133 31.3974L20.3601 31.8801L19.8976 32.2124L19.5508 31.7297L20.0133 31.3974Z" fill="#54C2E9"/>
<path d="M20.7451 28.0945L21.3345 28.915L18.2486 31.1319L17.659 30.3114L20.7451 28.0945Z" fill="#54C2E9"/>
<path d="M9.92335 31.4438L15.4307 39.1102L14.8152 39.5524L9.30785 31.886L9.92335 31.4438Z" fill="#112A40"/>
</svg>
